<?xml version="1.0" encoding="UTF-8"?>
<svg width="1008px" height="708px" viewBox="0 0 1008 708" version="1.1" xmlns="http://www.w3.org/2000/svg" xmlns:xlink="http://www.w3.org/1999/xlink">
    <!-- Generator: Sketch 52.6 (67491) - http://www.bohemiancoding.com/sketch -->
    <title>Group</title>
    <desc>Created with Sketch.</desc>
    <g id="Page-1" stroke="none" stroke-width="1" fill="none" fill-rule="evenodd">
        <g id="Group">
            <g id="undraw_animating_1rgh" transform="translate(0.000000, 221.000000)">
                <rect id="Rectangle" fill="#2F2E41" x="38.5" y="263.5" width="969" height="2"></rect>
                <path d="M137,244 C95.026359,244 61,209.973641 61,168 C61,126.026359 95.026359,92 137,92 C178.973641,92 213,126.026359 213,168 C212.952529,209.953962 178.953962,243.952529 137,244 Z M137,94 C96.1309285,94 63,127.130929 63,168 C63,208.869071 96.1309285,242 137,242 C177.869071,242 211,208.869071 211,168 C210.953791,127.150084 177.849916,94.0462089 137,94 Z" id="Shape" fill="#2F2E41" fill-rule="nonzero"></path>
                <path d="M137,76.5 C111.084,76.5 90,59.34123 90,38.25 C90,17.15877 111.084,0 137,0 C162.916,0 184,17.15878 184,38.25 C184,59.34122 162.916,76.5 137,76.5 Z M137,1.62766 C112.18652,1.62766 92,18.05645 92,38.25 C92,58.44355 112.18652,74.87234 137,74.87234 C161.81348,74.87234 182,58.44355 182,38.25 C182,18.05645 161.81348,1.62766 137,1.62766 Z" id="Shape" fill="#2F2E41" fill-rule="nonzero"></path>
                <path d="M115,59 C109.39258,59 105,50.6543 105,40 C105,29.3457 109.39258,21 115,21 C120.60742,21 125,29.34571 125,40 C125,50.65429 120.60742,59 115,59 Z M115,23 C110.66309,23 107,30.78516 107,40 C107,49.21484 110.66309,57 115,57 C119.33691,57 123,49.21485 123,40 C123,30.78515 119.33691,23 115,23 Z" id="Shape" fill="#2F2E41" fill-rule="nonzero"></path>
                <path d="M159,59 C153.39258,59 149,50.6543 149,40 C149,29.3457 153.39258,21 159,21 C164.60742,21 169,29.34571 169,40 C169,50.65429 164.60742,59 159,59 Z M159,23 C154.66309,23 151,30.78516 151,40 C151,49.21484 154.66309,57 159,57 C163.33691,57 167,49.21485 167,40 C167,30.78515 163.33691,23 159,23 Z" id="Shape" fill="#2F2E41" fill-rule="nonzero"></path>
                <path d="M235,149 C212.90861,149 195,131.09139 195,109 C195,86.90861 212.90861,69 235,69 C257.09139,69 275,86.90861 275,109 C274.97492,131.080993 257.080993,148.97492 235,149 Z M235,71 C214.01318,71 197,88.0131795 197,109 C197,129.98682 214.01318,147 235,147 C255.98682,147 273,129.98682 273,109 C272.976177,88.0230554 255.976945,71.0238234 235,71 Z" id="Shape" fill="#2F2E41" fill-rule="nonzero"></path>
                <path d="M40,149 C17.90861,149 0,131.09139 0,109 C0,86.90861 17.90861,69 40,69 C62.09139,69 80,86.90861 80,109 C79.9749201,131.080993 62.0809932,148.97492 40,149 Z M40,71 C19.0131795,71 2,88.0131795 2,109 C2,129.98682 19.0131795,147 40,147 C60.9868205,147 78,129.98682 78,109 C77.9761766,88.0230554 60.9769446,71.0238234 40,71 Z" id="Shape" fill="#2F2E41" fill-rule="nonzero"></path>
                <path d="M137,264 C122.70117,264 111.5,259.16846 111.5,253 C111.5,246.83154 122.70117,242 137,242 C151.29883,242 162.5,246.83155 162.5,253 C162.5,259.16845 151.29883,264 137,264 Z M137,244 C122.94336,244 113.5,248.65381 113.5,253 C113.5,257.34619 122.94336,262 137,262 C151.05664,262 160.5,257.3462 160.5,253 C160.5,248.6538 151.05664,244 137,244 Z" id="Shape" fill="#2F2E41" fill-rule="nonzero"></path>
                <path d="M476,244 C445.260869,244 417.548512,225.483194 405.785156,197.083941 C394.0218,168.684687 400.524037,135.995732 422.259885,114.259885 C443.995732,92.5240369 476.684687,86.0217995 505.083941,97.7851555 C533.483194,109.548512 552,137.260869 552,168 C551.952529,209.953962 517.953962,243.952529 476,244 Z M476,94 C435.130929,94 402,127.130929 402,168 C402,208.869071 435.130929,242 476,242 C516.869071,242 550,208.869071 550,168 C549.953791,127.150084 516.849916,94.0462089 476,94 Z" id="Shape" fill="#2F2E41" fill-rule="nonzero"></path>
                <path d="M476,94 C450.042617,94 429,72.9573832 429,47 C429,21.0426168 450.042617,-1.42108547e-14 476,-1.42108547e-14 C501.957383,-1.42108547e-14 523,21.0426168 523,47 C522.970759,72.9452615 501.945262,93.9707589 476,94 Z M476,2 C451.147186,2 431,22.1471863 431,47 C431,71.8528137 451.147186,92 476,92 C500.852814,92 521,71.8528137 521,47 C520.972015,22.1587871 500.841213,2.02798459 476,2 Z" id="Shape" fill="#2F2E41" fill-rule="nonzero"></path>
                <path d="M454,59 C448.39258,59 444,50.6543 444,40 C444,29.3457 448.39258,21 454,21 C459.60742,21 464,29.34571 464,40 C464,50.65429 459.60742,59 454,59 Z M454,23 C449.66309,23 446,30.78516 446,40 C446,49.21484 449.66309,57 454,57 C458.33691,57 462,49.21485 462,40 C462,30.78515 458.33691,23 454,23 Z" id="Shape" fill="#2F2E41" fill-rule="nonzero"></path>
                <path d="M498,59 C492.39258,59 488,50.6543 488,40 C488,29.3457 492.39258,21 498,21 C503.60742,21 508,29.34571 508,40 C508,50.65429 503.60742,59 498,59 Z M498,23 C493.66309,23 490,30.78516 490,40 C490,49.21484 493.66309,57 498,57 C502.33691,57 506,49.21485 506,40 C506,30.78515 502.33691,23 498,23 Z" id="Shape" fill="#2F2E41" fill-rule="nonzero"></path>
                <path d="M583,250 C560.90861,250 543,232.09139 543,210 C543,187.90861 560.90861,170 583,170 C605.09139,170 623,187.90861 623,210 C622.97492,232.080993 605.080993,249.97492 583,250 Z M583,172 C562.01318,172 545,189.01318 545,210 C545,230.98682 562.01318,248 583,248 C603.98682,248 621,230.98682 621,210 C620.976177,189.023055 603.976945,172.023823 583,172 Z" id="Shape" fill="#2F2E41" fill-rule="nonzero"></path>
                <path d="M361.75,203 C345.548684,203.101578 330.8861,193.42028 324.615687,178.481241 C318.345274,163.542202 321.705536,146.296115 333.125852,134.803972 C344.546169,123.31183 361.77085,119.843509 376.748908,126.020138 C391.726966,132.196767 401.500002,146.798365 401.5,163 C401.543762,185.01197 383.761812,202.905756 361.75,203 Z M361.75,125 C346.35875,124.903501 332.429296,134.100734 326.472404,148.292821 C320.515511,162.484908 323.70776,178.868691 334.557061,189.786226 C345.406361,200.703761 361.769808,203.998665 375.998963,198.130868 C390.228118,192.263071 399.512501,178.391553 399.5125,163 C399.554101,142.088617 382.661232,125.089504 361.75,125 Z" id="Shape" fill="#2F2E41" fill-rule="nonzero"></path>
                <path d="M476,264 C461.70117,264 450.5,259.16846 450.5,253 C450.5,246.83154 461.70117,242 476,242 C490.29883,242 501.5,246.83155 501.5,253 C501.5,259.16845 490.29883,264 476,264 Z M476,244 C461.94336,244 452.5,248.65381 452.5,253 C452.5,257.34619 461.94336,262 476,262 C490.05664,262 499.5,257.3462 499.5,253 C499.5,248.6538 490.05664,244 476,244 Z" id="Shape" fill="#2F2E41" fill-rule="nonzero"></path>
                <path d="M826,247 C784.026359,247 750,212.973641 750,171 C750,129.026359 784.026359,95 826,95 C867.973641,95 902,129.026359 902,171 C901.952529,212.953962 867.953962,246.952529 826,247 Z M826,97 C785.130929,97 752,130.130929 752,171 C752,211.869071 785.130929,245 826,245 C866.869071,245 900,211.869071 900,171 C899.953791,130.150084 866.849916,97.0462089 826,97 Z" id="Shape" fill="#2F2E41" fill-rule="nonzero"></path>
                <path d="M866,104 C840.042617,104 819,82.9573832 819,57 C819,31.0426168 840.042617,10 866,10 C891.957383,10 913,31.0426168 913,57 C912.970759,82.9452615 891.945262,103.970759 866,104 Z M866,12 C841.147186,12 821,32.1471863 821,57 C821,81.8528137 841.147186,102 866,102 C890.852814,102 911,81.8528137 911,57 C910.972015,32.1587871 890.841213,12.0279846 866,12 Z" id="Shape" fill="#2F2E41" fill-rule="nonzero"></path>
                <path d="M844,87 C838.39258,87 834,78.6543 834,68 C834,57.3457 838.39258,49 844,49 C849.60742,49 854,57.34571 854,68 C854,78.65429 849.60742,87 844,87 Z M844,51 C839.66309,51 836,58.78516 836,68 C836,77.21484 839.66309,85 844,85 C848.33691,85 852,77.21485 852,68 C852,58.78515 848.33691,51 844,51 Z" id="Shape" fill="#2F2E41" fill-rule="nonzero"></path>
                <path d="M888,87 C882.39258,87 878,78.6543 878,68 C878,57.3457 882.39258,49 888,49 C893.60742,49 898,57.34571 898,68 C898,78.65429 893.60742,87 888,87 Z M888,51 C883.66309,51 880,58.78516 880,68 C880,77.21484 883.66309,85 888,85 C892.33691,85 896,77.21485 896,68 C896,58.78515 892.33691,51 888,51 Z" id="Shape" fill="#2F2E41" fill-rule="nonzero"></path>
                <path d="M933,253 C910.90861,253 893,235.09139 893,213 C893,190.90861 910.90861,173 933,173 C955.09139,173 973,190.90861 973,213 C972.97492,235.080993 955.080993,252.97492 933,253 Z M933,175 C912.01318,175 895,192.01318 895,213 C895,233.98682 912.01318,251 933,251 C953.98682,251 971,233.98682 971,213 C970.976177,192.023055 953.976945,175.023823 933,175 Z" id="Shape" fill="#2F2E41" fill-rule="nonzero"></path>
                <path d="M712,206 C689.90861,206 672,188.09139 672,166 C672,143.90861 689.90861,126 712,126 C734.09139,126 752,143.90861 752,166 C751.97492,188.080993 734.080993,205.97492 712,206 Z M712,128 C696.630435,128 682.774256,137.258403 676.892578,151.45803 C671.0109,165.657656 674.262018,182.002134 685.129942,192.870058 C695.997866,203.737982 712.342344,206.9891 726.54197,201.107422 C740.741597,195.225744 750,181.369565 750,166 C749.976177,145.023055 732.976945,128.023823 712,128 Z" id="Shape" fill="#2F2E41" fill-rule="nonzero"></path>
                <path d="M795.5,263 C781.20117,263 770,258.16846 770,252 C770,245.83154 781.20117,241 795.5,241 C809.79883,241 821,245.83155 821,252 C821,258.16845 809.79883,263 795.5,263 Z M795.5,243 C781.44336,243 772,247.65381 772,252 C772,256.34619 781.44336,261 795.5,261 C809.55664,261 819,256.3462 819,252 C819,247.6538 809.55664,243 795.5,243 Z" id="Shape" fill="#2F2E41" fill-rule="nonzero"></path>
                <path d="M362.02539,47.02784 C330.73539,13.86719 261.88281,26.8462 261.19139,26.98145 L260.80857,25.01856 C261.5117,24.88135 331.44041,11.70215 363.48045,45.65479 L362.02539,47.02784 Z" id="Path" fill="#3884FF"></path>
                <path d="M370,56 C364.86279,52.78948 357.71191,49.40506 352.02832,48.27193 L361.66162,45.18758 L367.09082,36.65569 C366.74268,42.44057 368.19873,50.21672 370,56 Z" id="Path" fill="#3884FF"></path>
                <path d="M676.02539,101.02784 C644.73439,67.86621 575.88281,80.8462 575.19139,80.98145 L574.80857,79.01856 C575.5117,78.88184 645.44139,65.70215 677.48045,99.65479 L676.02539,101.02784 Z" id="Path" fill="#3884FF"></path>
                <path d="M684,110 C678.86279,106.78949 671.71191,103.40506 666.02832,102.27192 L675.66162,99.18756 L681.09082,90.6557 C680.74268,96.44059 682.19873,104.21671 684,110 Z" id="Path" fill="#3884FF"></path>
            </g>
            <g id="the-heart-of-the-matter" transform="translate(599.000000, 0.000000)"></g>
            <path d="M739.64162,143.64735 L750.39617,143.64735 C750.39617,143.64735 760.25451,219.82543 753.08481,226.99513 C745.91511,234.16483 726.19843,238.64589 723.50981,226.99513 C720.82119,215.34437 723.50981,172.32613 723.50981,172.32613 L739.64162,143.64735 Z" id="Path" fill="#3884FF"></path>
            <ellipse id="Oval" fill="#2F2E41" cx="669.28893" cy="77.32762" rx="65.42352" ry="76.62618"></ellipse>
            <path d="M654.50142,91.66702 C654.50142,91.66702 658.08627,121.24202 647.33172,127.51552 C636.57717,133.78902 659.87872,169.63752 659.87872,169.63752 L687.66132,176.80722 L706.48178,150.81705 L702.89693,123.93067 C702.89693,123.93067 681.38783,102.42157 691.24617,82.70489 L654.50142,91.66702 Z" id="Path" fill="#FFC1C7"></path>
            <path d="M654.50142,91.66702 C654.50142,91.66702 658.08627,121.24202 647.33172,127.51552 C636.57717,133.78902 659.87872,169.63752 659.87872,169.63752 L687.66132,176.80722 L706.48178,150.81705 L702.89693,123.93067 C702.89693,123.93067 681.38783,102.42157 691.24617,82.70489 L654.50142,91.66702 Z" id="Path" fill="#000000" opacity="0.1"></path>
            <path d="M614.17185,412.70854 C614.17185,412.70854 603.4173,510.39572 614.17185,533.69725 C624.9264,556.99878 653.60521,622.4223 653.60521,622.4223 L644.64308,641.24274 L668.84082,635.86546 L678.69916,617.045 C678.69916,617.045 667.0484,571.33815 665.25597,555.20632 C663.46354,539.07449 650.02035,509.49951 650.02035,509.49951 L675.11435,402.8502 L614.17185,412.70854 Z" id="Path" fill="#FFC1C7"></path>
            <path d="M699.31205,396.37932 C699.31205,396.37932 700.20826,494.96271 706.48175,510.25472 L702.8969,643.79041 L722.61358,646.42265 C722.61358,646.42265 751.29235,534.39607 746.81135,507.50974 C742.33035,480.62341 747.70756,383.83239 747.70756,383.83239 L699.31205,396.37932 Z" id="Path" fill="#FFC1C7"></path>
            <circle id="Oval" fill="#FFC1C7" cx="669.28893" cy="69.70981" r="34.05608"></circle>
            <path d="M785.34847,408.9263 C785.34847,408.9263 761.15072,425.05812 751.29239,413.40736 C741.43406,401.7566 620.44539,420.57706 605.20972,416.99221 C589.97405,413.40736 613.27564,356.04975 613.27564,326.47473 C613.27564,304.34724 621.30564,270.68549 625.34764,255.12726 C626.7099,249.89335 627.61508,246.71181 627.61508,246.71181 C627.61508,246.71181 636.81023,220.55136 635.08957,209.68029 C634.972994,208.85631 634.746945,208.051579 634.41741,207.28742 C634.273917,206.967696 634.096628,206.664242 633.88857,206.38224 C629.59567,200.65542 617.29069,158.89194 612.51392,140.95871 C611.734266,138.304754 611.091129,135.612587 610.58704,132.8928 C610.58704,130.20416 643.74691,122.13825 652.03687,121.75288 C660.33581,121.36752 662.56737,132.8928 662.56737,132.8928 C665.25601,134.68522 677.80299,166.05267 677.80299,166.05267 L689.45375,136.47767 C689.45375,136.47767 688.55754,130.20418 687.66133,130.20418 C686.76512,130.20418 700.91633,121.74393 700.91633,121.74393 C700.91633,121.74393 715.4439,131.99661 723.50981,130.20418 C731.57572,128.41175 750.39619,144.54358 750.39619,144.54358 C750.39619,144.54358 717.23632,227.89136 730.67951,245.81558 C744.1227,263.7398 785.34847,408.9263 785.34847,408.9263 Z" id="Path" fill="#3884FF"></path>
            <path d="M676.01052,613.46018 C676.01052,613.46018 660.77491,628.69579 660.77491,630.48818 L648.22791,625.1109 C648.22791,625.1109 642.85063,644.82758 641.95442,647.51622 C641.05821,650.20486 625.82259,674.4026 610.58698,685.15715 C595.35137,695.9117 610.58698,709.35489 624.03017,706.66625 C637.47336,703.97761 671.52944,673.50638 671.52944,673.50638 C671.52944,673.50638 694.83097,673.50638 702.89688,655.58213 C702.8969,655.58217 681.3878,611.66774 676.01052,613.46018 Z" id="Path" fill="#2F2E41"></path>
            <path d="M720.82116,639.30935 C720.82116,639.30935 697.79777,622.58102 696.31438,638.11488 C694.83099,653.64874 694.83099,687.70483 694.83099,687.70483 C694.83099,687.70483 687.66129,710.11015 710.0666,707.42151 C732.47191,704.73287 734.26434,698.45938 734.26434,698.45938 L723.50979,655.44117 L723.50979,636.62074 L720.82116,639.30935 Z" id="Path" fill="#2F2E41"></path>
            <path d="M633.88853,206.38224 C629.59563,200.65542 617.29065,158.89194 612.51388,140.95871 L616.86049,140.95871 C616.86049,140.95871 627.77635,183.68116 634.41735,207.28742 C634.273864,206.967697 634.096581,206.664243 633.88853,206.38224 Z" id="Path" fill="#000000" opacity="0.1"></path>
            <path d="M693.03856,265.53227 C693.03856,265.53227 680.49156,266.42848 634.78474,257.46636 C631.599744,256.854692 628.449573,256.073887 625.3476,255.12726 C626.70986,249.89335 627.61504,246.71181 627.61504,246.71181 C627.61504,246.71181 636.81019,220.55136 635.08953,209.68029 C637.23138,217.20845 638.82667,222.29001 639.2658,222.51406 C641.05823,223.41028 698.4158,233.26862 706.4818,236.85347 C714.5478,240.43832 693.03856,265.53227 693.03856,265.53227 Z" id="Path" fill="#000000" opacity="0.1"></path>
            <path d="M709.17035,148.2369 C709.17035,148.2369 733.88989,145.1869 735.42142,149.1949 C736.95295,153.2029 743.22642,191.93844 745.91507,196.90453 C748.60372,201.87062 749.49992,232.66035 738.74537,233.65353 C727.99082,234.64671 713.65137,223.72136 716.34005,214.7824 C719.02873,205.84344 709.17035,148.2369 709.17035,148.2369 Z" id="Path" fill="#000000" opacity="0.1"></path>
            <path d="M696.62341,230.57998 C696.62341,230.57998 734.26434,235.06104 740.53783,230.57998 C746.81132,226.09892 772.80149,226.09892 767.42421,238.64589 C762.04693,251.19286 715.44388,252.08908 715.44388,252.08908 L688.5575,252.08908 L696.62341,230.57998 Z" id="Path" fill="#FFC1C7"></path>
            <path d="M616.86049,134.68522 L610.587,134.68522 C610.587,134.68522 598.04,137.37386 599.83245,176.80722 C601.6249,216.24058 589.0779,242.23074 634.78474,251.19287 C680.49158,260.155 693.03856,259.25878 693.03856,259.25878 C693.03856,259.25878 714.54767,234.16478 706.48175,230.57998 C698.41583,226.99518 641.05823,217.13679 639.26575,216.24058 C637.47327,215.34437 616.86049,134.68522 616.86049,134.68522 Z" id="Path" fill="#3884FF"></path>
            <path d="M734.7327,152.37432 C734.7327,152.37432 719.0287,93.45944 706.48175,93.45944 C693.9348,93.45944 679.59537,96.14808 690.34992,107.79885 C701.10447,119.44962 714.54767,131.99659 715.44392,138.27008 C716.34017,144.54357 719.92498,153.50569 719.92498,153.50569 L734.7327,152.37432 Z" id="Path" fill="#FFC1C7"></path>
            <path d="M712.75524,148.2369 C712.75524,148.2369 737.47478,145.1869 739.00631,149.1949 C740.53784,153.2029 746.81131,191.93844 749.49996,196.90453 C752.18861,201.87062 753.08481,232.66035 742.33026,233.65353 C731.57571,234.64671 717.23626,223.72136 719.92494,214.7824 C722.61362,205.84344 712.75524,148.2369 712.75524,148.2369 Z" id="Path" fill="#3884FF"></path>
            <circle id="Oval" fill="#2F2E41" cx="660.3268" cy="37.44615" r="32.26366"></circle>
        </g>
    </g>
</svg>