<?xml version="1.0" encoding="UTF-8"?>
<svg width="1011px" height="676px" viewBox="0 0 1011 676" version="1.1" xmlns="http://www.w3.org/2000/svg" xmlns:xlink="http://www.w3.org/1999/xlink">
    <!-- Generator: Sketch 61.1 (89650) - https://sketch.com -->
    <title>Group</title>
    <desc>Created with Sketch.</desc>
    <defs>
        <linearGradient x1="50%" y1="100%" x2="50%" y2="0%" id="linearGradient-1">
            <stop stop-color="#808080" stop-opacity="0.25" offset="0%"></stop>
            <stop stop-color="#808080" stop-opacity="0.12" offset="54%"></stop>
            <stop stop-color="#808080" stop-opacity="0.1" offset="100%"></stop>
        </linearGradient>
        <linearGradient x1="50.0027767%" y1="100%" x2="50.0027767%" y2="0.00221449609%" id="linearGradient-2">
            <stop stop-color="#808080" stop-opacity="0.25" offset="0%"></stop>
            <stop stop-color="#808080" stop-opacity="0.12" offset="54%"></stop>
            <stop stop-color="#808080" stop-opacity="0.1" offset="100%"></stop>
        </linearGradient>
        <linearGradient x1="50.00715%" y1="100.0143%" x2="50.00715%" y2="0%" id="linearGradient-3">
            <stop stop-color="#808080" stop-opacity="0.25" offset="0%"></stop>
            <stop stop-color="#808080" stop-opacity="0.12" offset="54%"></stop>
            <stop stop-color="#808080" stop-opacity="0.1" offset="100%"></stop>
        </linearGradient>
        <linearGradient x1="50%" y1="100.012195%" x2="50%" y2="0%" id="linearGradient-4">
            <stop stop-color="#808080" stop-opacity="0.25" offset="0%"></stop>
            <stop stop-color="#808080" stop-opacity="0.12" offset="54%"></stop>
            <stop stop-color="#808080" stop-opacity="0.1" offset="100%"></stop>
        </linearGradient>
    </defs>
    <g id="Page-1" stroke="none" stroke-width="1" fill="none" fill-rule="evenodd">
        <g id="Group" transform="translate(0.683359, 0.048034)" fill-rule="nonzero">
            <path d="M586.556641,111.351966 C521.836641,109.101966 460.196641,88.2119662 401.326641,65.3519662 C342.456641,42.4919662 284.166641,17.1619662 220.996641,5.10196621 C180.366641,-2.68803379 133.906641,-3.78803379 101.166641,17.9919662 C69.6666408,38.9919662 59.4866408,75.1419662 54.0066408,108.711966 C49.8966408,133.981966 47.4666408,160.561966 58.7566408,184.211966 C66.5866408,200.631966 80.4966408,214.431966 90.1166408,230.161966 C123.576641,284.881966 99.9266408,352.361966 63.6566408,405.791966 C46.6566408,430.851966 26.9166408,454.791966 13.7866408,481.451966 C0.656640755,508.111966 -5.41335924,538.701966 6.06664076,565.921966 C17.4566408,592.921966 44.5866408,613.161966 73.9666408,627.411966 C133.656641,656.351966 203.966641,664.641966 272.586641,669.331966 C424.406641,679.721966 577.046641,675.221966 729.266641,670.721966 C785.606641,669.051966 842.186641,667.361966 897.606641,658.651966 C928.386641,653.811966 960.166641,646.131966 982.506641,627.651966 C1010.86664,604.121966 1017.89664,564.271966 998.896641,534.771966 C967.016641,485.281966 878.896641,472.981966 856.586641,419.871966 C844.316641,390.641966 856.916641,358.071966 874.736641,330.961966 C912.976641,272.791966 977.066641,221.771966 980.446641,155.281966 C982.766641,109.621966 951.956641,63.8919662 904.316641,42.2819662 C854.376641,19.6319662 785.136641,22.4819662 748.316641,59.9719662 C710.356641,98.4819662 643.696641,113.331966 586.556641,111.351966 Z" id="Path" fill="#F5F5F5"></path>
            <g id="bezier" transform="translate(178.316641, 106.951966)">
                <polygon id="Path" fill="url(#linearGradient-1)" points="382 395 258 395 258 439 271.777778 439 271.777778 461 368.222222 461 368.222222 439 382 439"></polygon>
                <path d="M324.202255,87.7246717 L324.202255,237.337091 C339.11054,241.79992 345.640556,246.3632 349.308297,256.08528 C352.521073,264.81909 353.066649,274.307084 350.876076,283.350156 C348.524407,293.39511 344.202227,298.754811 332.4295,301.868747 C325.764548,303.669738 318.773409,303.915247 311.998029,302.586244 C295.730521,299.292934 287.179652,288.236309 287.179652,269.897092 C287.179652,252.347122 293.220636,243.034015 309.833343,237.49494 L309.833343,209.397768 L309.114178,87 L187,268.182275 C187,268.182275 245.446521,316.921828 266.827289,411 L366.172711,411 C366.172711,411 396.082773,301.782647 446,274.898045 L324.202255,87.7246717 Z" id="Path" fill="url(#linearGradient-2)"></path>
                <path d="M325.896554,95 L325.896554,233.841962 C345.513451,237.161859 359.601274,254.521263 358.785635,274.368797 C357.969996,294.216331 342.505142,310.365228 322.681771,312.069611 C302.8584,313.773994 284.855746,300.502581 280.653222,281.086501 C276.450698,261.670421 287.358292,242.161949 306.11782,235.542507 L306.11782,95 L194,266.166667 C194,266.166667 253.343387,318.833333 273.129308,411 L358.870692,411 C358.870692,411 391.837644,299.065395 438,272.753588 L325.896554,95 Z" id="Path" fill="#FFFFFF"></path>
                <rect id="Rectangle" fill="#ECEFF1" x="42" y="23" width="264" height="13"></rect>
                <rect id="Rectangle" fill="#ECEFF1" x="339" y="23" width="264" height="13"></rect>
                <rect id="Rectangle" fill="#3884FF" x="273" y="425" width="92" height="33"></rect>
                <rect id="Rectangle" fill="url(#linearGradient-3)" x="297" y="1" width="50" height="50"></rect>
                <rect id="Rectangle" fill="#3884FF" x="300" y="3" width="46" height="46"></rect>
                <circle id="Oval" fill="url(#linearGradient-4)" cx="29.5" cy="29.5" r="29.5"></circle>
                <circle id="Oval" fill="url(#linearGradient-4)" cx="622.5" cy="29.5" r="29.5"></circle>
                <circle id="Oval" fill="#3884FF" cx="29.5" cy="29.5" r="26.5"></circle>
                <circle id="Oval" fill="#3884FF" cx="622.5" cy="29.5" r="26.5"></circle>
                <rect id="Rectangle" fill="#3884FF" x="260" y="398" width="119" height="40"></rect>
                <rect id="Rectangle" fill="#000000" opacity="0.2" x="260" y="398" width="119" height="40"></rect>
            </g>
        </g>
    </g>
</svg>