<?xml version="1.0" encoding="UTF-8"?>
<svg width="906px" height="787px" viewBox="0 0 906 787" version="1.1" xmlns="http://www.w3.org/2000/svg" xmlns:xlink="http://www.w3.org/1999/xlink">
    <!-- Generator: Sketch 61.1 (89650) - https://sketch.com -->
    <title>circular-progress</title>
    <desc>Created with Sketch.</desc>
    <g id="Page-1" stroke="none" stroke-width="1" fill="none" fill-rule="evenodd">
        <g id="circular-progress">
            <path d="M517.29346,755.93794 C274.89463,737.49137 -14.17726,549.67166 0.53982,356.28055 C15.2569,162.88944 295.22613,-17.14154 537.62497,1.30503 C780.02381,19.7516 919.55685,381.16696 904.83974,574.55808 C890.12263,767.9492 759.6923,774.38455 517.29346,755.93794 Z" id="Path" fill="#F5F5F5" fill-rule="nonzero"></path>
            <rect id="Rectangle" fill="#3884FF" fill-rule="nonzero" opacity="0.1" x="1.24548" y="71.00773" width="460" height="476"></rect>
            <path d="M233.52343,213.03655 C232.76605,213.01891 232.00708,213.00768 231.24548,213.00768 C188.069519,213.030027 150.226113,241.887558 138.7787,283.518326 C127.331288,325.149093 145.099636,369.298457 182.193977,391.393115 C219.288319,413.487774 266.571441,408.085291 297.72581,378.19266 C328.88018,348.30003 336.231739,301.280512 315.68865,263.30492 L236.24548,323.00768 L233.52343,213.03655 Z" id="Path"></path>
            <path d="M315.68865,263.30496 C336.263032,301.303296 328.918978,348.364198 297.74521,378.287014 C266.571443,408.209831 219.24937,413.621397 182.125047,391.50888 C145.000725,369.396364 127.221813,325.208425 138.68653,283.546224 C150.151247,241.884024 188.034617,213.013382 231.24548,213.00772 C232.00708,213.00772 232.76605,213.01895 233.52343,213.03659 L232.50824,172.02371 C232.08691,172.01993 231.66766,172.00771 231.24548,172.00771 C169.043849,172.025639 114.665226,213.957355 98.8344401,274.110737 C83.0036546,334.26412 109.696586,397.531733 163.831283,428.166319 C217.965979,458.800904 285.946589,449.10863 329.362932,404.565793 C372.779275,360.022955 380.727398,291.816424 348.71648,238.48403 L315.68865,263.30496 Z" id="Path" fill="#3884FF" fill-rule="nonzero"></path>
            <path d="M315.68865,263.30496 L348.71649,238.48404 C324.189499,197.613089 280.172014,172.439174 232.50824,172.02371 L233.52343,213.03659 C267.945444,213.843001 299.298599,233.024743 315.68865,263.30496 Z" id="Path" fill="#3884FF" fill-rule="nonzero" opacity="0.3"></path>
            <ellipse id="Oval" fill="#F5F5F5" fill-rule="nonzero" cx="669.74548" cy="758.11542" rx="162" ry="28.25819"></ellipse>
            <path d="M762.76207,230.05522 L769.91289,233.63063 C769.91289,233.63063 808.64652,330.76263 795.53668,354.00284 C782.42684,377.24305 741.3096,420.74384 741.3096,420.74384 L733.56287,398.69547 L765.24548,330.0077 L762.76207,230.05522 Z" id="Path" fill="#575A89" fill-rule="nonzero"></path>
            <path d="M762.76207,230.05522 L769.91289,233.63063 C769.91289,233.63063 808.64652,330.76263 795.53668,354.00284 C782.42684,377.24305 741.3096,420.74384 741.3096,420.74384 L733.56287,398.69547 L765.24548,330.0077 L762.76207,230.05522 Z" id="Path" fill="#000000" fill-rule="nonzero" opacity="0.1"></path>
            <path d="M755.01534,715.71536 C755.01534,715.71536 765.14568,738.95554 759.78256,740.74324 C754.41944,742.53095 747.86456,742.53095 741.30956,742.53095 C734.75456,742.53095 727.00791,740.14734 725.81611,737.76373 C724.62431,735.38012 730.58332,719.88667 730.58332,719.88667 L755.01534,715.71536 Z" id="Path" fill="#F2F2F2" fill-rule="nonzero"></path>
            <path d="M618.55374,727.6334 C618.55374,727.6334 625.10867,748.48997 622.12916,749.68177 C619.14965,750.87357 609.61521,756.2367 604.25209,754.44899 C598.88897,752.66128 590.54635,748.48999 588.75864,746.70226 C586.97093,744.91453 588.75864,735.38013 588.75864,735.38013 L597.10127,723.46213 L618.55374,727.6334 Z" id="Path" fill="#F2F2F2" fill-rule="nonzero"></path>
            <path d="M735.94648,417.76435 L744.48848,420.74386 C744.48848,420.74386 746.67271,441.00453 744.2891,448.15536 C741.90549,455.30619 736.54237,507.14966 739.52188,517.87589 C742.50139,528.60212 740.71369,545.88329 740.71369,545.88329 C740.71369,545.88329 758.59075,604.28168 755.01533,616.79563 C751.43991,629.30958 752.03582,647.18663 755.61124,656.12516 C759.18666,665.06369 762.16616,668.6391 760.37845,675.78993 C758.59074,682.94076 755.01533,686.51616 758.59075,692.47518 C762.16617,698.4342 769.31698,700.22191 765.74157,705.58503 C762.16616,710.94815 758.59075,715.11946 759.78257,718.69487 C760.97439,722.27028 728.19976,728.8252 725.22025,723.46209 C725.22025,723.46209 734.75469,715.11946 725.22025,710.35224 C715.68581,705.58502 718.66533,687.70797 718.66533,687.70797 C718.66533,687.70797 701.98007,619.17923 702.57598,613.81612 C703.17189,608.45301 676.35629,525.02672 676.35629,525.02672 C676.35629,525.02672 637.02674,644.20712 634.64314,649.57024 C632.25954,654.93336 637.62265,668.04324 634.64314,671.61861 C631.66363,675.19398 635.83494,684.13255 631.66363,687.70797 C627.49232,691.28339 638.81445,704.39322 631.66363,709.16044 C624.51281,713.92766 620.93739,728.8252 621.53329,731.80471 C622.12919,734.78422 591.73819,731.20881 591.73819,727.0375 C591.73819,722.86619 592.33409,719.29077 589.35458,712.13995 C586.37507,704.98913 584.58737,700.22195 586.97098,697.8383 C589.35459,695.45465 591.14229,692.47518 588.75868,684.13255 C586.37507,675.78992 592.33409,650.16614 590.54639,645.39892 C588.75869,640.6317 589.35458,608.453 589.35458,608.453 C589.35458,608.453 595.31358,561.37674 593.5259,553.63 C591.73822,545.88326 593.5259,544.09557 594.1218,541.11606 C594.7177,538.13655 598.29311,505.95784 600.67672,501.19063 C603.06033,496.42342 606.03984,414.78483 619.74559,410.61352 C633.45134,406.44221 735.94648,417.76435 735.94648,417.76435 Z" id="Path" fill="#2F2E41" fill-rule="nonzero"></path>
            <path d="M740.71374,737.16783 C740.71374,737.16783 762.16621,733.59242 763.35801,737.16783 C764.54981,740.74324 768.12523,768.75064 759.7826,769.34654 C751.43997,769.94244 737.13832,771.73015 734.75472,766.36703 C732.37112,761.00391 721.04897,757.4285 721.04897,757.4285 C721.04897,757.4285 704.36371,752.66128 704.36371,747.29817 C704.36371,741.93506 704.95961,733.59242 707.93912,732.99652 C710.91863,732.40062 722.83668,725.84569 722.83668,723.46209 C722.83668,721.07849 740.71374,737.16783 740.71374,737.16783 Z" id="Path" fill="#2F2E41" fill-rule="nonzero"></path>
            <path d="M606.63574,746.70226 C606.63574,746.70226 622.1292,741.93505 625.70461,744.91456 C629.28002,747.89407 634.04724,780.66868 625.70461,780.07278 C617.36198,779.47688 595.31361,783.05229 594.1218,778.28507 C592.92999,773.51785 576.84064,772.32607 576.84064,772.32607 C576.84064,772.32607 559.55948,763.98344 560.75129,755.04491 C561.9431,746.10638 563.7308,743.12691 570.88162,742.53097 C578.03244,741.93503 583.39556,733.59244 583.99147,732.99654 C584.58738,732.40064 589.84133,728.04475 590.49181,732.90425 C591.14229,737.76375 598.88902,748.48997 606.63574,746.70226 Z" id="Path" fill="#2F2E41" fill-rule="nonzero"></path>
            <circle id="Oval" fill="#FFB9B9" fill-rule="nonzero" cx="655.49971" cy="132.9232" r="36.35002"></circle>
            <path d="M687.08251,141.26582 C687.08251,141.26582 689.46612,181.19126 698.40465,184.76667 C707.34318,188.34208 653.1161,188.34208 653.1161,188.34208 C653.1161,188.34208 652.5202,163.3142 644.77347,157.35518 C637.02674,151.39616 687.08251,141.26582 687.08251,141.26582 Z" id="Path" fill="#FFB9B9" fill-rule="nonzero"></path>
            <path d="M701.38416,175.82814 C701.38416,175.82814 664.43824,162.12239 651.32839,183.57486 C651.32839,183.57486 609.61525,203.23963 606.63574,215.15767 C603.65623,227.07571 631.66363,316.46101 631.66363,316.46101 C631.66363,316.46101 631.66363,390.35286 625.70463,398.09959 C619.74563,405.84632 608.42347,414.18894 616.1702,415.97665 C623.91693,417.76436 745.48093,430.8742 744.88503,423.12747 C744.28913,415.38074 736.5424,408.82582 744.88503,404.05861 C753.22766,399.2914 746.07683,393.92827 751.43995,378.43482 C756.80307,362.94137 769.91295,234.82244 769.91295,234.82244 C769.91295,234.82244 760.97442,218.73308 759.18672,216.94538 C757.39902,215.15768 701.38416,175.82814 701.38416,175.82814 Z" id="Path" fill="#575A89" fill-rule="nonzero"></path>
            <path d="M594.71774,436.83322 C594.71774,436.83322 571.47756,489.2726 591.73823,496.42342 C611.9989,503.57424 610.80706,441.00455 610.80706,441.00455 L594.71774,436.83322 Z" id="Path" fill="#FFB9B9" fill-rule="nonzero"></path>
            <path d="M672.93574,139.68355 C670.82867,135.46165 667.67456,130.59114 662.96309,130.84823 C660.58072,130.97823 658.52628,132.46058 656.40297,133.54874 C654.27966,134.6369 651.55915,135.31147 649.61767,133.92467 C646.77788,131.8962 647.65837,127.08494 645.11826,124.69183 C642.34526,122.07935 636.76809,123.53794 634.97889,120.17445 C634.02354,118.37845 634.79508,116.15018 634.37847,114.15906 C631.476,114.21354 628.48065,114.25174 625.79029,113.16123 C623.09993,112.07072 620.77029,109.54402 620.84552,106.64202 C621.008112,104.644807 621.967753,102.7971 623.5081,101.51545 C627.17131,98.18458 632.47016,97.54583 636.99045,95.52573 C640.5877,93.91812 643.71558,91.41273 647.2512,89.67373 C653.33627,86.68083 660.35656,86.10044 667.1181,86.61714 C677.37034,87.40058 687.7381,90.80294 695.17255,97.90587 C702.607,105.0088 706.54155,116.21457 703.33529,125.98401 C701.51845,131.51985 697.66813,136.17293 695.51946,141.58861 C694.202261,145.294704 693.289216,149.13223 692.79621,153.03442 L691.28769,162.28989 C691.52246,160.84949 688.35969,157.23655 687.32243,156.37689 C685.05996,154.5017 681.76899,155.13796 679.66852,153.40104 C676.56164,150.83189 674.76374,143.34635 672.93574,139.68355 Z" id="Path" fill="#2F2E41" fill-rule="nonzero"></path>
            <path d="M620.34149,210.98636 L610.80706,216.94536 C610.80706,216.94536 595.3136,310.50197 597.10131,323.61182 C598.88902,336.72167 589.95049,410.61351 592.93,416.57253 C595.90951,422.53155 597.10131,423.72335 597.10131,427.29877 C597.10131,430.87419 588.75868,443.98402 594.1218,446.36763 C599.48492,448.75124 619.14969,452.92255 619.14969,446.36763 C619.14969,439.81271 615.57427,430.87418 622.1292,426.70286 C628.68413,422.53154 633.45133,395.71596 633.45133,395.71596 C633.45133,395.71596 636.43084,368.30447 639.41033,362.94135 C642.38982,357.57823 646.56116,337.91346 646.56116,329.57084 C646.56116,321.22822 653.71198,287.26179 649.54067,269.98064 C645.36936,252.69949 644.17757,206.21914 620.34149,210.98636 Z" id="Path" fill="#000000" fill-rule="nonzero" opacity="0.1"></path>
            <path d="M616.17018,209.19865 L606.63574,215.15765 C606.63574,215.15765 591.14229,308.71427 592.93,321.82411 C594.71771,334.93395 585.77917,408.8258 588.75868,414.78482 C591.73819,420.74384 592.93,421.93565 592.93,425.51106 C592.93,429.08647 584.58737,442.19632 589.95049,444.57992 C595.31361,446.96352 614.97837,451.13485 614.97837,444.57992 C614.97837,438.02499 611.40296,429.08647 617.95788,424.91516 C624.5128,420.74385 629.28002,393.92825 629.28002,393.92825 C629.28002,393.92825 632.25953,366.51676 635.23902,361.15364 C638.21851,355.79052 642.38984,336.12576 642.38984,327.78313 C642.38984,319.4405 649.54067,285.47413 645.36935,268.19293 C641.19803,250.91173 640.00626,204.43143 616.17018,209.19865 Z" id="Path" fill="#575A89" fill-rule="nonzero"></path>
        </g>
    </g>
</svg>