<?xml version="1.0" encoding="UTF-8"?>
<svg width="908px" height="707px" viewBox="0 0 908 707" version="1.1" xmlns="http://www.w3.org/2000/svg" xmlns:xlink="http://www.w3.org/1999/xlink">
    <!-- Generator: Sketch 52.6 (67491) - http://www.bohemiancoding.com/sketch -->
    <title>decay</title>
    <desc>Created with Sketch.</desc>
    <g id="Page-1" stroke="none" stroke-width="1" fill="none" fill-rule="evenodd">
        <g id="decay">
            <path d="M470.54279,0.44674 L207.44049,142.95785 C219.689627,164.046091 219.498884,190.127752 206.942623,211.034584 C194.386363,231.941415 171.452262,244.363832 147.081455,243.458805 C122.710649,242.553778 100.761075,228.464574 89.79004,206.68404 L0.07965,255.27627 L232.45727,684.28884 L702.92035,429.45937 L470.54279,0.44674 Z" id="Path" fill="#F5F5F5"></path>
            <rect id="Rectangle" fill="#3884FF" opacity="0.2" transform="translate(172.999957, 393.926475) rotate(14.956540) translate(-172.999957, -393.926475) " x="147.999957" y="368.926475" width="50" height="50"></rect>
            <path d="M270.94863,570.61574 C232.33539,629.83094 242.91545,705.14507 242.91545,705.14507 C242.91545,705.14507 316.09993,684.45238 354.71316,625.23718 C393.32639,566.02198 382.74634,490.70785 382.74634,490.70785 C382.74634,490.70785 309.56186,511.40055 270.94863,570.61574 Z" id="Path" fill="#3F3D56"></path>
            <path d="M242.71003,704.45642 C242.71003,704.45642 241.77003,704.30642 240.03998,703.95642 C238.65998,703.67642 236.75998,703.27642 234.43998,702.72642 C213.69998,697.83642 158.55998,681.30642 122.50998,637.84642 C77.38998,583.42642 79.28998,507.39642 79.28998,507.39642 C79.28998,507.39642 148.28003,518.60642 193.73998,567.47642 C195.71002,569.57642 197.626687,571.753087 199.48998,574.00642 C238.74998,621.35642 242.40998,685.06648 242.69998,700.81648 C242.73999,703.17646 242.71003,704.45642 242.71003,704.45642 Z" id="Path" fill="#3884FF"></path>
            <path d="M214.88227,570.61574 C253.49551,629.83094 242.91545,705.14507 242.91545,705.14507 C242.91545,705.14507 169.73097,684.45238 131.11773,625.23718 C92.50449,566.02198 103.08456,490.70785 103.08456,490.70785 C103.08456,490.70785 176.26904,511.40055 214.88227,570.61574 Z" id="Path" stroke="#3F3D56" stroke-width="2"></path>
            <path d="M242.70002,700.81647 C241.68002,702.04647 240.78002,703.09647 240.04002,703.95642 C238.40007,705.82642 237.47002,706.80642 237.47002,706.80642 C237.47002,706.80642 236.34008,705.38642 234.44002,702.72642 C224.01002,688.18642 190.46002,636.48642 193.05002,576.76642 C193.19002,573.63642 193.42002,570.539753 193.74002,567.47642 C195.71006,569.57642 197.626727,571.753087 199.49002,574.00642 C238.75,621.35645 242.40998,685.06647 242.70002,700.81647 Z" id="Path" fill="#000000" opacity="0.1"></path>
            <path d="M299.95338,581.08516 C296.9013,651.7117 244.47371,706.8071 244.47371,706.8071 C244.47371,706.8071 196.99454,647.39428 200.04663,576.76775 C203.09872,506.14122 255.52627,451.04581 255.52627,451.04581 C255.52627,451.04581 303.00547,510.45863 299.95338,581.08516 Z" id="Path" fill="#3884FF"></path>
            <path d="M244.47371,704.80711 L256,453.92646" id="Path" stroke="#3F3D56" stroke-width="2"></path>
            <circle id="Oval" fill="#3F3D56" cx="887.25" cy="258.75556" r="20.28889"></circle>
            <circle id="Oval" fill="#FF6584" cx="627.98759" cy="116.13204" r="47.76284"></circle>
            <polygon id="Path" fill="#FBBEBE" points="737.924 538.174 763.453 641.112 788.981 636.994 763.453 519.234"></polygon>
            <path d="M772.51136,634.52355 C772.51136,634.52355 757.973,639.4388 759.88945,642.74565 C761.8059,646.0525 761.80589,666.63994 755.21791,674.05141 C748.62993,681.46288 732.15999,704.52081 751.10043,705.34431 C770.04087,706.16781 788.98127,693.81535 788.98127,693.81535 L788.98127,672.40442 L792.27527,692.16835 L795.56927,692.16835 L795.56927,669.93393 C795.56927,669.93393 803.80427,655.93448 798.86327,647.6995 C793.92227,639.46452 790.7016,632.28801 784.48872,632.99403 C778.27584,633.70005 772.51136,634.52355 772.51136,634.52355 Z" id="Path" fill="#2F2E41"></path>
            <polygon id="Path" fill="#FBBEBE" points="637.458 625.465 633.34 647.7 662.163 647.7 662.163 625.465"></polygon>
            <path d="M639.92827,642.75855 C639.92827,642.75855 631.69327,641.93505 629.22281,653.46401 C626.75235,664.99297 604.51789,689.46292 596.28292,691.93341 C588.04795,694.4039 588.04792,702.63888 598.75341,704.28587 C609.4589,705.93286 636.63428,706.75636 643.22226,697.69787 C649.81024,688.63938 658.86871,674.05142 658.86871,674.05142 L654.75127,705.10934 L662.16275,705.10934 C662.16275,705.10934 668.75075,674.87491 675.3387,667.46344 C681.92665,660.05197 662.16273,642.75855 658.86874,642.75855 L639.92827,642.75855 Z" id="Path" fill="#2F2E41"></path>
            <path d="M599.57694,288.6547 C599.57694,288.6547 593.81245,304.30115 583.93049,306.77164 C574.04853,309.24213 500.75727,326.53555 500.75727,326.53555 C500.75727,326.53555 436.52448,328.18255 456.28841,342.182 C476.05234,356.18145 508.16874,342.182 508.16874,342.182 C508.16874,342.182 602.04743,330.653 609.4589,318.30058 C614.337842,309.894086 618.471122,301.076421 621.81136,291.94866 L599.57694,288.6547 Z" id="Path" fill="#FBBEBE"></path>
            <path d="M630.86983,219.48094 C630.86983,219.48094 583.93049,296.06618 589.69497,297.71317 C595.45945,299.36016 648.98677,316.65361 651.45726,310.06563 C653.92775,303.47765 653.92775,273.00826 653.92775,273.00826 L630.86983,219.48094 Z" id="Path" fill="#2F2E41"></path>
            <path d="M630.86983,219.48094 C630.86983,219.48094 583.93049,296.06618 589.69497,297.71317 C595.45945,299.36016 648.98677,316.65361 651.45726,310.06563 C653.92775,303.47765 653.92775,273.00826 653.92775,273.00826 L630.86983,219.48094 Z" id="Path" fill="#000000" opacity="0.1"></path>
            <path d="M752.74742,201.364 L858.97857,255.71481 C858.97857,255.71481 919.09387,271.36126 905.91791,283.71372 C892.74195,296.06618 849.9201,273.00826 849.9201,273.00826 L732.15999,219.48094 L752.74742,201.364 Z" id="Path" fill="#FBBEBE"></path>
            <path d="M616.87038,158.54214 C616.87038,158.54214 637.45781,189.83504 635.81081,197.24651 C635.81081,197.24651 637.45781,202.18751 634.98732,205.48151 C632.51683,208.77551 633.34032,228.53944 633.34032,228.53944 L641.57532,240.06844 L652.28079,204.65806 L657.22179,166.77718 C657.22179,166.77718 646.10458,151.54248 647.75157,144.13101 C649.39856,136.71954 616.87038,158.54214 616.87038,158.54214 Z" id="Path" fill="#FBBEBE"></path>
            <path d="M681.92666,336.41755 C681.92666,336.41755 635.81081,459.94213 635.81081,514.29295 C635.81081,568.64377 618.51737,630.40606 631.69333,636.17055 C644.86929,641.93504 711.57256,642.75855 713.21956,636.17055 C714.86656,629.58255 704.98456,361.94597 700.04356,351.24055 C695.10256,340.53513 681.92666,336.41755 681.92666,336.41755 Z" id="Path" fill="#2F2E41"></path>
            <path d="M681.92666,336.41755 C681.92666,336.41755 635.81081,459.94213 635.81081,514.29295 C635.81081,568.64377 618.51737,630.40606 631.69333,636.17055 C644.86929,641.93504 711.57256,642.75855 713.21956,636.17055 C714.86656,629.58255 704.98456,361.94597 700.04356,351.24055 C695.10256,340.53513 681.92666,336.41755 681.92666,336.41755 Z" id="Path" fill="#000000" opacity="0.1"></path>
            <circle id="Oval" fill="#FBBEBE" cx="627.57584" cy="133.01373" r="30.4694"></circle>
            <path d="M636.63427,225.24542 L634.42904,206.66101 C634.42904,206.66101 627.5758,216.18695 627.5758,223.59842 C627.5758,231.00989 623.45832,257.36181 640.7518,273.83175 C658.04528,290.30169 661.33923,293.59569 662.16273,296.88968 C662.98623,300.18367 667.10373,300.18368 667.10373,300.18368 L690.98515,396.53285 C690.98515,396.53285 698.39662,652.6405 709.92559,655.93449 C721.45456,659.22848 756.86493,655.93449 759.33542,651.817 C761.80591,647.69951 755.21793,538.17438 755.21793,538.17438 C755.21793,538.17438 773.33487,635.34705 779.92285,635.34705 C786.51083,635.34705 790.62827,621.34755 788.98127,620.52409 C787.33427,619.70063 777.45227,556.29131 773.33482,536.52738 C769.21737,516.76345 770.86436,349.59355 770.86436,349.59355 C770.86436,349.59355 784.04036,328.18262 738.74797,286.18426 C738.74797,286.18426 709.92557,202.18754 708.27857,202.18754 C706.63157,202.18754 674.51518,156.8952 674.51518,156.8952 C674.51518,156.8952 656.39825,156.8952 653.10426,167.60066 C649.81027,178.30612 636.63427,225.24542 636.63427,225.24542 Z" id="Path" fill="#2F2E41"></path>
            <path d="M664.63327,163.48312 L674.51527,156.89512 C674.51527,156.89512 715.69014,181.60003 744.51254,183.24703 C773.33494,184.89403 772.51145,201.36397 760.98249,212.89293 C749.45353,224.42189 704.16118,263.94976 702.51418,254.06779 C700.86718,244.18582 664.63327,163.48312 664.63327,163.48312 Z" id="Path" fill="#2F2E41"></path>
            <ellipse id="Oval" fill="#FF6584" cx="627.98759" cy="102.95608" rx="32.93989" ry="19.76393"></ellipse>
            <circle id="Oval" fill="#FF6584" cx="631.28158" cy="68.3692" r="19.76393"></circle>
            <path d="M604.92967,57.66373 C604.930282,47.5455408 612.571814,39.0615759 622.63486,38.00665 C621.950909,37.9356356 621.263748,37.8999682 620.57612,37.89979 C609.6608,37.89979 600.812185,46.7484051 600.812185,57.663725 C600.812185,68.5790449 609.6608,77.42766 620.57612,77.42766 C621.263748,77.4274868 621.950909,77.3918193 622.63486,77.3208 C612.571818,76.2658745 604.930287,67.7819154 604.92967,57.66373 Z" id="Path" fill="#FF6584"></path>
            <circle id="Oval" fill="#3884FF" cx="145.56418" cy="176.56907" r="54.31516"></circle>
        </g>
    </g>
</svg>