<?xml version="1.0" encoding="UTF-8"?>
<svg width="879px" height="740px" viewBox="0 0 879 740" version="1.1" xmlns="http://www.w3.org/2000/svg" xmlns:xlink="http://www.w3.org/1999/xlink">
    <!-- Generator: Sketch 52.6 (67491) - http://www.bohemiancoding.com/sketch -->
    <title>undraw_coding_6mjf</title>
    <desc>Created with Sketch.</desc>
    <defs>
        <linearGradient x1="49.9992867%" y1="100.009217%" x2="49.9992867%" y2="-2.61975384e-15%" id="linearGradient-1">
            <stop stop-color="#808080" stop-opacity="0.25" offset="0%"></stop>
            <stop stop-color="#808080" stop-opacity="0.12" offset="54%"></stop>
            <stop stop-color="#808080" stop-opacity="0.1" offset="100%"></stop>
        </linearGradient>
    </defs>
    <g id="Page-1" stroke="none" stroke-width="1" fill="none" fill-rule="evenodd">
        <g id="undraw_coding_6mjf">
            <path d="M698.65,344.11 C695.283013,325.372042 693.218071,306.423355 692.47,287.4 C691.107883,255.297657 669.704546,227.520561 639.01,218.02 C633.55,216.34 627.54,214.77 620.9,213.36 C562.7,201 545.02,211.79 543.01,213.21 C541.307804,210.115523 539.827417,206.904119 538.58,203.6 C538.48,203.26 538.39,202.92 538.29,202.6 C549.808595,190.316417 556.826612,174.493272 558.2,157.71 C567.91,147.87 573.58,135.99 573.58,123.2 C573.58,112.2 569.38,101.88 562.03,92.95 L562.03,75.57 C562.03,55.5275899 554.068184,36.3060647 539.896059,22.1339405 C525.723935,7.96181643 506.50241,-2.84217094e-14 486.46,0 L480.33,0 C460.28759,-2.84217094e-14 441.066065,7.96181643 426.893941,22.1339405 C412.721816,36.3060647 404.76,55.5275899 404.76,75.57 L404.76,94.3 C398.09,102.91 394.31,112.74 394.31,123.18 C394.31,135.7 399.75,147.34 409.09,157.06 C410.366221,174.458091 417.705769,190.857061 429.83,203.4 C430.24,206.24 430.66,209.29 431.07,212.51 L326.97,234.5 C326.97,234.5 286.83,236.15 260.97,289.5 C239.1,334.69 195.58,450.79 182.69,485.35 C180.36,491.61 179.04,495.2 179.04,495.2 C179.04,495.2 179.47,494.77 180.28,494.03 L179.04,497.4 C179.04,497.4 179.67,496.76 180.87,495.71 C179.05,510.17 178.79,535 197.73,538.09 C213.61,540.68 254.53,541.75 285.44,542.18 L287.58,542.18 C308.07,542.45 323.66,542.45 323.66,542.45 L323.66,542.18 L656.1,542.18 L656.1,538.77 C656.103738,535.677231 655.481231,532.615725 654.27,529.77 L654.73,529.21 C656.508978,531.559043 657.692706,534.303918 658.18,537.21 C658.14168,537.492652 658.08827,537.773053 658.02,538.05 L658.22,537.54 C658.298055,538.44822 658.230538,539.363078 658.02,540.25 C658.02,540.25 700.67,430.36 700.21,364.74 C700.3324,357.829792 699.810139,350.923225 698.65,344.11 Z M432.8,227.36 C432.249157,224.22522 431.895131,221.059026 431.74,217.88 C431.74,217.88 431.74,217.82 431.74,217.79 C432.11,220.88 432.47,224.08 432.8,227.36 Z M303.58,463.4 L303.58,489.59 L287.18,493.1 L303.58,463.4 Z" id="Shape" fill="url(#linearGradient-1)" fill-rule="nonzero"></path>
            <path d="M481.71,10.57 C523.446159,10.57 557.28,44.4038415 557.28,86.14 L557.28,118.38 L406.14,118.38 L406.14,86.14 C406.14,44.4038415 439.973841,10.57 481.71,10.57 Z" id="Path" fill="#FF6584"></path>
            <ellipse id="Oval" fill="#FF6584" cx="482.24" cy="128.95" rx="86.14" ry="59.19"></ellipse>
            <path d="M427.02,186.29 C427.02,186.29 445.02,280.36 427.02,305.73 C409.02,331.1 482.02,341.14 482.02,341.14 L557.58,313.66 L568.15,246.01 C568.15,246.01 522.15,220.11 531.68,167.79 L427.02,186.29 Z" id="Path" fill="#FBBEBE"></path>
            <path d="M650.04,503.39 C650.04,503.39 654.8,524 628.9,527.7 C613.607226,529.949617 598.054724,529.763986 582.82,527.15 L577.11,475.38 L637.36,475.38 L650.04,503.39 Z" id="Path" fill="#F7C4A7"></path>
            <path d="M192.7,477.01 C192.7,477.01 181.26,523.5 207.16,527.7 C233.06,531.9 328.16,531.93 328.16,531.93 L328.16,476.93 L285.1,486.13 L244.68,447.37 L192.7,477.01 Z" id="Path" fill="#FBBEBE"></path>
            <path d="M432.58,216.68 L331.37,238.08 C331.37,238.08 292.79,239.67 267.95,290.93 C243.11,342.19 189.2,488.59 189.2,488.59 C189.2,488.59 235.2,442.08 289.09,491.76 L325.03,426.76 L317.1,529.82 L595.58,529.82 L595.58,481.19 C595.58,481.19 653.71,512.37 649.49,529.81 C649.49,529.81 699.24,401.63 688.49,343.38 C685.25393,325.372286 683.26918,307.162032 682.55,288.88 C681.24915,258.026028 660.674437,231.328555 631.17,222.21 C625.93,220.6 620.17,219.09 613.77,217.74 C554.05,205.06 538.77,217.74 538.77,217.74 C538.77,217.74 527.2,255.38 527.41,272.44 C527.67,294.37 496.23,308.91 496.23,308.91 C496.23,308.91 449.72,297.81 447.61,288.83 C445.5,279.85 428.86,227.25 432.58,216.68 Z" id="Path" fill="#000000" opacity="0.1"></path>
            <path d="M432.58,214.57 L331.37,235.97 C331.37,235.97 292.79,237.56 267.95,288.82 C243.11,340.08 189.19,486.5 189.19,486.5 C189.19,486.5 235.19,439.99 289.08,489.67 L325.02,424.67 L317.09,527.7 L595.58,527.7 L595.58,479.08 C595.58,479.08 653.71,510.26 649.49,527.7 C649.49,527.7 699.24,399.52 688.49,341.27 C685.25393,323.262286 683.26918,305.052032 682.55,286.77 C681.24915,255.916028 660.674437,229.218555 631.17,220.1 C625.93,218.49 620.17,216.98 613.77,215.63 C554.05,202.95 538.77,215.63 538.77,215.63 C538.77,215.63 527.2,253.27 527.41,270.33 C527.67,292.26 496.23,306.8 496.23,306.8 C496.23,306.8 449.72,295.7 447.61,286.72 C445.5,277.74 428.86,225.14 432.58,214.57 Z" id="Path" fill="#3884FF"></path>
            <path d="M536,210.08 C531.748606,198.043651 530.795644,185.088893 533.24,172.56 L428.58,191.05 C428.58,191.05 430.09,198.96 431.8,210.81 C445.466008,224.990768 464.353143,232.941352 484.046667,232.803357 C503.740192,232.665363 522.514057,224.450884 535.98,210.08 L536,210.08 Z" id="Path" fill="#000000" opacity="0.1"></path>
            <path d="M553.85,156.17 C553.67924,195.406664 522.074959,227.25694 482.840799,227.73191 C443.606638,228.20688 411.240572,197.131031 410.12,157.91 C410.12,157.33 410.12,156.75 410.12,156.17 C410.113329,128.712523 425.747336,103.64922 450.41,91.58 C452.563333,90.5266667 454.776667,89.58 457.05,88.74 C468.873919,84.3934411 481.627442,83.2077081 494.05,85.3 C526.823986,90.8807612 551.483943,118.225554 553.66,151.4 C553.786667,152.98 553.85,154.57 553.85,156.17 Z" id="Path" fill="#FBBEBE"></path>
            <g id="Group" opacity="0.1" transform="translate(410.000000, 86.000000)" fill="#000000">
                <path d="M46.94,4.43 L47.04,4.37 C44.7666667,5.21 42.5533333,6.15666667 40.4,7.21 C15.7373357,19.2792202 0.103329339,44.3425231 0.11,71.8 C0.11,72.38 0.11,72.96 0.109997866,73.54 C2.34467313,73.4795975 4.5418899,72.9515841 6.56,71.99 C24.08,63.81 34.56,38.79 38.72,21.34 C40.22,15.09 41.63,8.05 46.94,4.43 Z" id="Path"></path>
                <path d="M101.95,6.44 C96.2611483,3.82655169 90.2527888,1.97394615 84.08,0.93 C89.1424264,2.09487162 93.6632467,4.93491928 96.91,8.99 C98.5011666,11.1539449 99.8210134,13.5048169 100.84,15.99 C81.4809363,7.52549258 59.3826025,7.98244738 40.39,17.24 C44.9,27.13 58.89,32.52 68.23,36.13 C78.4566667,40.0766667 88.79,43.6866667 99.23,46.96 L89.99,39.46 L110.86,42.78 C111.084596,38.6265376 110.59068,34.4654703 109.4,30.48 C113.4,33.7 118.7,34.78 123.04,37.48 C131.17,42.61 134.56,52.48 138.99,61.03 C140.16,63.29 141.54,65.6 143.65,67.03 C141.912154,40.7147336 125.908887,17.4620264 101.95,6.44 Z" id="Path"></path>
            </g>
            <path d="M456.94,88.8 L457.04,88.74 C454.766667,89.58 452.553333,90.5266667 450.4,91.58 C425.737336,103.64922 410.103329,128.712523 410.11,156.17 C410.11,156.75 410.11,157.33 410.109998,157.91 C412.344673,157.849597 414.54189,157.321584 416.56,156.36 C434.08,148.18 444.56,123.16 448.72,105.71 C450.22,99.5 451.63,92.43 456.94,88.8 Z" id="Path" fill="#3E3E54"></path>
            <path d="M511.95,90.82 C506.261148,88.2065517 500.252789,86.3539461 494.08,85.31 C499.142426,86.4748716 503.663247,89.3149193 506.91,93.37 C508.501167,95.5339449 509.821013,97.8848169 510.84,100.37 C491.480936,91.9054926 469.382603,92.3624474 450.39,101.62 C454.9,111.51 468.89,116.9 478.23,120.51 C488.456667,124.456667 498.79,128.066667 509.23,131.34 L499.99,123.84 L520.86,127.16 C521.084596,123.006538 520.59068,118.84547 519.4,114.86 C523.4,118.08 528.7,119.16 533.04,121.86 C541.17,126.99 544.56,136.86 548.99,145.41 C550.16,147.67 551.54,149.98 553.65,151.41 C551.912154,125.094734 535.908887,101.842026 511.95,90.82 Z" id="Path" fill="#3E3E54"></path>
            <path d="M401.91,144.32 C401.91,144.32 475.91,52.32 561.52,144.32 L554.12,123.71 C554.12,123.71 513.95,65.05 485.42,77.71 C456.89,90.37 428.87,99.38 428.87,99.38 L401.91,144.32 Z" id="Path" fill="#000000" opacity="0.1"></path>
            <path d="M401.91,142.69 C401.91,142.69 475.91,50.69 561.52,142.69 L554.12,122.08 C554.12,122.08 513.95,63.42 485.42,76.08 C456.89,88.74 428.87,97.75 428.87,97.75 L401.91,142.69 Z" id="Path" fill="#FF6584"></path>
            <path d="M341.13,340.88 C341.13,340.88 325.28,383.16 347.47,421.21 C369.66,459.26 327.92,475.12 327.92,475.12" id="Path" fill="#000000" opacity="0.1"></path>
            <path d="M597.98,302.83 C597.98,302.83 625.46,337.71 607.49,368.89 C589.52,400.07 590.58,475.12 590.58,475.12" id="Path" fill="#000000" opacity="0.1"></path>
            <path d="M316.82,506.3 L622.29,506.3 C636.301464,506.3 647.66,517.658536 647.66,531.67 L291.46,531.67 C291.459999,517.66244 302.812441,506.305521 316.82,506.3 Z" id="Path" fill="#3E3E54"></path>
            <path d="M347.9,331.89 L591.22,331.89 C601.563443,331.89 611.483246,335.998917 618.797164,343.312836 C626.111083,350.626754 630.22,360.546557 630.22,370.89 L630.22,512.11 L308.9,512.11 L308.9,370.89 C308.9,349.350895 326.360895,331.89 347.9,331.89 Z" id="Path" fill="#3E3E54"></path>
            <circle id="Oval" fill="#FFFFFF" cx="469.29" cy="429.93" r="19.03"></circle>
            <path d="M406.14,101.2 C406.14,101.2 478.86,28.52 557.29,99.87" id="Path" stroke="#000000" opacity="0.1"></path>
            <rect id="Rectangle" fill="#F5F5F5" x="52.28" y="532" width="774.71" height="208"></rect>
            <rect id="Rectangle" fill="#000000" opacity="0.1" x="52.28" y="546" width="774.71" height="27"></rect>
            <rect id="Rectangle" fill="#F5F5F5" x="0.31" y="529" width="878.63" height="27"></rect>
        </g>
    </g>
</svg>