<?xml version="1.0" encoding="UTF-8"?>
<svg width="796px" height="622px" viewBox="0 0 796 622" version="1.1" xmlns="http://www.w3.org/2000/svg" xmlns:xlink="http://www.w3.org/1999/xlink">
    <!-- Generator: Sketch 61.1 (89650) - https://sketch.com -->
    <title>drag-to-sort-dark</title>
    <desc>Created with Sketch.</desc>
    <g id="Page-1" stroke="none" stroke-width="1" fill="none" fill-rule="evenodd">
        <g id="drag-to-sort-dark" fill-rule="nonzero">
            <rect id="Rectangle" fill="#2F2E41" transform="translate(425.335260, 120.877400) rotate(-180.000000) translate(-425.335260, -120.877400) " x="395.59884" y="77.54128" width="59.47284" height="86.67224"></rect>
            <path d="M443.57812,117.52244 C443.57812,117.52244 441.34063,160.31321 461.12634,162.06792 C474.9697,163.29563 434.12908,201.21392 434.12908,201.21392 L399.03264,152.61885 C399.03264,152.61885 425.34064,155.31318 408.48164,125.62159 L443.57812,117.52244 Z" id="Path" fill="#FFB8B8"></path>
            <path d="M399.03063,152.62324 L410.12063,167.98324 L434.13058,201.21324 C434.13058,201.21324 454.18058,182.59324 461.42058,171.03324 C464.14058,166.68324 465.06058,163.33324 462.42058,162.34324 C462.408841,162.335299 462.394675,162.331758 462.38058,162.33324 C462.001497,162.191289 461.604217,162.103753 461.20058,162.07324 C461.177571,162.067935 461.154154,162.06459 461.13058,162.06324 C459.977604,161.966334 458.843547,161.710582 457.76058,161.30324 C441.60058,155.26324 443.58058,117.52324 443.58058,117.52324 L408.48058,125.62324 C419.73058,145.43324 411.76058,150.83324 405.21058,152.22324 C403.773071,152.523024 402.309003,152.677136 400.84058,152.68324 C399.73064,152.69324 399.03063,152.62324 399.03063,152.62324 Z" id="Path" fill="#000000" opacity="0.1"></path>
            <path d="M388.71409,82.37824 C395.13986,101.40335 404.99295,118.73809 425.07394,118.73809 C445.15493,118.73809 460.30233,102.42724 461.43382,82.37824 C462.87959,56.7595 445.6182,45.91224 425.07398,46.01839 C400.80427,46.14371 381.08823,59.80001 388.71409,82.37824 Z" id="Path" fill="#2F2E41"></path>
            <path d="M474.62498,391.54466 L465.17598,457.68795 C465.17598,457.68795 473.27516,498.18385 469.22557,526.53095 L465.17598,556.22795 L446.27782,556.22795 L440.87837,525.1811 C440.87837,525.1811 435.47891,492.78438 435.47891,477.93589 C435.47891,477.93589 420.63042,410.44273 430.07946,396.9441 L474.62498,391.54466 Z" id="Path" fill="#FFB8B8"></path>
            <path d="M359.88661,387.49507 L369.33561,457.68795 C369.33561,457.68795 361.23643,498.18385 365.28602,526.53095 L369.33561,556.22795 L388.23369,556.22795 L393.63315,525.1811 C393.63315,525.1811 399.0326,492.78438 399.0326,477.93589 C399.0326,477.93589 413.88109,406.39314 404.43205,392.89451 L359.88661,387.49507 Z" id="Path" fill="#FFB8B8"></path>
            <path d="M378.78469,552.17837 C378.78469,552.17837 367.98579,548.12878 366.63592,553.52824 C365.28605,558.9277 362.58633,587.27481 362.58633,587.27481 C362.58633,587.27481 354.48716,599.42358 349.0877,600.77345 C343.68824,602.12332 331.53948,619.67153 346.38798,621.02139 C361.23648,622.37125 376.08498,616.9718 376.08498,614.27208 C376.08498,611.57236 381.48443,610.22249 384.18415,610.22249 C386.88387,610.22249 396.33292,606.1729 394.98306,602.12331 C393.6332,598.07372 389.58361,550.82851 389.58361,550.82851 L378.78469,552.17837 Z" id="Path" fill="#2F2E41"></path>
            <path d="M455.72689,552.17837 C455.72689,552.17837 466.5258,548.12878 467.87566,553.52824 C469.22552,558.9277 471.92525,587.27481 471.92525,587.27481 C471.92525,587.27481 480.02443,599.42358 485.42388,600.77345 C490.82333,602.12332 502.9721,619.67153 488.12361,621.02139 C473.27512,622.37125 458.42661,616.9718 458.42661,614.27208 C458.42661,611.57236 453.02716,610.22249 450.32743,610.22249 C447.6277,610.22249 438.17866,606.1729 439.52852,602.12331 C440.87838,598.07372 444.92798,550.82851 444.92798,550.82851 L455.72689,552.17837 Z" id="Path" fill="#2F2E41"></path>
            <circle id="Oval" fill="#FFB8B8" cx="423.33017" cy="105.37367" r="27.98955"></circle>
            <path d="M318.04064,259.25324 C318.04064,259.25324 374.73064,283.55324 380.13064,257.90324 C383.451044,241.873381 385.70598,225.641181 386.88064,209.31324 C386.886034,209.307809 386.893059,209.304297 386.90064,209.30324 C387.69064,208.82324 415.62064,191.68324 410.12064,167.98324 C408.84043,162.849521 406.435852,158.064274 403.08064,153.97324 C403.08064,153.97324 402.25064,153.43324 400.84064,152.68324 C399.187731,151.80043 397.481043,151.022234 395.73064,150.35324 C386.20064,146.72324 370.35064,144.67324 366.64064,168.81324 C361.24064,203.91324 361.24064,241.71324 361.24064,241.71324 C361.24064,241.71324 345.04064,251.16324 323.44064,241.71324 C301.84064,232.26324 280.24064,237.66324 278.89064,249.81324 C277.54064,261.95324 318.04064,259.25324 318.04064,259.25324 Z" id="Path" fill="#FFB8B8"></path>
            <path d="M461.13061,162.06324 L461.42061,171.03324 L464.64061,272.15324 L465.18061,288.95329 L512.42061,341.60329 C512.42061,341.60329 521.87061,369.94329 542.12061,373.99329 C562.37061,378.04329 528.62061,334.85329 528.62061,334.85329 L482.72061,267.35329 L482.65061,265.08329 C482.133573,246.170832 483.709822,227.259201 487.35061,208.69329 C488.697906,201.782686 488.957703,194.704065 488.12061,187.71329 C486.24061,172.65329 473.85061,166.12329 466.53061,163.55329 C465.185168,163.070797 463.812862,162.666784 462.42061,162.34329 C462.408871,162.335349 462.394705,162.331808 462.38061,162.33329 C461.77061,162.18329 461.36061,162.10329 461.20061,162.07329 C461.177603,162.067968 461.154185,162.06324 461.13061,162.06324 Z" id="Path" fill="#FFB8B8"></path>
            <path d="M385.53063,259.25324 L385.53063,264.65324 C405.21063,288.70329 448.77063,277.34324 464.64063,272.15324 C468.37063,270.93324 470.57063,270.05324 470.57063,270.05324 C469.762805,268.362075 469.303686,266.525597 469.22063,264.65324 L469.22063,252.51324 C469.22063,248.46324 467.88063,251.16324 466.53063,249.81324 C465.18063,248.46324 470.57063,240.36324 470.57063,240.36324 C484.07063,232.26324 475.97063,209.31324 475.97063,209.31324 L466.53063,189.06324 L466.53063,163.55324 C465.185188,163.070747 463.812882,162.666734 462.42063,162.34324 C462.408891,162.335299 462.394725,162.331758 462.38063,162.33324 C462.001547,162.191289 461.604267,162.103753 461.20063,162.07324 C461.177621,162.067935 461.154204,162.06459 461.13063,162.06324 C459.977654,161.966334 458.843597,161.710582 457.76063,161.30324 C455.23063,166.52324 449.73063,173.39324 438.18063,174.21324 C424.35063,175.20324 411.24063,160.29324 405.21063,152.22324 C403.773121,152.523024 402.309053,152.677136 400.84063,152.68324 C399.187721,151.80043 397.481033,151.022234 395.73063,150.35324 L401.73063,175.56324 C407.04063,188.83324 387.57063,208.61324 386.90063,209.30324 C386.893049,209.304297 386.886024,209.307809 386.88063,209.31324 L386.88063,224.16324 L388.23063,240.36324 L389.58063,244.41324 L386.88063,248.46324 L388.23063,252.51324 L386.88063,255.21324 C385.53063,257.90317 385.53063,256.56324 385.53063,259.25324 Z" id="Path" fill="#D0CDE1"></path>
            <path d="M467.87566,268.70711 L471.92525,267.35725 C471.92525,267.35725 520.52032,388.84493 488.12361,394.24438 C455.7269,399.64383 431.42935,409.09288 426.0299,399.64384 C420.63045,390.1948 423.33018,356.44822 423.33018,356.44822 L417.93072,355.09835 C417.93072,355.09835 427.37977,405.04329 408.48172,400.9937 C389.58367,396.94411 336.93897,390.19479 336.93897,384.79534 C336.93897,379.39589 385.53405,262.78153 385.53405,262.78153 C385.53405,262.78153 405.78195,275.45643 467.87566,268.70711 Z" id="Path" fill="#2F2E41"></path>
            <circle id="Oval" fill="#2F2E41" cx="425.07393" cy="39.32048" r="14.35257"></circle>
            <path d="M442.29702,31.66578 C442.296466,24.2951786 436.713337,18.1230236 429.37971,17.38568 C429.85188,17.33879 430.33041,17.31321 430.81496,17.31321 C435.94264,17.31321 440.680811,20.0487941 443.244651,24.4894948 C445.808491,28.9301955 445.808491,34.4013645 443.244651,38.8420652 C440.680811,43.2827659 435.94264,46.01835 430.81496,46.01835 C430.33041,46.01835 429.85188,45.99277 429.37971,45.94588 C436.713328,45.2085186 442.296448,39.0363743 442.29702,31.66578 Z" id="Path" fill="#2F2E41"></path>
            <path d="M436.63139,69.3328 C436.63139,69.3328 436.93109,67.66447 448.65211,72.05986 C460.37313,76.45525 467.39911,108.89124 461.53856,127.93786 C459.1768,135.61359 461.09805,141.14786 464.23381,145.01998 C476.00108,159.55074 471.36881,181.37553 454.22881,188.84775 C453.745023,189.058663 453.251357,189.267157 452.74781,189.47323 L445.42217,193.86861 C445.42217,193.86861 454.76078,181.58096 450.08739,165.86279 C446.028886,152.470302 445.527689,138.251805 448.63313,124.60679 C449.16929,122.30498 449.77833,119.93224 450.47013,117.51085 C456.33064,96.99906 453.48034,99.36785 432.96855,78.85608 C432.96855,78.85608 421.24755,87.64684 410.99164,92.04222 C400.73573,96.4376 391.94498,100.83299 399.27064,115.48422 C406.5963,130.13545 424.17782,143.32175 412.45682,162.36841 C400.73582,181.41507 399.27067,174.08941 400.73582,181.41507 L402.20095,188.74071 L393.41018,179.94994 L399.2707,191.67094 C399.2707,191.67094 380.22404,191.67094 374.36352,177.01966 L371.43327,179.94992 C371.43327,179.94992 359.71227,159.43813 381.68916,140.39147 C381.68916,140.39147 389.0148,135.99609 378.75891,121.34481 C368.50302,106.69353 376.37966,75.19329 389.56581,69.33281 C402.75196,63.47233 436.63139,69.3328 436.63139,69.3328 Z" id="Path" fill="#2F2E41"></path>
            <path d="M292.80264,133.76001 L292.80264,199.44001 C292.799272,200.703344 291.775974,201.726642 290.51264,201.73001 L288.88272,201.73001 L288.88272,543.88001 C288.881616,563.596145 272.898785,579.58001 253.18265,579.58001 L39.39273,579.58001 C29.925692,579.58001 20.846803,575.817262 14.153528,569.122123 C7.460253,562.426984 3.700935,553.347048 3.70267,543.88001 L3.70267,213.73001 L2.52262,213.73001 C1.631248,213.731342 0.906779,213.011323 0.90262,212.11996 L0.90262,174.74005 C0.902527,174.310365 1.073173,173.898252 1.377001,173.594413 C1.680828,173.290575 2.092935,173.119913 2.52262,173.11999 L3.70267,173.11999 L3.70267,159.04004 L2.51261,159.04004 C1.576824,159.036473 0.822606222,158.275831 0.822606222,157.34004 L0.822606222,120.47004 C0.822606222,119.537664 1.580234,118.782414 2.51261,118.78004 L3.70267,118.78004 L3.70267,99.56004 L2.49259,99.56004 C2.094602,99.5605717 1.712763,99.4027072 1.431343,99.1212873 C1.149923,98.8398674 0.992058,98.4580275 0.99259,98.06004 L0.99259,77.94004 C0.990713,77.1092145 1.66177,76.433683 2.49259,76.43004 L3.70267,76.43004 L3.70267,35.69004 C3.703421,15.979285 19.681975,4.00000001e-05 39.39273,4.00000001e-05 L253.18265,4.00000001e-05 C272.895359,4.00000001e-05 288.877248,15.9773319 288.88272,35.69004 L288.88272,131.47004 L290.51261,131.47004 C291.775956,131.473364 292.799283,132.496664 292.80264,133.76001 Z" id="Path" fill="#3F3D56"></path>
            <rect id="Rectangle" fill="#E6E8EC" x="119.30627" y="18.3068" width="39.82343" height="8.08642" rx="2.54189"></rect>
            <circle id="Oval" fill="#E6E8EC" cx="169.7377" cy="22.35" r="4.58665"></circle>
            <path d="M271.787661,42.74982 L271.787661,546.83982 C271.781891,559.345061 261.642903,569.479854 249.13766,569.479854 L44.48766,569.479854 C38.479035,569.490295 32.713347,567.108701 28.463663,562.860893 C24.213979,558.613085 21.829838,552.848449 21.8376408,546.83982 L21.8376408,42.74982 C21.8376408,36.7425852 24.223642,30.981315 28.471398,26.7335585 C32.719155,22.485802 38.480425,20.0998188 44.48766,20.0998188 L75.11766,20.0998188 L75.11766,24.02982 C75.117743,34.3298963 83.467584,42.6797372 93.76766,42.67982 L197.84766,42.67982 C208.147748,42.6797648 216.497605,34.3299077 216.49766,24.02982 L216.49766,20.0998188 L249.13766,20.0998188 C255.14541,20.0998188 260.907658,22.4835791 265.15578,26.7317004 C269.403901,30.9798217 271.787661,36.7420696 271.787661,42.74982 Z" id="Path" fill="#3884FF"></path>
            <rect id="Rectangle" fill="#000000" opacity="0.2" x="31.82764" y="185.35056" width="232" height="113"></rect>
            <rect id="Rectangle" fill="#5E5E80" x="563.49011" y="281.15986" width="232" height="113"></rect>
            <rect id="Rectangle" fill="#3F3D56" x="31.82764" y="356.62983" width="232" height="113"></rect>
            <circle id="Oval" fill="#FFFFFF" cx="239.82764" cy="81.62983" r="20"></circle>
            <polygon id="Path" fill="#3F3D56" points="248.828 80.987 240.47 80.987 240.47 72.63 239.185 72.63 239.185 80.987 230.828 80.987 230.828 82.273 239.185 82.273 239.185 90.63 240.47 90.63 240.47 82.273 248.828 82.273"></polygon>
            <rect id="Rectangle" fill="#3F3D56" x="537.49011" y="266.15986" width="232" height="113"></rect>
            <path d="M641.05659,342.03005 C647.12975,364.48011 667.93171,378.38405 667.93171,378.38405 C667.93171,378.38405 678.88712,355.8892 672.81396,333.43914 C666.7408,310.98908 645.93882,297.08514 645.93882,297.08514 C645.93882,297.08514 634.98343,319.57999 641.05659,342.03005 Z" id="Path" fill="#FFFFFF"></path>
            <path d="M649.98068,337.20529 C666.64552,353.42785 668.68101,378.36569 668.68101,378.36569 C668.68101,378.36569 643.69745,377.00158 627.0326,360.77902 C610.36775,344.55646 608.33226,319.61862 608.33226,319.61862 C608.33226,319.61862 633.31582,320.98274 649.98068,337.20529 Z" id="Path" fill="#3884FF"></path>
            <path d="M125.23627,434.22075 C131.30943,456.67081 152.11139,470.5747 152.11139,470.5747 C152.11139,470.5747 163.0668,448.07985 156.99364,425.62979 C150.92048,403.17973 130.11852,389.27579 130.11852,389.27579 C130.11852,389.27579 119.16311,411.77069 125.23627,434.22075 Z" id="Path" fill="#FFFFFF"></path>
            <path d="M134.16036,429.39599 C150.8252,445.61855 152.86069,470.55639 152.86069,470.55639 C152.86069,470.55639 127.87713,469.19228 111.21228,452.96972 C94.54743,436.74716 92.51194,411.80932 92.51194,411.80932 C92.51194,411.80932 117.49551,413.17344 134.16036,429.39599 Z" id="Path" fill="#3884FF"></path>
            <path d="M180.48511,434.22075 C174.41195,456.67081 153.61,470.5747 153.61,470.5747 C153.61,470.5747 142.65459,448.07985 148.72775,425.62979 C154.80091,403.17973 175.60286,389.27579 175.60286,389.27579 C175.60286,389.27579 186.55828,411.77069 180.48511,434.22075 Z" id="Path" fill="#FFFFFF"></path>
            <path d="M171.56103,429.39599 C154.89618,445.61855 152.86069,470.55639 152.86069,470.55639 C152.86069,470.55639 177.84426,469.19228 194.5091,452.96972 C211.17394,436.74716 213.20944,411.80932 213.20944,411.80932 C213.20944,411.80932 188.22588,413.17344 171.56103,429.39599 Z" id="Path" fill="#3884FF"></path>
            <rect id="Rectangle" fill="#3F3D56" x="81.82764" y="167.35056" width="232" height="113"></rect>
            <rect id="Rectangle" fill="#FFFFFF" x="196.9751" y="206.09467" width="2" height="74.41113"></rect>
            <circle id="Oval" fill="#3884FF" cx="197.97533" cy="207.0943" r="10.52282"></circle>
            <path d="M197.97533,251.95557 C197.97533,251.95557 196.47207,219.62364 165.65524,223.38179" id="Path" fill="#FFFFFF"></path>
        </g>
    </g>
</svg>