<?xml version="1.0" encoding="UTF-8"?>
<svg width="853px" height="769px" viewBox="0 0 853 769" version="1.1" xmlns="http://www.w3.org/2000/svg" xmlns:xlink="http://www.w3.org/1999/xlink">
    <!-- Generator: Sketch 61.1 (89650) - https://sketch.com -->
    <title>dynamic-springs</title>
    <desc>Created with Sketch.</desc>
    <g id="Page-1" stroke="none" stroke-width="1" fill="none" fill-rule="evenodd">
        <g id="dynamic-springs" fill-rule="nonzero">
            <path d="M539.82416,520.65012 C579.6973,902.17242 732.72546,850.84385 846.74416,311.56418 C876.74434,169.67128 780.14934,31.66026 637.65825,4.64413 C495.16716,-22.372 357.75434,71.23896 330.73825,213.73013 C303.72216,356.2213 524.74912,376.40609 539.82416,520.65012 Z" id="Path" fill="#F5F5F5"></path>
            <path d="M154.03857,387.8967 L188.37398,389.21729 C188.37398,389.21729 218.74761,403.74381 218.74761,415.62914 C218.74761,427.51447 183.09161,402.42322 183.09161,402.42322 L154.03857,401.10262 L154.03857,387.8967 Z" id="Path" fill="#FFB9B9"></path>
            <path d="M154.03857,387.8967 L188.37398,389.21729 C188.37398,389.21729 218.74761,403.74381 218.74761,415.62914 C218.74761,427.51447 183.09161,402.42322 183.09161,402.42322 L154.03857,401.10262 L154.03857,387.8967 Z" id="Path" fill="#000000" opacity="0.1"></path>
            <path d="M155.35917,377.33196 C155.35917,377.33196 161.96217,393.17907 160.64154,401.10262 C159.32091,409.02617 109.13842,406.38499 109.13842,406.38499 L117.06198,382.61433 L155.35917,377.33196 Z" id="Path" fill="#FFB9B9"></path>
            <polygon id="Path" fill="#FFB9B9" points="107.818 663.901 105.177 699.557 127.627 700.877 131.588 666.542"></polygon>
            <path d="M107.81783,398.46144 L102.53546,411.66736 C102.53546,411.66736 90.65013,423.55269 93.29131,452.60573 C95.93249,481.65877 97.25309,482.97936 97.25309,482.97936 C97.25309,482.97936 86.68834,666.54174 95.9325,667.86236 C105.17666,669.18298 156.67976,694.27422 161.96213,665.22118 C167.2445,636.16814 169.88568,518.63536 169.88568,518.63536 L109.13842,409.02618 L107.81783,398.46144 Z" id="Path" fill="#2F2E41"></path>
            <path d="M107.81783,398.46144 L102.53546,411.66736 C102.53546,411.66736 90.65013,423.55269 93.29131,452.60573 C95.93249,481.65877 97.25309,482.97936 97.25309,482.97936 C97.25309,482.97936 86.68834,666.54174 95.9325,667.86236 C105.17666,669.18298 156.67976,694.27422 161.96213,665.22118 C167.2445,636.16814 169.88568,518.63536 169.88568,518.63536 L109.13842,409.02618 L107.81783,398.46144 Z" id="Path" fill="#000000" opacity="0.1"></path>
            <polygon id="Path" fill="#FFB9B9" points="167.244 642.771 155.359 659.939 175.168 667.862 192.336 640.13"></polygon>
            <circle id="Oval" fill="#FFB9B9" cx="155.35916" cy="245.2727" r="30.37363"></circle>
            <path d="M131.5885,234.70795 C131.5885,234.70795 105.17665,262.4404 97.25309,263.76095 C89.32953,265.0815 124.98553,287.53162 124.98553,287.53162 L124.98553,279.60806 C124.98553,279.60806 136.87087,267.72273 143.47383,266.40214 C150.07679,265.08155 131.5885,234.70795 131.5885,234.70795 Z" id="Path" fill="#FFB9B9"></path>
            <path d="M110.45902,391.85848 L102.53546,411.66736 C102.53546,411.66736 86.68835,451.28513 109.13846,472.41462 C131.58857,493.54411 196.29754,559.57374 193.65634,574.10026 C191.01514,588.62678 151.87102,639.97391 164.17983,646.65486 C176.48864,653.33581 311.18908,629.56515 312.50968,613.71804 C313.0049,607.77537 308.11458,596.26145 301.80823,584.19041 C289.90291,561.56539 275.250943,540.496076 258.18453,521.46017 L168.56509,420.91151 C168.56509,420.91151 159.32094,401.10262 161.96209,397.14085 C161.96209,397.14085 151.39735,386.57611 119.70309,394.49966 L110.45902,391.85848 Z" id="Path" fill="#2F2E41"></path>
            <path d="M103.85605,695.59478 C103.85605,695.59478 97.25305,716.72426 94.6119,718.04485 C91.97075,719.36544 89.32953,733.89196 91.97072,736.53315 C94.61191,739.17434 95.9325,751.05967 95.9325,751.05967 L98.57368,751.05967 L99.89428,737.85374 C99.89428,737.85374 127.25382,754.37174 131.5885,756.34204 C138.85176,759.64352 171.20628,758.98322 169.88568,752.38026 C168.56508,745.7773 130.26791,724.64782 131.5885,719.36545 C132.90909,714.08308 128.94734,698.23596 128.94734,698.23596 L103.85605,695.59478 Z" id="Path" fill="#2F2E41"></path>
            <path d="M179.12983,666.54174 L152.71798,655.977 C152.71798,655.977 146.11498,666.54174 138.19146,666.54174 C130.26794,666.54174 124.10863,676.14636 124.54708,676.62636 C124.98553,677.10636 113.1002,692.95355 113.1002,692.95355 L115.23413,696.79243 L130.26791,687.67118 L134.48127,705.36732 C136.799917,715.360339 141.365236,724.693607 147.83052,732.65832 C153.01144,738.96239 159.46768,744.30997 165.92391,743.13611 C165.92391,743.13611 168.56509,743.13611 165.92391,724.64782 C163.28273,706.15953 168.56509,686.35063 168.56509,686.35063 L179.12983,666.54174 Z" id="Path" fill="#2F2E41"></path>
            <path d="M110.45902,262.44036 C110.45902,262.44036 113.1002,269.04336 115.74139,270.36392 C118.38258,271.68448 126.30613,276.96692 127.62672,282.24925 C128.94731,287.53158 135.55028,303.37873 135.55028,303.37873 C135.55028,303.37873 150.07679,311.30229 148.7562,325.82881 C147.43561,340.35533 146.11502,352.24066 148.7562,353.56125 C151.39738,354.88184 154.03857,354.88184 152.71798,358.84362 C151.39739,362.8054 155.35917,366.76718 156.67976,368.08777 C158.00035,369.40836 160.64154,366.76718 158.00035,370.72895 C155.35916,374.69072 156.67976,376.01132 158.00035,377.33195 C159.32094,378.65258 160.64154,378.65254 159.32094,381.29373 C158.00034,383.93492 109.13842,401.10261 106.49724,401.10261 C103.85606,401.10261 103.85605,398.46143 105.17665,394.49961 C106.49725,390.53779 111.77965,386.57606 106.49724,385.25546 C101.21483,383.93486 99.89424,383.93487 99.89424,377.33191 C99.89424,370.72895 77.44416,331.11117 77.44416,331.11117 C77.44416,331.11117 68.20001,300.73754 77.44416,287.53161 C86.68831,274.32568 93.29134,265.08158 98.57368,262.44036 C103.85602,259.79914 110.45902,262.44036 110.45902,262.44036 Z" id="Path" fill="#3884FF"></path>
            <path d="M66.87946,324.50825 L51.03234,368.08781 L19.33812,461.84988 C19.33812,461.84988 -13.67666,508.07063 8.77334,505.42944 C31.22334,502.78825 33.8646,461.84988 33.8646,461.84988 L64.23823,389.21729 L91.97072,333.75236 L66.87946,324.50825 Z" id="Path" fill="#FFB9B9"></path>
            <path d="M82.72657,286.21107 L77.4442,287.53166 C77.4442,287.53166 58.9559,324.50825 62.91768,328.47003 C66.87946,332.43181 88.00894,342.99655 91.97068,341.67596 C95.93242,340.35537 101.21483,302.05818 101.21483,302.05818 L82.72657,286.21107 Z" id="Path" fill="#3884FF"></path>
            <path d="M84.28267,233.74151 C94.52852,229.23651 106.92692,219.37378 118.70019,211.2351 C122.5158,208.59744 126.23151,205.8293 129.92831,203.02755 C137.37931,197.38055 155.31019,195.4219 170.78601,205.34506 C188.47438,216.68692 197.10608,234.78253 192.31731,242.25094 C188.35808,248.42562 175.21572,247.34264 160.78531,240.3746 C158.75639,253.89367 154.11751,267.36651 149.04955,275.27032 C137.58168,293.15521 127.93377,276.29378 110.04888,264.82591 C92.16399,253.35804 64.83394,242.29305 84.28267,233.74151 Z" id="Path" fill="#2F2E41"></path>
            <circle id="Oval" fill="#3884FF" cx="324.1963" cy="476.34673" r="61"></circle>
            <polygon id="Path" fill="#3F3D56" points="620.19634 158.34672 620.19634 271.05504 620.19634 308.34672 620.19634 361.51994 620.19634 415.34672 620.19634 764.34672 678.19634 764.34672 678.19634 158.34672"></polygon>
        </g>
    </g>
</svg>