<?xml version="1.0" encoding="UTF-8"?>
<svg width="702px" height="651px" viewBox="0 0 702 651" version="1.1" xmlns="http://www.w3.org/2000/svg" xmlns:xlink="http://www.w3.org/1999/xlink">
    <!-- Generator: Sketch 52.6 (67491) - http://www.bohemiancoding.com/sketch -->
    <title>pan-gesture</title>
    <desc>Created with Sketch.</desc>
    <defs>
        <linearGradient x1="14.0532528%" y1="102.226107%" x2="92.7962505%" y2="-1.13999013%" id="linearGradient-1">
            <stop stop-color="#808080" stop-opacity="0.25" offset="0%"></stop>
            <stop stop-color="#808080" stop-opacity="0.12" offset="54%"></stop>
            <stop stop-color="#808080" stop-opacity="0.1" offset="100%"></stop>
        </linearGradient>
        <linearGradient x1="50.0025296%" y1="99.9998003%" x2="50.0025296%" y2="-0.00102386172%" id="linearGradient-2">
            <stop stop-color="#808080" stop-opacity="0.25" offset="0%"></stop>
            <stop stop-color="#808080" stop-opacity="0.12" offset="54%"></stop>
            <stop stop-color="#808080" stop-opacity="0.1" offset="100%"></stop>
        </linearGradient>
        <linearGradient x1="50%" y1="100%" x2="50%" y2="0%" id="linearGradient-3">
            <stop stop-color="#808080" stop-opacity="0.25" offset="0%"></stop>
            <stop stop-color="#808080" stop-opacity="0.12" offset="54%"></stop>
            <stop stop-color="#808080" stop-opacity="0.1" offset="100%"></stop>
        </linearGradient>
    </defs>
    <g id="Page-1" stroke="none" stroke-width="1" fill="none" fill-rule="evenodd">
        <g id="pan-gesture">
            <g id="Group" opacity="0.5" transform="translate(113.000000, 0.000000)" fill="url(#linearGradient-1)">
                <path d="M346.55,0.01 L14.05,0.82 C10.4271401,0.827947764 6.95582122,2.27475003 4.3996985,4.84212494 C1.84357577,7.40949986 0.412034762,10.8871401 0.42,14.51 L1.88,636.39 C1.89055529,640.021567 3.34676557,643.499453 5.92685008,646.055144 C8.50693459,648.610835 11.9984963,650.033942 15.63,650.01 L348.13,649.2 C351.75286,649.192052 355.224179,647.74525 357.780302,645.177875 C360.336424,642.6105 361.767965,639.13286 361.76,635.51 L360.25,13.62 C360.222432,6.07968706 354.090331,-0.012130521 346.55,0.01 Z" id="Path"></path>
            </g>
            <rect id="Rectangle" fill="#F5F5F5" transform="translate(294.093908, 324.859339) rotate(-0.140000) translate(-294.093908, -324.859339) " x="119.038908" y="8.884339" width="350.11" height="631.95" rx="13.64"></rect>
            <path d="M381.31,24.52 C379.252846,38.370097 367.40181,48.650054 353.4,48.73 L232.46,49.01 C218.469654,48.984946 206.58466,38.768096 204.46,24.94 L140.41,25.1 C136.882618,25.107948 133.502866,26.516821 131.014257,29.016683 C128.525647,31.516545 127.132035,34.902618 127.14,38.43 L128.53,612.1 C128.537939,615.630858 129.94956,619.013649 132.453752,621.502835 C134.957943,623.99202 138.349158,625.383283 141.88,625.37 L447.88,624.63 C451.407382,624.622052 454.787134,623.213179 457.275743,620.713317 C459.764353,618.213455 461.157965,614.827382 461.15,611.3 L459.76,37.63 C459.752052,34.102618 458.343179,30.722866 455.843317,28.234257 C453.343455,25.745647 449.957382,24.352035 446.43,24.36 L381.31,24.52 Z" id="e707708a-3328-453c-98e2-ff60f305110c" fill="#3884FF" opacity="0.4"></path>
            <g id="Group" opacity="0.5" transform="translate(194.000000, 69.000000)" fill="url(#linearGradient-2)">
                <path d="M204.38,102.24 C204.374189,53.6164361 170.047404,11.757032 122.366415,2.22947597 C74.6854268,-7.29808008 26.9082616,18.1554144 8.21717147,63.0429867 C-10.4739186,107.930559 5.11825246,159.770911 45.47,186.9 L45.53,187.35 C48.8621713,190.544101 52.7946887,193.045685 57.1,194.71 L57.23,194.26 C62,198.36 82.11,204.92 105.23,204.86 L105.73,204.86 C120.37,204.86 136.25,202.28 150.22,194.72 C150.22,194.72 150.34,194.45 150.53,193.95 C154.07049,192.285483 157.318968,190.060175 160.15,187.36 C160.203333,186.973333 160.256667,186.586667 160.31,186.2 C187.921221,167.170565 204.401292,135.773543 204.38,102.24 Z" id="Path"></path>
            </g>
            <circle id="Oval" fill="#F5F5F5" cx="296.38" cy="171.25" r="98.94"></circle>
            <rect id="Rectangle" fill-opacity="0.3" fill="#000000" transform="translate(290.201244, 34.769553) rotate(-0.860000) translate(-290.201244, -34.769553) " x="251.191244" y="32.329553" width="78.02" height="4.88" rx="2"></rect>
            <circle id="Oval" fill-opacity="0.3" fill="#000000" transform="translate(345.785021, 33.445488) rotate(-0.860000) translate(-345.785021, -33.445488) " cx="345.785021" cy="33.445488" r="2.93"></circle>
            <path d="M312.595357,318.132578 L312.595357,362.642578 L75.225357,362.642578 L75.225357,377.372578 C75.22596,378.455143 74.665351,379.46065 73.744145,380.02927 C72.822939,380.59789 71.672817,380.648344 70.705357,380.162578 L1.905357,345.762578 C0.764836,345.191503 0.032458,344.037753 0.001051,342.762634 C-0.030356,341.487516 0.644334,340.299109 1.755357,339.672578 L71.755357,300.292578 C72.464889,299.894726 73.332223,299.903141 74.033902,300.314683 C74.735582,300.726226 75.166273,301.479116 75.165357,302.292578 L74.945357,317.822578 L312.595357,318.132578 Z" id="Path" fill="#FF6584"></path>
            <path d="M389,318.132578 L389,362.642578 L626.37,362.642578 L626.37,377.372578 C626.369397,378.455143 626.930006,379.46065 627.851212,380.02927 C628.772418,380.59789 629.92254,380.648344 630.89,380.162578 L699.69,345.762578 C700.830521,345.191503 701.562899,344.037753 701.594306,342.762634 C701.625713,341.487516 700.951023,340.299109 699.84,339.672578 L629.84,300.292578 C629.130468,299.894726 628.263135,299.903141 627.561455,300.314683 C626.859775,300.726226 626.429084,301.479116 626.43,302.292578 L626.65,317.822578 L389,318.132578 Z" id="Path" fill="#FF6584"></path>
            <g id="Group" opacity="0.5" transform="translate(297.000000, 281.098957)" fill="url(#linearGradient-3)">
                <circle id="Oval" cx="54" cy="54" r="54"></circle>
            </g>
            <circle id="Oval" fill="#3884FF" cx="351" cy="336" r="45"></circle>
            <path d="M258.58,211.93 C258.58,211.93 235.01,213.86 241.24,256.81 C244.4714,259.90809 248.284901,262.334864 252.46,263.95 L265.72,219.07 L258.58,211.93 Z" id="Path" fill="#FDA57D"></path>
            <path d="M335.08,211.93 C335.08,211.93 358.65,213.86 352.42,256.81 C349.1886,259.90809 345.375099,262.334864 341.2,263.95 L327.94,219.07 L335.08,211.93 Z" id="Path" fill="#FDA57D"></path>
            <path d="M259.6,141.55 C259.6,141.55 248.38,174.19 242.26,171.13 C242.26,171.13 301.26,222.13 353.44,171.13 C353.44,171.13 344.26,154.81 331,141.55 L259.6,141.55 Z" id="Path" fill="#333333"></path>
            <circle id="Oval" fill="#333333" cx="297.46" cy="138.49" r="43.86"></circle>
            <path d="M334.63,211.93 L258.13,211.93 L250.99,242.53 C250.99,242.53 246.8,256.7 251.99,262.93 C257.18,269.16 305.94,283.33 341.75,263.93 C344.865161,255.768521 345.216461,246.810366 342.75,238.43 C338.67,224.15 341.75,237.43 341.75,237.43 L334.63,211.93 Z" id="Path" fill="#000000" opacity="0.1"></path>
            <path d="M335.65,211.93 L259.15,211.93 L252.01,242.53 C252.01,242.53 247.82,256.7 253.01,262.93 C258.2,269.16 306.96,283.33 342.77,263.93 C345.885161,255.768521 346.236461,246.810366 343.77,238.43 C339.69,224.15 342.77,237.43 342.77,237.43 L335.65,211.93 Z" id="Path" fill="#000000" opacity="0.1"></path>
            <path d="M335.08,211.93 L258.58,211.93 L251.44,242.53 C251.44,242.53 247.25,256.7 252.44,262.93 C257.63,269.16 306.39,283.33 342.2,263.93 C345.315161,255.768521 345.666461,246.810366 343.2,238.43 C339.12,224.15 342.2,237.43 342.2,237.43 L335.08,211.93 Z" id="Path" fill="#3884FF"></path>
            <path d="M282,186.55 L312.6,186.55 L312.6,211 C312.6,219.449957 305.749957,226.3 297.3,226.3 C288.850043,226.3 282,219.449957 282,211 L282,186.55 Z" id="Path" fill="#000000" opacity="0.1"></path>
            <path d="M282,185.41 L312.6,185.41 L312.6,209.89 C312.6,218.339957 305.749957,225.19 297.3,225.19 C288.850043,225.19 282,218.339957 282,209.89 L282,185.41 Z" id="Path" fill="#FDA57D"></path>
            <path d="M282.1,189.83 C291.961914,193.516872 302.818943,193.545256 312.7,189.91 L312.7,186.15 L282.1,186.15 L282.1,189.83 Z" id="Path" fill="#000000" opacity="0.1"></path>
            <circle id="Oval" fill="#FDA57D" cx="297.46" cy="148.01" r="43.86"></circle>
            <path d="M255.52,131.35 L339.16,131.35 C339.16,131.35 332.02,97.58 300.4,99.73 C268.78,101.88 255.52,131.35 255.52,131.35 Z" id="Path" fill="#333333"></path>
            <ellipse id="Oval" fill="#FDA57D" cx="254.5" cy="146.14" rx="4.08" ry="7.65"></ellipse>
            <ellipse id="Oval" fill="#FDA57D" cx="340.18" cy="146.14" rx="4.08" ry="7.65"></ellipse>
        </g>
    </g>
</svg>