<?xml version="1.0" encoding="UTF-8"?>
<svg width="780px" height="747px" viewBox="0 0 780 747" version="1.1" xmlns="http://www.w3.org/2000/svg" xmlns:xlink="http://www.w3.org/1999/xlink">
    <!-- Generator: Sketch 52.5 (67469) - http://www.bohemiancoding.com/sketch -->
    <title>pinch</title>
    <desc>Created with Sketch.</desc>
    <g id="Page-1" stroke="none" stroke-width="1" fill="none" fill-rule="evenodd">
        <g id="pinch">
            <polygon id="Path" fill="#444053" points="779.97 0 779.97 720 535.97 686 239.36 746.51 236.97 747 0.97 682 0.97 56 245.97 0 513.97 56 524.16 53.85"></polygon>
            <polygon id="Path" fill="#FFFFFF" points="738.97 39.32 738.97 683.53 520.66 653.11 255.27 707.25 253.13 707.68 41.97 649.53 41.97 89.42 261.19 39.32 500.97 89.42 510.09 87.5"></polygon>
            <polygon id="Path" fill="#000000" opacity="0.1" points="535.97 686 239.36 746.51 245.97 0 513.97 56 524.16 53.85"></polygon>
            <g id="Group" opacity="0.3" transform="translate(20.000000, 138.000000)" stroke="#444053" stroke-width="3">
                <polyline id="Path" points="486.35 0 486.47 209.5 573.47 209.5 573.47 123.5 722.47 123.5 739.97 101.06"></polyline>
                <polyline id="Path" points="1.97 66.5 325.47 66.5 345.47 57.5 353.47 57.5 353.47 259.5 493.47 259.5 499.47 277.5 499.47 368.5 607.47 368.5 607.47 481"></polyline>
                <path d="M396.2,481 L396.2,259.5" id="Path"></path>
                <path d="M739.97,421.66 L396.2,421.66" id="Path"></path>
                <path d="M653.87,0 L653.87,481" id="Path"></path>
                <path d="M0.97,379.14 L739.97,379.14" id="Path"></path>
                <path d="M90.91,481 L90.91,0" id="Path"></path>
                <path d="M262.69,0 L262.69,481" id="Path"></path>
                <path d="M1.97,121.5 L573.47,123.5" id="Path"></path>
                <path d="M168.3,0.87 L168.3,481" id="Path"></path>
                <polyline id="Path" points="0.97 232.82 262.69 232.82 396.2 379.14"></polyline>
                <path d="M425.12,0 L425.12,259.5" id="Path"></path>
                <path d="M396.2,305.98 L739.97,305.98" id="Path"></path>
            </g>
            <polygon id="Path" fill="#3884FF" points="518.97 442 417.97 442 417.97 398 513.47 397.5 519.47 414.5"></polygon>
            <path d="M468.97,214 C438.439699,214 413.69,238.749699 413.69,269.28 C413.69,299.81 468.97,399 468.97,399 C468.97,399 524.25,299.85 524.25,269.28 C524.25,238.749699 499.500301,214 468.97,214 Z M468.97,292.86 C455.538435,292.86 444.65,281.971565 444.65,268.54 C444.65,255.108435 455.538435,244.22 468.97,244.22 C482.401565,244.22 493.29,255.108435 493.29,268.54 C493.284479,281.96766 482.397661,292.850001 468.97,292.85 L468.97,292.86 Z" id="Shape" fill="#3884FF" fill-rule="nonzero"></path>
            <path d="M468.97,214 C438.439699,214 413.69,238.749699 413.69,269.28 C413.69,299.81 468.97,399 468.97,399 C468.97,399 524.25,299.85 524.25,269.28 C524.25,238.749699 499.500301,214 468.97,214 Z M468.97,292.86 C455.538435,292.86 444.65,281.971565 444.65,268.54 C444.65,255.108435 455.538435,244.22 468.97,244.22 C482.401565,244.22 493.29,255.108435 493.29,268.54 C493.284479,281.96766 482.397661,292.850001 468.97,292.85 L468.97,292.86 Z" id="Shape" fill="#000000" fill-rule="nonzero" opacity="0.1"></path>
            <path d="M468.97,222 C438.439699,222 413.69,246.749699 413.69,277.28 C413.69,307.81 468.97,407 468.97,407 C468.97,407 524.25,307.85 524.25,277.28 C524.25,246.749699 499.500301,222 468.97,222 Z M468.97,300.86 C455.538435,300.86 444.65,289.971565 444.65,276.54 C444.65,263.108435 455.538435,252.22 468.97,252.22 C482.401565,252.22 493.29,263.108435 493.29,276.54 C493.284479,289.96766 482.397661,300.850001 468.97,300.85 L468.97,300.86 Z" id="Shape" fill="#3884FF" fill-rule="nonzero"></path>
        </g>
    </g>
</svg>