<?xml version="1.0" encoding="UTF-8"?>
<svg width="1079px" height="716px" viewBox="0 0 1079 716" version="1.1" xmlns="http://www.w3.org/2000/svg" xmlns:xlink="http://www.w3.org/1999/xlink">
    <!-- Generator: Sketch 61.1 (89650) - https://sketch.com -->
    <title>shape-morphing</title>
    <desc>Created with Sketch.</desc>
    <g id="Page-1" stroke="none" stroke-width="1" fill="none" fill-rule="evenodd">
        <g id="shape-morphing" fill-rule="nonzero">
            <rect id="Rectangle" fill="#3F3D56" x="8.19873" y="361.93604" width="190.61279" height="2"></rect>
            <rect id="Rectangle" fill="#3F3D56" x="359.14014" y="361.93604" width="190.6123" height="2"></rect>
            <rect id="Rectangle" fill="#3F3D56" x="797.37158" y="361.93604" width="190.6123" height="2"></rect>
            <circle id="Oval" fill="#3884FF" cx="26.90391" cy="362.93641" r="11.57928"></circle>
            <circle id="Oval" fill="#3884FF" cx="454.44641" cy="362.93641" r="11.57928"></circle>
            <circle id="Oval" fill="#3884FF" cx="969.27884" cy="362.93641" r="11.57928"></circle>
            <path d="M446.15228,167.12875 C458.93609,205.60239 454.44641,241.72675 454.44641,241.72675 C454.44641,241.72675 429.23008,215.47297 416.44627,176.99933 C403.66246,138.52569 408.15214,102.40133 408.15214,102.40133 C408.15214,102.40133 433.36847,128.6551 446.15228,167.12875 Z" id="Path" fill="#3884FF"></path>
            <path d="M462.74054,167.12875 C449.95673,205.60239 454.44641,241.72675 454.44641,241.72675 C454.44641,241.72675 479.66275,215.47297 492.44656,176.99933 C505.23037,138.52569 500.74068,102.40133 500.74068,102.40133 C500.74068,102.40133 475.52435,128.6551 462.74054,167.12875 Z" id="Path" fill="#3884FF"></path>
            <path d="M467.88938,167.54479 C468.74627,208.07765 453.79294,241.26679 453.79294,241.26679 C453.79294,241.26679 437.45031,208.73922 436.59341,168.20636 C435.73651,127.6735 450.68985,94.4843 450.68985,94.4843 C450.68985,94.4843 467.03248,127.01192 467.88938,167.54479 Z" id="Path" fill="#3F3D56"></path>
            <circle id="Oval" fill="#3884FF" cx="452.2414" cy="131.72289" r="3.96798"></circle>
            <circle id="Oval" fill="#3884FF" cx="444.52588" cy="163.46673" r="2.20443"></circle>
            <circle id="Oval" fill="#3F3D56" cx="417.63179" cy="141.64284" r="2.20443"></circle>
            <circle id="Oval" fill="#3F3D56" cx="495.4483" cy="120.25983" r="2.20443"></circle>
            <circle id="Oval" fill="#3F3D56" cx="429.09484" cy="162.36451" r="2.20443"></circle>
            <circle id="Oval" fill="#3F3D56" cx="475.38795" cy="149.5788" r="2.20443"></circle>
            <circle id="Oval" fill="#3F3D56" cx="430.4175" cy="194.76969" r="2.20443"></circle>
            <circle id="Oval" fill="#3F3D56" cx="477.59238" cy="182.20442" r="2.20443"></circle>
            <circle id="Oval" fill="#3884FF" cx="456.20938" cy="184.40885" r="2.20443"></circle>
            <polygon id="Path" fill="#3F3D56" points="468.178 266.779 467.672 264.843 585.942 233.953 536.733 45.548 322.95 101.386 359.42 241.014 357.484 241.52 320.51 99.956 538.163 43.107 538.416 44.075 588.383 235.382"></polygon>
            <path d="M881.15476,171.82304 C898.91482,225.27304 892.67747,275.45916 892.67747,275.45916 C892.67747,275.45916 857.64539,238.98579 839.88533,185.53582 C822.12527,132.08585 828.36261,81.8997 828.36261,81.8997 C828.36261,81.8997 863.3947,118.37307 881.15476,171.82304 Z" id="Path" fill="#3884FF"></path>
            <path d="M904.20019,171.82304 C886.44013,225.27304 892.67747,275.45916 892.67747,275.45916 C892.67747,275.45916 927.70956,238.98579 945.46962,185.53582 C963.22968,132.08585 956.99233,81.8997 956.99233,81.8997 C956.99233,81.8997 921.96024,118.37307 904.20019,171.82304 Z" id="Path" fill="#3884FF"></path>
            <path d="M911.35327,172.40103 C912.54373,228.71179 891.76964,274.82025 891.76964,274.82025 C891.76964,274.82025 869.06544,229.63095 867.87499,173.32025 C866.68454,117.00955 887.45862,70.90102 887.45862,70.90102 C887.45862,70.90102 910.16282,116.09025 911.35327,172.40103 Z" id="Path" fill="#3F3D56"></path>
            <circle id="Oval" fill="#3884FF" cx="889.61413" cy="122.63503" r="5.51256"></circle>
            <circle id="Oval" fill="#3884FF" cx="878.89526" cy="166.73554" r="3.06254"></circle>
            <circle id="Oval" fill="#3F3D56" cx="841.53232" cy="136.41644" r="3.06254"></circle>
            <circle id="Oval" fill="#3F3D56" cx="949.63982" cy="106.70985" r="3.06254"></circle>
            <circle id="Oval" fill="#3F3D56" cx="857.45751" cy="165.20428" r="3.06254"></circle>
            <circle id="Oval" fill="#3F3D56" cx="921.77075" cy="147.44157" r="3.06254"></circle>
            <circle id="Oval" fill="#3F3D56" cx="859.29503" cy="210.22355" r="3.06254"></circle>
            <circle id="Oval" fill="#3F3D56" cx="924.83329" cy="192.76709" r="3.06254"></circle>
            <circle id="Oval" fill="#3884FF" cx="895.12669" cy="195.82963" r="3.06254"></circle>
            <polygon id="Path" fill="#3F3D56" points="911.656 309.886 911.15 307.951 1075.834 264.937 1007.274 2.44 709.52 80.211 760.285 274.567 758.349 275.073 707.079 78.781 1008.704 0 1008.957 0.967 1078.276 266.367"></polygon>
            <path d="M99.42355,211.5087 C103.219135,223.351059 104.60695,235.833142 103.50528,248.22 C86.5103694,229.642309 78.2257671,204.709305 80.72285,179.65492 C89.0186518,188.919235 95.3770127,199.749729 99.42355,211.5087 L99.42355,211.5087 Z" id="Path" fill="#3884FF"></path>
            <path d="M107.587,211.5087 C103.791415,223.351058 102.403603,235.833143 103.50528,248.22 C120.500179,229.642302 128.784777,204.709302 126.2877,179.65492 C117.991898,188.919235 111.633537,199.749729 107.587,211.5087 L107.587,211.5087 Z" id="Path" fill="#3884FF"></path>
            <path d="M110.12085,211.71344 C110.251485,224.148505 107.892805,236.484025 103.18369,247.99368 C92.4301691,225.227053 91.8748545,198.959567 101.65659,175.75881 C106.847929,187.059156 109.725833,199.283968 110.12085,211.71344 Z" id="Path" fill="#3F3D56"></path>
            <polygon id="Path" fill="#3F3D56" points="114.146 272.979 113.64 271.043 204.57 247.293 166.76 102.534 2.44 145.452 30.49 252.842 28.554 253.348 0 144.022 168.19 100.093 207.01 248.723"></polygon>
            <circle id="Oval" fill="#3884FF" cx="922.07102" cy="87.70593" r="13.3607"></circle>
            <circle id="Oval" fill="#3F3D56" cx="860.61179" cy="94.83164" r="7.12571"></circle>
            <path d="M688.9887,262.46466 C688.9887,262.46466 672.4447,260.10123 664.1727,290.82582 C655.9007,321.55041 653.53727,323.91382 653.53727,323.91382 C653.53727,323.91382 701.98758,331.00411 703.16927,328.64068 C704.35096,326.27725 713.80471,269.55495 688.9887,262.46466 Z" id="Path" fill="#2F2E41"></path>
            <circle id="Oval" fill="#FFB8B8" cx="679.53498" cy="218.74121" r="31.9063"></circle>
            <path d="M665.3544,244.73894 C665.3544,244.73894 675.98983,271.91838 672.44469,275.46353 C668.89955,279.00868 716.16814,283.73553 716.16814,283.73553 C716.16814,283.73553 719.71329,266.00981 705.53271,255.37437 C705.53271,255.37437 699.62413,237.64865 700.80585,234.1035 C701.98757,230.55835 665.3544,244.73894 665.3544,244.73894 Z" id="Path" fill="#FFB8B8"></path>
            <path d="M693.71556,256.55609 C681.602236,261.130285 670.690563,268.404735 661.80926,277.82696 C647.62868,293.18925 640.53839,297.91611 640.53839,297.91611 C640.53839,297.91611 623.99439,303.82468 629.90295,332.18584 C632.85724,346.36642 630.78924,362.31957 627.98267,374.72758 C623.695527,393.983188 621.565169,413.656191 621.63095,433.38317 L621.63095,445.63047 C621.63095,445.63047 512.91318,673.70145 549.54634,689.06375 C586.1795,704.42605 619.26752,709.1529 621.63095,705.60775 C623.99438,702.0626 666.53611,517.71508 666.53611,517.71508 C666.53611,517.71508 678.35326,715.06147 707.89611,715.06147 C737.43896,715.06147 785.88929,706.78947 785.88929,706.78947 L725.62183,470.44647 C725.62183,470.44647 739.80241,430.26816 704.35096,401.907 L699.6241,388.90814 C719.22857,388.91814 728.19024,264.83846 707.8961,254.19264 C707.89614,254.19266 703.16928,250.64751 693.71556,256.55609 Z" id="Path" fill="#2F2E41"></path>
            <path d="M664.17268,320.36869 L647.62868,364.09214 L608.63208,445.63047 C608.63208,445.63047 590.90636,498.80764 605.08694,498.80764 C619.26752,498.80764 629.90294,447.9939 629.90294,447.9939 L673.62639,379.45444 L698.44239,318.00526 L664.17268,320.36869 Z" id="Path" fill="#FFB8B8"></path>
            <ellipse id="Oval" fill="#2F2E41" cx="585.58864" cy="703.24433" rx="20.68001" ry="11.81715"></ellipse>
            <ellipse id="Oval" fill="#2F2E41" cx="743.93844" cy="703.24433" rx="20.68001" ry="11.81715"></ellipse>
            <path d="M691.85217,173.99853 L691.85205,173.99853 C690.209276,174.001734 688.570706,174.16467 686.95947,174.48504 C684.048397,173.071857 680.855217,172.3359 677.61926,172.33233 L676.77148,172.33233 C660.42676,172.33233 647.17688,187.12243 647.17688,205.36694 L647.17688,205.367 L652.65357,205.367 L653.53809,198.63476 L654.83484,205.367 L659.3971,205.367 C657.978011,210.768936 657.265734,216.33215 657.2781,221.91736 L657.2781,255.54125 L665.55837,255.54125 L670.35237,243.0833 L669.15381,255.54125 L722.37694,255.54125 L726.7351,244.21587 L725.6455,255.54125 L731.63794,255.54125 L731.63794,229.14044 C731.63794,198.68646 713.8252,173.99853 691.85217,173.99853 Z" id="Path" fill="#2F2E41"></path>
        </g>
    </g>
</svg>