<svg width="1012" height="545" viewBox="0 0 1012 545" fill="none" xmlns="http://www.w3.org/2000/svg">
<path fill-rule="evenodd" clip-rule="evenodd" d="M40.5 265.5H1009.5V267.5H40.5V265.5Z" fill="#F5F5F5" stroke="#F5F5F5" stroke-width="4"/>
<path d="M139 246C97.026 246 63 211.974 63 170C63 128.026 97.026 94 139 94C180.974 94 215 128.026 215 170C214.953 211.954 180.954 245.953 139 246ZM139 96C98.13 96 65 129.13 65 170C65 210.87 98.13 244 139 244C179.87 244 213 210.87 213 170C212.954 129.15 179.85 96.046 139 96ZM139 78.5C113.084 78.5 92 61.341 92 40.25C92 19.159 113.084 2 139 2C164.916 2 186 19.159 186 40.25C186 61.341 164.916 78.5 139 78.5ZM139 3.628C114.187 3.628 94 20.056 94 40.25C94 60.444 114.187 76.872 139 76.872C163.813 76.872 184 60.444 184 40.25C184 20.056 163.813 3.628 139 3.628Z" fill="#F5F5F5" stroke="#F5F5F5" stroke-width="4"/>
<path d="M117 61C111.393 61 107 52.654 107 42C107 31.346 111.393 23 117 23C122.607 23 127 31.346 127 42C127 52.654 122.607 61 117 61ZM117 25C112.663 25 109 32.785 109 42C109 51.215 112.663 59 117 59C121.337 59 125 51.215 125 42C125 32.785 121.337 25 117 25ZM161 61C155.393 61 151 52.654 151 42C151 31.346 155.393 23 161 23C166.607 23 171 31.346 171 42C171 52.654 166.607 61 161 61ZM161 25C156.663 25 153 32.785 153 42C153 51.215 156.663 59 161 59C165.337 59 169 51.215 169 42C169 32.785 165.337 25 161 25ZM237 151C214.909 151 197 133.091 197 111C197 88.909 214.909 71 237 71C259.091 71 277 88.909 277 111C276.975 133.081 259.081 150.975 237 151ZM237 73C216.013 73 199 90.013 199 111C199 131.987 216.013 149 237 149C257.987 149 275 131.987 275 111C274.976 90.023 257.977 73.024 237 73ZM42 151C19.909 151 2 133.091 2 111C2 88.909 19.909 71 42 71C64.091 71 82 88.909 82 111C81.975 133.081 64.081 150.975 42 151ZM42 73C21.013 73 4 90.013 4 111C4 131.987 21.013 149 42 149C62.987 149 80 131.987 80 111C79.976 90.023 62.977 73.024 42 73ZM139 266C124.701 266 113.5 261.168 113.5 255C113.5 248.832 124.701 244 139 244C153.299 244 164.5 248.832 164.5 255C164.5 261.168 153.299 266 139 266ZM139 246C124.943 246 115.5 250.654 115.5 255C115.5 259.346 124.943 264 139 264C153.057 264 162.5 259.346 162.5 255C162.5 250.654 153.057 246 139 246ZM478 246C447.26 246 419.549 227.483 407.785 199.084C396.022 170.684 402.524 137.996 424.26 116.26C445.996 94.524 478.685 88.022 507.084 99.785C535.484 111.55 554 139.261 554 170C553.953 211.954 519.954 245.953 478 246ZM478 96C437.13 96 404 129.13 404 170C404 210.87 437.13 244 478 244C518.87 244 552 210.87 552 170C551.954 129.15 518.85 96.046 478 96Z" fill="#F5F5F5" stroke="#F5F5F5" stroke-width="4"/>
<path d="M478 96C452.043 96 431 74.957 431 49C431 23.043 452.043 2 478 2C503.957 2 525 23.043 525 49C524.97 74.945 503.945 95.97 478 96ZM478 4C453.147 4 433 24.147 433 49C433 73.853 453.147 94 478 94C502.853 94 523 73.853 523 49C522.972 24.159 502.841 4.028 478 4Z" fill="#F5F5F5" stroke="#F5F5F5" stroke-width="4"/>
<path d="M456 61C450.393 61 446 52.654 446 42C446 31.346 450.393 23 456 23C461.607 23 466 31.346 466 42C466 52.654 461.607 61 456 61ZM456 25C451.663 25 448 32.785 448 42C448 51.215 451.663 59 456 59C460.337 59 464 51.215 464 42C464 32.785 460.337 25 456 25ZM500 61C494.393 61 490 52.654 490 42C490 31.346 494.393 23 500 23C505.607 23 510 31.346 510 42C510 52.654 505.607 61 500 61ZM500 25C495.663 25 492 32.785 492 42C492 51.215 495.663 59 500 59C504.337 59 508 51.215 508 42C508 32.785 504.337 25 500 25ZM585 252C562.909 252 545 234.091 545 212C545 189.909 562.909 172 585 172C607.091 172 625 189.909 625 212C624.975 234.081 607.081 251.975 585 252ZM585 174C564.013 174 547 191.013 547 212C547 232.987 564.013 250 585 250C605.987 250 623 232.987 623 212C622.976 191.023 605.977 174.024 585 174ZM363.75 205C355.828 205.05 348.07 202.746 341.46 198.381C334.849 194.016 329.683 187.786 326.617 180.481C323.551 173.177 322.723 165.126 324.238 157.351C325.753 149.575 329.543 142.424 335.127 136.805C340.711 131.186 347.838 127.352 355.604 125.788C363.37 124.224 371.425 125.001 378.749 128.022C386.073 131.042 392.335 136.168 396.741 142.751C401.147 149.335 403.5 157.078 403.5 165C403.544 187.012 385.762 204.906 363.75 205ZM363.75 127C356.224 126.953 348.854 129.141 342.574 133.288C336.294 137.435 331.386 143.353 328.473 150.292C325.561 157.232 324.774 164.88 326.213 172.266C327.653 179.653 331.253 186.447 336.558 191.785C341.862 197.123 348.633 200.766 356.011 202.251C363.388 203.737 371.041 202.999 377.998 200.13C384.956 197.261 390.905 192.39 395.091 186.136C399.277 179.882 401.512 172.526 401.512 165C401.554 144.089 384.662 127.09 363.75 127ZM478 266C463.701 266 452.5 261.168 452.5 255C452.5 248.832 463.701 244 478 244C492.299 244 503.5 248.832 503.5 255C503.5 261.168 492.299 266 478 266ZM478 246C463.943 246 454.5 250.654 454.5 255C454.5 259.346 463.943 264 478 264C492.057 264 501.5 259.346 501.5 255C501.5 250.654 492.057 246 478 246ZM828 249C786.026 249 752 214.974 752 173C752 131.026 786.026 97 828 97C869.974 97 904 131.026 904 173C903.953 214.954 869.954 248.953 828 249ZM828 99C787.13 99 754 132.13 754 173C754 213.87 787.13 247 828 247C868.87 247 902 213.87 902 173C901.954 132.15 868.85 99.046 828 99Z" fill="#F5F5F5" stroke="#F5F5F5" stroke-width="4"/>
<path d="M868 106C842.043 106 821 84.957 821 59C821 33.043 842.043 12 868 12C893.957 12 915 33.043 915 59C914.97 84.945 893.945 105.97 868 106ZM868 14C843.147 14 823 34.147 823 59C823 83.853 843.147 104 868 104C892.853 104 913 83.853 913 59C912.972 34.159 892.841 14.028 868 14Z" fill="#F5F5F5" stroke="#F5F5F5" stroke-width="4"/>
<path d="M846 89C840.393 89 836 80.654 836 70C836 59.346 840.393 51 846 51C851.607 51 856 59.346 856 70C856 80.654 851.607 89 846 89ZM846 53C841.663 53 838 60.785 838 70C838 79.215 841.663 87 846 87C850.337 87 854 79.215 854 70C854 60.785 850.337 53 846 53ZM890 89C884.393 89 880 80.654 880 70C880 59.346 884.393 51 890 51C895.607 51 900 59.346 900 70C900 80.654 895.607 89 890 89ZM890 53C885.663 53 882 60.785 882 70C882 79.215 885.663 87 890 87C894.337 87 898 79.215 898 70C898 60.785 894.337 53 890 53ZM935 255C912.909 255 895 237.091 895 215C895 192.909 912.909 175 935 175C957.091 175 975 192.909 975 215C974.975 237.081 957.081 254.975 935 255ZM935 177C914.013 177 897 194.013 897 215C897 235.987 914.013 253 935 253C955.987 253 973 235.987 973 215C972.976 194.023 955.977 177.024 935 177ZM714 208C691.909 208 674 190.091 674 168C674 145.909 691.909 128 714 128C736.091 128 754 145.909 754 168C753.975 190.081 736.081 207.975 714 208ZM714 130C706.484 130 699.137 132.229 692.888 136.404C686.639 140.58 681.769 146.514 678.893 153.458C676.016 160.402 675.264 168.042 676.73 175.413C678.196 182.785 681.816 189.556 687.13 194.87C692.444 200.184 699.215 203.804 706.587 205.27C713.958 206.736 721.598 205.984 728.542 203.107C735.486 200.231 741.42 195.361 745.596 189.112C749.771 182.863 752 175.516 752 168C751.976 147.023 734.977 130.024 714 130ZM797.5 265C783.201 265 772 260.168 772 254C772 247.832 783.201 243 797.5 243C811.799 243 823 247.832 823 254C823 260.168 811.799 265 797.5 265ZM797.5 245C783.443 245 774 249.654 774 254C774 258.346 783.443 263 797.5 263C811.557 263 821 258.346 821 254C821 249.654 811.557 245 797.5 245Z" fill="#F5F5F5" stroke="#F5F5F5" stroke-width="4"/>
<path fill-rule="evenodd" clip-rule="evenodd" d="M364.025 49.028C332.735 15.868 263.883 28.846 263.191 28.981L262.809 27.019C263.512 26.881 333.44 13.702 365.48 47.655L364.025 49.028Z" fill="#F5F5F5" stroke="#F5F5F5" stroke-width="4"/>
<path fill-rule="evenodd" clip-rule="evenodd" d="M372 58C366.863 54.79 359.712 51.405 354.028 50.272L363.662 47.188L369.091 38.656C368.743 44.44 370.199 52.216 372 58ZM678.025 103.028C646.735 69.866 577.883 82.846 577.191 82.981L576.809 81.019C577.512 80.882 647.441 67.702 679.48 101.655L678.025 103.028V103.028Z" fill="#F5F5F5" stroke="#F5F5F5" stroke-width="4"/>
<path fill-rule="evenodd" clip-rule="evenodd" d="M686 112C680.863 108.79 673.712 105.405 668.028 104.272L677.662 101.188L683.091 92.656C682.743 98.441 684.199 106.216 686 112Z" fill="#F5F5F5" stroke="#F5F5F5" stroke-width="4"/>
<ellipse cx="209.955" cy="216.103" rx="18.4218" ry="77.0988" transform="rotate(-63.1683 209.955 216.103)" fill="url(#paint0_linear)"/>
<ellipse cx="223.403" cy="222.268" rx="9.89321" ry="60.0416" transform="rotate(-63.1683 223.403 222.268)" fill="url(#paint1_linear)"/>
<ellipse cx="146.153" cy="310.445" rx="18.4218" ry="77.0988" transform="rotate(-100.623 146.153 310.445)" fill="url(#paint2_linear)"/>
<ellipse cx="160.577" cy="307.161" rx="9.89321" ry="60.0416" transform="rotate(-100.623 160.577 307.161)" fill="url(#paint3_linear)"/>
<path fill-rule="evenodd" clip-rule="evenodd" d="M451.808 493.464L451.842 481.177C451.847 479.315 449.527 478.457 448.319 479.874L439.352 490.397L451.808 493.464Z" fill="url(#paint4_linear)"/>
<path fill-rule="evenodd" clip-rule="evenodd" d="M375.77 263.3C375.77 263.3 445.108 162.222 476.017 174.263C506.926 186.304 421.13 303.892 421.13 303.892L375.77 263.3Z" fill="url(#paint5_linear)"/>
<path fill-rule="evenodd" clip-rule="evenodd" d="M422.523 482.335C438.796 461.528 448.376 434.509 448.466 401.63C448.703 315.874 384.301 222.725 304.542 222.505C224.782 222.285 159.868 315.077 159.631 400.833C159.395 486.589 223.926 532.835 303.685 533.055C308.344 533.068 312.952 532.923 317.499 532.623L435.853 532.949C445.131 532.975 452.673 525.474 452.699 516.196L452.785 485.179C452.796 481.011 447.854 478.81 444.763 481.607L439.289 486.563L422.523 482.335Z" fill="url(#paint6_linear)"/>
<path fill-rule="evenodd" clip-rule="evenodd" d="M370.004 404.655L385.458 409.24C385.458 409.24 383.797 395.002 379.778 393.81C375.759 392.618 370.004 404.655 370.004 404.655Z" fill="url(#paint7_linear)"/>
<path fill-rule="evenodd" clip-rule="evenodd" d="M383.864 411.471L396.425 415.198C396.425 415.198 395.075 403.625 391.808 402.656C388.542 401.687 383.864 411.471 383.864 411.471Z" fill="url(#paint8_linear)"/>
<path d="M362.72 403.784C362.72 403.784 392.457 417.375 445.499 417.521" stroke="#52689E" stroke-width="3.6" stroke-linecap="round"/>
<path fill-rule="evenodd" clip-rule="evenodd" d="M242.837 419.523C242.837 419.523 206.932 536.721 173.836 534.484C140.74 532.248 187.406 394.37 187.406 394.37L242.837 419.523Z" fill="url(#paint9_linear)"/>
<circle opacity="0.1" cx="387.716" cy="334.716" r="44.3489" transform="rotate(-19.7285 387.716 334.716)" fill="white"/>
<circle opacity="0.1" cx="359.618" cy="274.278" r="29.5659" transform="rotate(-19.7285 359.618 274.278)" fill="white"/>
<circle cx="388.298" cy="334.99" r="33.4322" transform="rotate(-19.7285 388.298 334.99)" fill="white"/>
<path d="M416.785 316.719C419.022 321.302 414.671 315.717 408.614 319.287C401.883 322.574 403.8 328.733 401.562 324.151C399.325 319.568 400.919 314.19 405.123 312.138C409.327 310.085 414.548 312.137 416.785 316.719Z" fill="#331523"/>
<circle cx="359.989" cy="274.229" r="21.0623" transform="rotate(-19.7285 359.989 274.229)" fill="white"/>
<path d="M378.791 263.856C380.96 268.471 376.692 262.823 370.582 266.303C363.803 269.488 365.628 275.676 363.459 271.061C361.291 266.445 362.964 261.091 367.198 259.102C371.432 257.112 376.622 259.241 378.791 263.856Z" fill="#331523"/>
<defs>
<linearGradient id="paint0_linear" x1="191.533" y1="139.004" x2="191.533" y2="293.202" gradientUnits="userSpaceOnUse">
<stop stop-color="#617FE0"/>
<stop offset="1" stop-color="#95AFFF"/>
</linearGradient>
<linearGradient id="paint1_linear" x1="213.51" y1="162.226" x2="213.51" y2="282.31" gradientUnits="userSpaceOnUse">
<stop stop-color="#5475DE"/>
<stop offset="1" stop-color="#95AFFF"/>
</linearGradient>
<linearGradient id="paint2_linear" x1="127.731" y1="233.346" x2="127.731" y2="387.544" gradientUnits="userSpaceOnUse">
<stop stop-color="#617FE0"/>
<stop offset="1" stop-color="#95AFFF"/>
</linearGradient>
<linearGradient id="paint3_linear" x1="150.684" y1="247.119" x2="150.684" y2="367.203" gradientUnits="userSpaceOnUse">
<stop stop-color="#5475DE"/>
<stop offset="1" stop-color="#95AFFF"/>
</linearGradient>
<linearGradient id="paint4_linear" x1="450.536" y1="457.447" x2="462.199" y2="486.854" gradientUnits="userSpaceOnUse">
<stop stop-color="#FFDE9C"/>
<stop offset="1" stop-color="#FFAB52"/>
</linearGradient>
<linearGradient id="paint5_linear" x1="477.772" y1="181.071" x2="488.371" y2="263.96" gradientUnits="userSpaceOnUse">
<stop stop-color="#6784E3"/>
<stop offset="1" stop-color="#819CF3"/>
</linearGradient>
<linearGradient id="paint6_linear" x1="160.124" y1="222.106" x2="159.258" y2="536.186" gradientUnits="userSpaceOnUse">
<stop stop-color="#617FE0"/>
<stop offset="1" stop-color="#95AFFF"/>
</linearGradient>
<linearGradient id="paint7_linear" x1="368.633" y1="410.786" x2="368.826" y2="394.18" gradientUnits="userSpaceOnUse">
<stop stop-color="#FFDE9C"/>
<stop offset="1" stop-color="#FFAB52"/>
</linearGradient>
<linearGradient id="paint8_linear" x1="382.749" y1="416.454" x2="382.906" y2="402.956" gradientUnits="userSpaceOnUse">
<stop stop-color="#FFDE9C"/>
<stop offset="1" stop-color="#FFAB52"/>
</linearGradient>
<linearGradient id="paint9_linear" x1="170.124" y1="528.514" x2="135.201" y2="452.598" gradientUnits="userSpaceOnUse">
<stop stop-color="#6784E3"/>
<stop offset="1" stop-color="#819CF3"/>
</linearGradient>
</defs>
</svg>
