<?xml version="1.0" encoding="UTF-8"?>
<svg width="392px" height="765px" viewBox="0 0 392 765" version="1.1" xmlns="http://www.w3.org/2000/svg" xmlns:xlink="http://www.w3.org/1999/xlink">
    <!-- Generator: Sketch 61.1 (89650) - https://sketch.com -->
    <title>svg</title>
    <desc>Created with Sketch.</desc>
    <g id="Page-1" stroke="none" stroke-width="1" fill="none" fill-rule="evenodd">
        <g id="svg" fill-rule="nonzero">
            <circle id="Oval" fill="#2F2E41" cx="259.92456" cy="102.49553" r="17.43014"></circle>
            <path d="M264.78065,85.54517 C270.917048,85.5459823 276.60108,88.7730688 279.746531,94.0419884 C282.891982,99.310908 283.035534,105.845562 280.1245,111.24753 C284.245526,106.091425 285.099631,99.0494868 282.330711,93.0577126 C279.561792,87.0659384 273.645167,83.15289 267.047659,82.9500361 C260.45015,82.7471823 254.3043,86.2893454 251.1725,92.09969 C254.473119,87.9557983 259.482922,85.5427698 264.78065,85.54517 L264.78065,85.54517 Z" id="Path" fill="#2F2E41"></path>
            <circle id="Oval" fill="#2F2E41" cx="227.35383" cy="51.25756" r="51.20104"></circle>
            <path d="M187.16933,19.48974 C205.507989,-1.13450639 236.894566,-3.50914237 258.12748,14.12121 C257.7088,13.72321 257.29454,13.32199 256.85948,12.93521 C243.188235,0.781696797 224.071662,-3.15509016 206.710789,2.60779872 C189.349915,8.37068761 176.382271,22.9577324 172.692643,40.8741343 C169.003015,58.7905362 175.151945,77.3143675 188.82319,89.46788 C189.25819,89.85464 189.70519,90.21904 190.14952,90.58822 C170.153433,71.5666238 168.835221,40.1179988 187.16933,19.48974 Z" id="Path" fill="#2F2E41"></path>
            <circle id="Oval" fill="#A0616A" cx="226.91992" cy="69.04775" r="32.97694"></circle>
            <path d="M203.48894,79.46153 C203.48894,79.46153 207.82801,119.38098 200.88549,123.72006 C193.94297,128.05914 240.80495,134.13383 240.80495,134.13383 C240.80495,134.13383 233.86244,90.74311 251.21872,79.46153 L203.48894,79.46153 Z" id="Path" fill="#A0616A"></path>
            <path d="M245.14402,116.77753 C245.14402,116.77753 258.0661,110.74323 239.45566,112.89253 C220.84522,115.04183 204.78866,106.79763 204.78866,106.79763 C204.78866,106.79763 199.14986,101.15683 198.28205,107.23153 C197.41424,113.30623 200.88549,124.58782 181.79358,126.32345 C162.70167,128.05908 145.34538,122.85219 138.40287,135.86945 C131.46036,148.88671 134.93161,205.29459 134.93161,205.29459 C134.93161,205.29459 147.94882,252.15659 158.36261,259.09907 C168.7764,266.04155 259.89688,256.49563 259.89688,256.49563 L285.93131,209.63363 L285.93131,154.96133 C285.93131,154.96133 282.46006,135.86942 258.16131,141.07633 C258.16131,141.07633 242.54065,137.60507 243.40846,129.79475 C244.27627,121.98443 245.14402,116.77753 245.14402,116.77753 Z" id="Path" fill="#D0CDE1"></path>
            <path d="M187.86828,234.80027 L180.05795,229.59339 L171.37981,234.80027 C171.37981,234.80027 168.77637,254.76 158.36259,259.09907 L162.70167,288.60476 C162.70167,288.60476 152.28789,326.78859 160.09822,356.29427 C160.09822,356.29427 19.51231,673.04649 49.88581,690.40277 C80.25931,707.75905 161.83381,718.17283 167.90855,710.3625 C173.98329,702.55217 232.99462,393.61029 232.99462,393.61029 C232.99462,393.61029 213.90271,700.81653 267.70719,706.89124 C321.51167,712.96595 369.24146,707.75906 364.90239,699.08091 C360.56332,690.40276 309.36228,361.50116 309.36228,361.50116 C309.36228,361.50116 294.60941,284.26569 265.10375,268.64503 L269.30345,239.56378 L260.76468,238.27153 L247.74746,242.6106 C247.74746,242.6106 217.37396,256.49563 187.86828,234.80027 Z" id="Path" fill="#2F2E41"></path>
            <path d="M156.62697,125.45567 C162.557444,137.558103 164.675674,151.175302 162.70167,164.50732 C159.23041,186.20267 173.11541,240.00716 173.11541,240.00716 L183.52918,237.40372 C183.52918,237.40372 176.58666,192.27737 178.32229,181.8636 C180.05792,171.44983 180.05792,130.6626 171.37978,125.45567 C162.70164,120.24874 156.62697,125.45567 156.62697,125.45567 Z" id="Path" fill="#2F2E41"></path>
            <path d="M257.55083,143.49233 L261.19859,239.57325 L268.1411,243.91232 C268.1411,243.91232 278.12096,138.47289 272.9141,138.47289 L262.31946,138.47289 C261.010636,138.47289 259.759188,139.01014 258.85772,139.959021 C257.956252,140.907903 257.4838,142.185224 257.55083,143.49233 Z" id="Path" fill="#2F2E41"></path>
            <path d="M58.56395,686.0637 L45.54674,718.17283 C45.54674,718.17283 -15.20026,748.54633 3.89165,760.69573 C22.98356,772.84513 62.90302,752.8854 62.90302,752.8854 L70.71335,742.47163 L82.86275,743.33944 L101.95467,736.39693 L109.76499,695.60966 L58.56395,686.0637 Z" id="Path" fill="#2F2E41"></path>
            <path d="M332.79326,686.0637 L345.81048,718.17283 C345.81048,718.17283 406.55748,748.54633 387.46556,760.69573 C368.37364,772.84513 328.45419,752.8854 328.45419,752.8854 L320.64386,742.47163 L308.49446,743.33944 L289.40255,736.39693 L281.59222,695.60966 L332.79326,686.0637 Z" id="Path" fill="#2F2E41"></path>
            <circle id="Oval" fill="#3884FF" cx="177.88841" cy="233.49856" r="4.33907"></circle>
            <circle id="Oval" fill="#3884FF" cx="264.66984" cy="237.83763" r="4.33907"></circle>
            <polygon id="Path" fill="#2F2E41" points="198.716 27.827 198.716 60.804 206.353 60.804 216.072 50.39 214.771 60.804 248.529 60.804 246.446 50.39 250.611 60.804 255.992 60.804 255.992 27.827"></polygon>
            <ellipse id="Oval" fill="#A0616A" cx="193.50907" cy="62.10524" rx="2.60344" ry="4.77298"></ellipse>
            <ellipse id="Oval" fill="#A0616A" cx="260.33077" cy="62.10524" rx="2.60344" ry="4.77298"></ellipse>
            <circle id="Oval" fill="#3884FF" cx="214.50907" cy="308.32482" r="106.34237"></circle>
            <path d="M278.12096,237.40372 C278.12096,237.40372 238.63541,230.0273 236.03196,243.04451 C233.42851,256.06172 279.85658,250.42093 279.85658,250.42093 L278.12096,237.40372 Z" id="Path" fill="#A0616A"></path>
            <path d="M277.25315,148.01885 C277.25315,148.01885 371.84491,223.51869 354.48862,241.74279 C337.13233,259.96689 271.17841,254.76 271.17841,254.76 L275.51748,233.06465 L313.70131,228.72557 L294.60941,209.63366 L277.25312,211.36929 L277.25315,148.01885 Z" id="Path" fill="#D0CDE1"></path>
            <path d="M137.53505,273.85192 L149.68445,283.39792 C149.68445,283.39792 158.36259,310.30017 171.37981,302.48984 C184.39703,294.67951 159.23041,266.9094 159.23041,266.9094 L144.47757,261.70253 L137.53505,273.85192 Z" id="Path" fill="#A0616A"></path>
            <path d="M149.68442,134.13382 L137.56778,137.78012 C137.56778,137.78012 53.35703,200.0877 49.88578,217.44399 C46.41453,234.80028 66.37425,244.34623 66.37425,244.34623 L141.87409,279.92662 L149.68442,259.09907 L114.10404,240.87497 C114.10404,240.87497 116.70748,235.66809 106.29371,234.80027 C95.87994,233.93245 94.14431,222.65087 94.14431,222.65087 C94.14431,222.65087 114.97185,190.54175 126.25344,197.48426 C137.53503,204.42677 141.00628,209.63366 141.00628,209.63366 L149.68442,134.13382 Z" id="Path" fill="#D0CDE1"></path>
        </g>
    </g>
</svg>