<?xml version="1.0" encoding="UTF-8"?>
<svg width="863px" height="714px" viewBox="0 0 863 714" version="1.1" xmlns="http://www.w3.org/2000/svg" xmlns:xlink="http://www.w3.org/1999/xlink">
    <!-- Generator: Sketch 52.6 (67491) - http://www.bohemiancoding.com/sketch -->
    <title>swiper</title>
    <desc>Created with Sketch.</desc>
    <g id="Page-1" stroke="none" stroke-width="1" fill="none" fill-rule="evenodd">
        <g id="swiper" transform="translate(1.000000, 1.000000)">
            <ellipse id="Oval" fill="#F1F1F1" cx="441.40081" cy="640.71007" rx="97.11704" ry="11.06397"></ellipse>
            <polygon id="Path" fill="#F5F5F5" points="786.888 579.282 130.511 574.859 137.135 125.046 793.525 134.712"></polygon>
            <polygon id="Path" stroke="#3F3D56" stroke-width="2" fill="#3884FF" opacity="0.1" points="860.674 0.447 538.446 130.578 538.446 574.673 860.674 711"></polygon>
            <path d="M565.29866,479.65731 L796.64134,533.36187" id="Path" stroke="#FFFFFF" stroke-width="2"></path>
            <path d="M565.29866,444.5428 L796.64134,479.65731" id="Path" stroke="#FFFFFF" stroke-width="2"></path>
            <path d="M565.29866,407.36273 L796.64134,432.14944" id="Path" stroke="#FFFFFF" stroke-width="2"></path>
            <polygon id="Path" fill="#FF6584" points="767.724 281.285 767.724 334.989 581.823 322.596 581.823 281.285"></polygon>
            <polygon id="Path" fill="#000000" opacity="0.2" points="767.724 281.285 767.724 334.989 581.823 322.596 581.823 320.53 763.592 330.858 763.592 281.285"></polygon>
            <polygon id="Path" stroke="#3F3D56" stroke-width="2" fill="#3884FF" opacity="0.1" points="0 0.447 322.227 130.578 322.227 574.673 0 711"></polygon>
            <path d="M295.37504,479.65731 L64.03235,533.36187" id="Path" stroke="#FFFFFF" stroke-width="2"></path>
            <path d="M295.37504,444.5428 L64.03235,479.65731" id="Path" stroke="#FFFFFF" stroke-width="2"></path>
            <path d="M295.37504,407.36273 L64.03235,432.14944" id="Path" stroke="#FFFFFF" stroke-width="2"></path>
            <polygon id="Path" fill="#FF6584" points="92.95 281.285 92.95 334.989 278.851 322.596 278.851 281.285"></polygon>
            <polygon id="Path" fill="#000000" opacity="0.2" points="92.95 281.285 92.95 334.989 278.851 322.596 278.851 320.53 97.081 330.858 97.081 281.285"></polygon>
            <path d="M352.24944,166.53329 L513.85876,168.52115" id="Path" stroke="#3F3D56" stroke-width="2"></path>
            <polygon id="Path" fill="#3F3D56" points="358.775 174.794 360.158 173.346 353.017 166.545 360.323 159.919 358.977 158.438 350.081 166.509"></polygon>
            <polygon id="Path" fill="#3F3D56" points="507.132 176.619 505.786 175.137 513.091 168.514 505.951 161.71 507.333 160.263 516.028 168.55"></polygon>
            <circle id="Oval" fill="#3F3D56" cx="433.05411" cy="167.52723" r="13.52263"></circle>
            <path d="M414.97023,597.06887 C414.97023,597.06887 411.28223,613.05016 412.51157,619.1968 C413.74091,625.34344 413.7409,638.86608 413.7409,638.86608 L417.4289,638.86608 L417.4289,624.11408 C417.4289,624.11408 427.26354,629.0314 429.7222,636.40738 C432.18086,643.78336 457.99678,641.3247 459.22611,638.86604 C460.45544,636.40738 446.93281,631.49004 446.93281,631.49004 L435.86881,598.29814 L414.97023,597.06887 Z" id="Path" fill="#2F2E41"></path>
            <path d="M406.36492,452.008 C406.36492,452.008 412.51157,474.13594 412.51157,482.74124 C412.51157,491.34654 407.59425,601.98624 412.51157,601.98624 C417.42889,601.98624 437.09816,604.4449 438.32749,599.52758 C439.55682,594.61026 435.86883,549.12506 438.32749,544.20775 C440.78615,539.29044 457.99677,434.79741 456.76749,433.56808 C455.53821,432.33875 412.51157,428.65071 406.36492,452.008 Z" id="Path" fill="#2F2E41"></path>
            <path d="M403.90626,431.10937 C403.90626,431.10937 392.84226,460.61328 402.67693,460.61328 C412.5116,460.61328 418.65822,452.00797 426.0342,454.46663 C433.41018,456.92529 455.53811,426.19205 455.53811,426.19205 L403.90626,431.10937 Z" id="Path" fill="#3F3D56"></path>
            <circle id="Oval" fill="#FFB9B9" cx="450.00612" cy="287.89247" r="19.66927"></circle>
            <path d="M459.84076,294.03911 C459.84076,294.03911 451.23545,322.3137 453.69411,326.00168 C456.15277,329.68966 430.33685,324.77235 430.33685,324.77235 C430.33685,324.77235 438.94216,301.41509 437.71285,296.49777 C436.48354,291.58045 459.84076,294.03911 459.84076,294.03911 Z" id="Path" fill="#FFB9B9"></path>
            <path d="M445.70347,313.09372 C445.70347,313.09372 434.63947,309.40572 430.95147,313.09372 C427.26347,316.78172 413.74086,404.06412 405.13555,412.66942 C396.53024,421.27472 390.3836,433.56803 397.75955,434.79736 C405.1355,436.02669 465.37268,443.40267 467.83134,439.71468 C470.29,436.02669 469.67534,399.76146 468.44601,391.15616 C467.21668,382.55086 457.99677,314.32305 445.70347,313.09372 Z" id="Path" fill="#3884FF"></path>
            <polygon id="Path" fill="#FFB9B9" points="435.869 434.797 440.786 447.091 451.85 438.485 450.621 429.88"></polygon>
            <path d="M430.33685,333.37766 C430.33685,333.37766 429.72219,318.01104 422.34621,337.68032 C414.97023,357.3496 398.98894,383.16551 412.51157,402.83479 C426.0342,422.50407 426.40787,431.08643 432.79551,430.4947 C439.18315,429.90297 459.2261,437.25602 459.2261,434.79736 C459.2261,432.3387 435.86885,394.22948 435.86885,394.22948 C434.64076,387.066447 436.927334,379.749412 442.0155,374.56021 C450.62079,365.9549 446.31814,337.06565 430.33685,333.37766 Z" id="Path" fill="#000000" opacity="0.1"></path>
            <path d="M438.32749,318.011 C438.32749,318.011 424.80487,315.55234 417.42889,335.22162 C410.05291,354.8909 394.07163,380.70681 407.59425,400.37609 C421.11687,420.04537 428.01087,439.66876 434.39851,439.07703 C440.78615,438.4853 454.30878,434.79732 454.30878,432.33866 C454.30878,429.88 430.95151,391.77078 430.95151,391.77078 C429.723426,384.607747 432.01,377.290716 437.09816,372.10151 C445.70347,363.49624 454.30878,321.699 438.32749,318.011 Z" id="Path" fill="#3884FF"></path>
            <path d="M443.90952,258.4583 C433.79503,257.02925 423.82222,263.43885 418.22847,271.98608 C412.63472,280.53331 410.6078,290.87942 409.13426,300.98754 C408.838948,304.041807 408.139287,307.043324 407.05363,309.91336 C404.60881,315.52851 399.07269,319.76848 398.17163,325.82612 C397.60163,329.65767 399.02934,333.46227 399.77511,337.26351 C401.75611,347.36081 398.82093,357.97962 393.43634,366.7481 C391.03258,370.66247 387.52848,374.6169 382.9371,374.7571 L392.55876,376.24866 C390.932682,379.805036 388.116624,382.682557 384.59618,384.38503 C408.250939,381.416807 426.289394,361.776652 427.23943,337.95533 C427.37835,334.4719 427.20931,330.73384 429.10155,327.80588 C430.73848,325.27298 433.5953,323.86777 436.19155,322.33322 C445.11142,317.06092 452.5644,308.31885 453.75503,298.02566 C454.27831,293.50136 453.5877,288.97405 453.40903,284.45247 C453.22076,279.68799 461.22133,276.47237 462.29952,271.9112 C463.93803,264.97924 450.2746,259.3576 443.90952,258.4583 Z" id="Path" fill="#2F2E41"></path>
        </g>
    </g>
</svg>