<?xml version="1.0" encoding="UTF-8"?>
<svg width="840px" height="835px" viewBox="0 0 840 835" version="1.1" xmlns="http://www.w3.org/2000/svg" xmlns:xlink="http://www.w3.org/1999/xlink">
    <!-- Generator: Sketch 52.6 (67491) - http://www.bohemiancoding.com/sketch -->
    <title>the-heart-of-the-matter</title>
    <desc>Created with Sketch.</desc>
    <g id="Page-1" stroke="none" stroke-width="1" fill="none" fill-rule="evenodd">
        <g id="the-heart-of-the-matter">
            <path d="M569.34683,224.36874 C579.420223,229.68604 589.26701,235.127267 598.88719,240.69242" id="Path" stroke="#2F2E41"></path>
            <path d="M381.88483,191.42139 C425.82392,200.92239 473.79483,217.32396 522.12046,240.47163 C557.122909,257.126222 590.615838,276.783542 622.22317,299.22287" id="Path" stroke="#2F2E41"></path>
            <path d="M340.77035,184.38941 C353.97404,186.01279 367.71993,188.35851 381.88483,191.42141" id="Path" stroke="#2F2E41"></path>
            <path d="M211.55509,322.15484 C187.16115,286.45575 178.78121,252.72691 191.31457,226.56084 C205.17699,197.62012 242.28357,182.81584 292.58306,181.72546" id="Path" stroke="#2F2E41"></path>
            <path d="M725.25293,401.89082 C745.5856,434.62197 751.89405,465.30854 740.29693,489.51997 C730.0914,510.82617 707.28773,524.4705 675.89647,530.62161" id="Path" stroke="#2F2E41"></path>
            <path d="M622.22317,299.22287 C642.59977,313.674311 661.860344,329.638172 679.84185,346.97932" id="Path" stroke="#2F2E41"></path>
            <path d="M198.04846,139.8882 C238.54036,131.1892 290.93912,132.73554 349.54194,144.28736" id="Path" stroke="#2F2E41"></path>
            <path d="M787.38617,401.88708 C805.5139,428.36694 816.66268,453.9915 819.57663,477.3272" id="Path" stroke="#2F2E41"></path>
            <path d="M598.88719,240.69237 C617.07003,251.205343 634.3698,262.078517 650.7865,273.31189" id="Path" stroke="#2F2E41"></path>
            <path d="M522.64162,270.64735 L533.39617,270.64735 C533.39617,270.64735 543.25451,346.82543 536.08481,353.99513 C528.91511,361.16483 509.19843,365.64589 506.50981,353.99513 C503.82119,342.34437 506.50981,299.32613 506.50981,299.32613 L522.64162,270.64735 Z" id="Path" fill="#3884FF"></path>
            <ellipse id="Oval" fill="#2F2E41" cx="452.28893" cy="204.32762" rx="65.42352" ry="76.62618"></ellipse>
            <path d="M437.50142,218.66702 C437.50142,218.66702 441.08627,248.24202 430.33172,254.51552 C419.57717,260.78902 442.87872,296.63752 442.87872,296.63752 L470.66132,303.80722 L489.48178,277.81705 L485.89693,250.93067 C485.89693,250.93067 464.38783,229.42157 474.24617,209.70489 L437.50142,218.66702 Z" id="Path" fill="#9E616A"></path>
            <path d="M437.50142,218.66702 C437.50142,218.66702 441.08627,248.24202 430.33172,254.51552 C419.57717,260.78902 442.87872,296.63752 442.87872,296.63752 L470.66132,303.80722 L489.48178,277.81705 L485.89693,250.93067 C485.89693,250.93067 464.38783,229.42157 474.24617,209.70489 L437.50142,218.66702 Z" id="Path" fill="#000000" opacity="0.1"></path>
            <path d="M397.17185,539.70854 C397.17185,539.70854 386.4173,637.39572 397.17185,660.69725 C407.9264,683.99878 436.60521,749.4223 436.60521,749.4223 L427.64308,768.24274 L451.84082,762.86546 L461.69916,744.045 C461.69916,744.045 450.0484,698.33815 448.25597,682.20632 C446.46354,666.07449 433.02035,636.49951 433.02035,636.49951 L458.11435,529.8502 L397.17185,539.70854 Z" id="Path" fill="#9E616A"></path>
            <path d="M482.31205,523.37932 C482.31205,523.37932 483.20826,621.96271 489.48175,637.25472 L485.8969,770.79041 L505.61358,773.42265 C505.61358,773.42265 534.29235,661.39607 529.81135,634.50974 C525.33035,607.62341 530.70756,510.83239 530.70756,510.83239 L482.31205,523.37932 Z" id="Path" fill="#9E616A"></path>
            <circle id="Oval" fill="#9E616A" cx="452.28893" cy="196.70981" r="34.05608"></circle>
            <path d="M568.34847,535.9263 C568.34847,535.9263 544.15072,552.05812 534.29239,540.40736 C524.43406,528.7566 403.44539,547.57706 388.20972,543.99221 C372.97405,540.40736 396.27564,483.04975 396.27564,453.47473 C396.27564,431.34724 404.30564,397.68549 408.34764,382.12726 C409.7099,376.89335 410.61508,373.71181 410.61508,373.71181 C410.61508,373.71181 419.81023,347.55136 418.08957,336.68029 C417.972994,335.85631 417.746945,335.051579 417.41741,334.28742 C417.273917,333.967696 417.096628,333.664242 416.88857,333.38224 C412.59567,327.65542 400.29069,285.89194 395.51392,267.95871 C394.734266,265.304754 394.091129,262.612587 393.58704,259.8928 C393.58704,257.20416 426.74691,249.13825 435.03687,248.75288 C443.33581,248.36752 445.56737,259.8928 445.56737,259.8928 C448.25601,261.68522 460.80299,293.05267 460.80299,293.05267 L472.45375,263.47767 C472.45375,263.47767 471.55754,257.20418 470.66133,257.20418 C469.76512,257.20418 483.91633,248.74393 483.91633,248.74393 C483.91633,248.74393 498.4439,258.99661 506.50981,257.20418 C514.57572,255.41175 533.39619,271.54358 533.39619,271.54358 C533.39619,271.54358 500.23632,354.89136 513.67951,372.81558 C527.1227,390.7398 568.34847,535.9263 568.34847,535.9263 Z" id="Path" fill="#3884FF"></path>
            <path d="M459.01052,740.46018 C459.01052,740.46018 443.77491,755.69579 443.77491,757.48818 L431.22791,752.1109 C431.22791,752.1109 425.85063,771.82758 424.95442,774.51622 C424.05821,777.20486 408.82259,801.4026 393.58698,812.15715 C378.35137,822.9117 393.58698,836.35489 407.03017,833.66625 C420.47336,830.97761 454.52944,800.50638 454.52944,800.50638 C454.52944,800.50638 477.83097,800.50638 485.89688,782.58213 C485.8969,782.58217 464.3878,738.66774 459.01052,740.46018 Z" id="Path" fill="#2F2E41"></path>
            <path d="M503.82116,766.30935 C503.82116,766.30935 480.79777,749.58102 479.31438,765.11488 C477.83099,780.64874 477.83099,814.70483 477.83099,814.70483 C477.83099,814.70483 470.66129,837.11015 493.0666,834.42151 C515.47191,831.73287 517.26434,825.45938 517.26434,825.45938 L506.50979,782.44117 L506.50979,763.62074 L503.82116,766.30935 Z" id="Path" fill="#2F2E41"></path>
            <path d="M416.88853,333.38224 C412.59563,327.65542 400.29065,285.89194 395.51388,267.95871 L399.86049,267.95871 C399.86049,267.95871 410.77635,310.68116 417.41735,334.28742 C417.273864,333.967697 417.096581,333.664243 416.88853,333.38224 Z" id="Path" fill="#000000" opacity="0.1"></path>
            <path d="M476.03856,392.53227 C476.03856,392.53227 463.49156,393.42848 417.78474,384.46636 C414.599744,383.854692 411.449573,383.073887 408.3476,382.12726 C409.70986,376.89335 410.61504,373.71181 410.61504,373.71181 C410.61504,373.71181 419.81019,347.55136 418.08953,336.68029 C420.23138,344.20845 421.82667,349.29001 422.2658,349.51406 C424.05823,350.41028 481.4158,360.26862 489.4818,363.85347 C497.5478,367.43832 476.03856,392.53227 476.03856,392.53227 Z" id="Path" fill="#000000" opacity="0.1"></path>
            <path d="M492.17035,275.2369 C492.17035,275.2369 516.88989,272.1869 518.42142,276.1949 C519.95295,280.2029 526.22642,318.93844 528.91507,323.90453 C531.60372,328.87062 532.49992,359.66035 521.74537,360.65353 C510.99082,361.64671 496.65137,350.72136 499.34005,341.7824 C502.02873,332.84344 492.17035,275.2369 492.17035,275.2369 Z" id="Path" fill="#000000" opacity="0.1"></path>
            <path d="M479.62341,357.57998 C479.62341,357.57998 517.26434,362.06104 523.53783,357.57998 C529.81132,353.09892 555.80149,353.09892 550.42421,365.64589 C545.04693,378.19286 498.44388,379.08908 498.44388,379.08908 L471.5575,379.08908 L479.62341,357.57998 Z" id="Path" fill="#9E616A"></path>
            <path d="M399.86049,261.68522 L393.587,261.68522 C393.587,261.68522 381.04,264.37386 382.83245,303.80722 C384.6249,343.24058 372.0779,369.23074 417.78474,378.19287 C463.49158,387.155 476.03856,386.25878 476.03856,386.25878 C476.03856,386.25878 497.54767,361.16478 489.48175,357.57998 C481.41583,353.99518 424.05823,344.13679 422.26575,343.24058 C420.47327,342.34437 399.86049,261.68522 399.86049,261.68522 Z" id="Path" fill="#3884FF"></path>
            <path d="M517.7327,279.37432 C517.7327,279.37432 502.0287,220.45944 489.48175,220.45944 C476.9348,220.45944 462.59537,223.14808 473.34992,234.79885 C484.10447,246.44962 497.54767,258.99659 498.44392,265.27008 C499.34017,271.54357 502.92498,280.50569 502.92498,280.50569 L517.7327,279.37432 Z" id="Path" fill="#9E616A"></path>
            <path d="M495.75524,275.2369 C495.75524,275.2369 520.47478,272.1869 522.00631,276.1949 C523.53784,280.2029 529.81131,318.93844 532.49996,323.90453 C535.18861,328.87062 536.08481,359.66035 525.33026,360.65353 C514.57571,361.64671 500.23626,350.72136 502.92494,341.7824 C505.61362,332.84344 495.75524,275.2369 495.75524,275.2369 Z" id="Path" fill="#3884FF"></path>
            <circle id="Oval" fill="#2F2E41" cx="443.3268" cy="164.44615" r="32.26366"></circle>
            <path d="M573.33715,529.16734 C523.26934,520.91542 466.6281,502.97753 409.49104,475.60923 C344.43441,444.44752 289.30714,406.12401 250.02604,367.39271" id="Path" stroke="#2F2E41"></path>
            <path d="M370.33656,492.46524 C325.54456,469.25905 284.99305,443.4594 250.02427,416.59856" id="Path" stroke="#2F2E41"></path>
            <circle id="Oval" fill="#3884FF" cx="53.70022" cy="76.07809" r="53.70022"></circle>
            <circle id="Oval" stroke="#2F2E41" cx="66.29657" cy="54.20022" r="53.70022"></circle>
            <circle id="Oval" fill="#F5F5F5" cx="800.31415" cy="270.04378" r="31.24377"></circle>
            <circle id="Oval" stroke="#2F2E41" cx="807.64293" cy="257.31484" r="31.24377"></circle>
            <circle id="Oval" fill="#F5F5F5" cx="230.36251" cy="595.72871" r="44.91291"></circle>
            <circle id="Oval" stroke="#2F2E41" cx="240.89764" cy="577.43086" r="44.91291"></circle>
        </g>
    </g>
</svg>