<?xml version="1.0" encoding="UTF-8"?>
<svg width="1011px" height="709px" viewBox="0 0 1011 709" version="1.1" xmlns="http://www.w3.org/2000/svg" xmlns:xlink="http://www.w3.org/1999/xlink">
    <!-- Generator: Sketch 52.6 (67491) - http://www.bohemiancoding.com/sketch -->
    <title>timing</title>
    <desc>Created with Sketch.</desc>
    <defs>
        <linearGradient x1="49.98833%" y1="100.00047%" x2="49.98833%" y2="-0.00720250172%" id="linearGradient-1">
            <stop stop-color="#808080" stop-opacity="0.25" offset="0%"></stop>
            <stop stop-color="#808080" stop-opacity="0.12" offset="54%"></stop>
            <stop stop-color="#808080" stop-opacity="0.1" offset="100%"></stop>
        </linearGradient>
    </defs>
    <g id="Page-1" stroke="none" stroke-width="1" fill="none" fill-rule="evenodd">
        <g id="timing">
            <path d="M587.24,111.4 C522.52,109.15 460.88,88.26 402.01,65.4 C343.14,42.54 284.85,17.21 221.68,5.15 C181.05,-2.64 134.59,-3.74 101.85,18.04 C70.35,39.04 60.17,75.19 54.69,108.76 C50.58,134.03 48.15,160.61 59.44,184.26 C67.27,200.68 81.18,214.48 90.8,230.21 C124.26,284.93 100.61,352.41 64.34,405.84 C47.34,430.9 27.6,454.84 14.47,481.5 C1.34,508.16 -4.73,538.75 6.75,565.97 C18.14,592.97 45.27,613.21 74.65,627.46 C134.34,656.4 204.65,664.69 273.27,669.38 C425.09,679.77 577.73,675.27 729.95,670.77 C786.29,669.1 842.87,667.41 898.29,658.7 C929.07,653.86 960.85,646.18 983.19,627.7 C1011.55,604.17 1018.58,564.32 999.58,534.82 C967.7,485.33 879.58,473.03 857.27,419.92 C845,390.69 857.6,358.12 875.42,331.01 C913.66,272.84 977.75,221.82 981.13,155.33 C983.45,109.67 952.64,63.94 905,42.33 C855.06,19.68 785.82,22.53 749,60.02 C711.04,98.53 644.38,113.38 587.24,111.4 Z" id="Path" fill="#F5F5F5"></path>
            <path d="M926.27,667.15 C925.27,663.53 924.27,659.86 922.27,656.71 C920.414776,654.036624 918.208319,651.624994 915.71,649.54 C908.46,642.95 899.55,636.26 889.94,637.93 C886.959615,638.58126 884.080438,639.630679 881.38,641.05 C879.98,641.7 878.57,642.35 877.13,642.9 C873.072949,644.594747 868.589335,644.986146 864.3,644.02 C862.1,643.43 860.05,642.37 857.88,641.71 C856.845981,641.401393 855.789433,641.174035 854.72,641.03 C856.814988,640.081499 858.851895,639.009618 860.82,637.82 C871.61,631.15 880.22,619.15 879.01,606.45 C878.61,602.15 877.13,598.04 875.67,593.99 C874.39,590.45 873.106667,586.906667 871.82,583.36 C870.16,578.75 868.45,574.06 865.41,570.23 C862.03,565.97 857.23,563.08 852.27,560.92 C841.61,556.29 829.96,554.66 818.46,553.08 L817.66,552.97 L817.66,428.73 C817.673315,426.599618 816.836342,424.551918 815.334606,423.040796 C813.832869,421.529673 811.790423,420.679958 809.66,420.68 L794.53,420.68 C793.863333,416.6 793.196667,412.523333 792.53,408.45 C790.62,396.84 788.65,385 783.3,374.54 C779.8,367.69 774.22,361.17 766.71,359.82 C765.231643,359.682078 763.778588,359.345723 762.39,358.82 C760.19,357.74 758.99,355.34 757.29,353.56 C752.93,348.99 745.84,348.92 739.99,346.56 C734.83,344.51 730.61,340.64 725.91,337.67 C721.21,334.7 715.36,332.58 710.15,334.52 C710.15,334.9 710.08,335.27 710.04,335.65 L706.7,334.15 C703.1,332.49 699.42,330.77 696.53,328.03 C692.81,324.52 690.83,319.89 689.29,314.95 C689.13,314.43 688.98,313.95 688.83,313.4 C695.220507,306.869897 699.547049,298.602862 701.27,289.63 C701.54,290.5 701.82,291.38 702.09,292.26 C702.335934,293.154585 702.670943,294.022258 703.09,294.85 C703.228827,295.123546 703.385846,295.387471 703.56,295.64 C703.889948,296.130874 704.302768,296.560612 704.78,296.91 C705.253637,297.254817 705.808125,297.471791 706.39,297.54 C706.668614,297.579394 706.951386,297.579394 707.23,297.54 C708.764561,297.215701 710.029782,296.134992 710.59,294.67 C710.749472,294.276851 710.866795,293.867897 710.94,293.45 C710.978647,293.198311 711.002023,292.944514 711.01,292.69 C711.01,292.61 711.01,292.53 711.01,292.45 C711.01,292.37 711.01,292.1 711.01,291.93 C711.01,291.76 711.01,291.74 711.01,291.65 C711.01,291.56 711.01,291.31 711.01,291.15 L711.01,290.89 C711.01,290.69 710.95,290.49 710.91,290.3 C710.87,290.11 710.91,290.19 710.91,290.14 C710.86,289.88 710.8,289.63 710.75,289.37 C710.745175,289.313436 710.745175,289.256564 710.75,289.2 L710.6,288.57 L710.51,288.19 L710.51,288.09 C710.41,287.7 710.32,287.3 710.23,286.9 C709.503122,283.426054 709.317598,279.860625 709.68,276.33 C710.282461,271.150849 711.238018,266.018902 712.54,260.97 L712.75,260.06 L712.99,259 C713.15,258.28 713.3,257.56 713.45,256.84 C713.58,256.23 713.7,255.61 713.81,254.99 C713.92,254.37 714,253.9 714.08,253.35 C714.08,253.28 714.08,253.22 714.08,253.15 C714.691024,249.422834 714.855518,245.636112 714.57,241.87 C714.1,236.64 712.48,231.69 708.92,227.74 C706.41,224.95 703.11,222.89 700.78,219.96 C698.59,217.21 697.36,213.83 695.1,211.14 C688.85,203.68 672.82,197.93 662.98,196.93 C651.71,195.79 633.5,198.67 624.42,205.33 C621.06,207.79 618.76,211.33 616.42,214.7 C612.12,220.96 607.23,227.2 600.34,230.7 C597.73,232.02 594.75,233.02 593.02,235.32 C591.974751,236.879264 591.291411,238.652532 591.02,240.51 C589.690715,247.02725 589.000777,253.658694 588.96,260.31 C588.810552,263.219339 589.183094,266.131939 590.06,268.91 C590.2,269.29 590.37,269.68 590.55,270.05 C590.71,270.38 590.89,270.71 591.08,271.05 L591.2,271.26 C592.40692,272.992468 593.480029,274.814412 594.41,276.71 C594.630217,277.244117 594.79118,277.80078 594.89,278.37 C595.06144,279.838264 594.966588,281.325414 594.61,282.76 C594.61,282.98 594.53,283.19 594.48,283.4 L594.39,283.86 C594.39,284 594.39,284.15 594.31,284.29 C594.23,284.723333 594.16,285.153333 594.1,285.58 C594.1,285.88 594.04,286.19 594.03,286.5 C593.959122,287.738572 594.196183,288.975411 594.72,290.1 C594.85152,290.368048 595.008935,290.622592 595.19,290.86 C595.548285,291.339516 596.009622,291.732507 596.54,292.01 C597.731441,292.457691 598.97458,292.753357 600.24,292.89 C603.98,293.73 606.32,296.59 607.84,300.1 C608.177034,300.887844 608.474079,301.692201 608.73,302.51 C609.353709,304.561811 609.821705,306.657761 610.13,308.78 C611.83,308.69 612.82,307.19 613.42,305.55 C613.607606,305.009287 613.764522,304.45841 613.89,303.9 C614.12,302.85 614.35,301.8 614.59,300.75 C618.537317,309.125361 624.895587,316.131297 632.85,320.87 C633.13,321.69 633.4,322.52 633.65,323.36 C634.96,327.89 635.59,332.64 633.32,336.6 C631.7,339.41 628.97,341.15 625.93,342.35 C625.492564,341.762336 624.928676,341.280468 624.28,340.94 C621.64,339.62 618.48,341.23 616.28,343.2 C612.28,346.82 609.02,352.01 603.75,353.2 C601.85,353.64 599.75,353.55 598.16,354.71 C597.113002,355.694691 596.237649,356.847183 595.57,358.12 C593.247461,361.452393 589.388975,363.374099 585.33,363.22 C583.5,363.13 581.33,362.71 580.08,364.05 C579.15,365.05 579.08,366.64 578.08,367.59 C576.73,368.91 574.54,368.26 572.66,368.18 C569.914779,368.187151 567.293219,369.322557 565.41,371.32 C565.291916,367.285283 563.747054,363.423128 561.05,360.42 C558.35,357.64 554.6,356.21 551.4,354.03 C543.4,348.59 539.4,339.03 535.23,330.27 C531.06,321.51 525.56,312.27 516.46,309.08 C514.37,308.34 511.46,308.28 510.52,310.31 C510.20033,311.157241 510.14798,312.082097 510.37,312.96 C511.25,317.62 514.57,321.36 517.44,325.11 C522.27,331.43 526.32,339.16 525.15,347.06 C523.78,356.41 515.45,363.67 514.45,373.06 C514.01,377.2 515.06,381.36 515.05,385.52 C515.05,388.12 514.64,390.75 515.2,393.28 C515.794756,395.202117 516.499246,397.088547 517.31,398.93 C518.211242,401.951729 518.675941,405.086766 518.69,408.24 C519.396667,421.493333 520.1,434.75 520.8,448.01 C521.33,457.9 519.17,467.66 516.99,477.39 C514.287112,483.157632 512.18924,489.189854 510.73,495.39 C508.27,506.22 508.2,517.76 511.73,528.3 C513.62,534.03 516.52,539.4 518.07,545.23 C518.07,545.36 518.13,545.48 518.16,545.6 C518.31,546.84 518.48,548.08 518.71,549.31 C518.994301,550.731257 519.364989,552.133859 519.82,553.51 C520.273677,555.880321 521.012374,558.187071 522.02,560.38 C523.422459,563.165565 525.4817,565.568013 528.02,567.38 C526.58,570.2 524.25,572.47 522.7,575.23 C520,580.01 519.89,585.88 520.87,591.3 C522.76,601.76 528.41,611.11 535.87,618.71 C535.536944,618.690783 535.203056,618.690783 534.87,618.71 C532.429629,618.979883 530.086738,619.819077 528.03,621.16 C512.24,630.39 503.21,650.16 506.51,668.26 C507.16,671.8 508.29,675.38 510.65,678.07 C512.614846,680.211591 515.140224,681.760073 517.94,682.54 C519.688647,683.066231 521.489146,683.40152 523.31,683.54 C535.62,684.54 547.54,678.83 559.88,678.35 C563.971209,678.285355 568.062471,678.475724 572.13,678.92 C578.07,679.413333 584.023333,679.726667 589.99,679.86 C599.68,680.09 605.14,677.51 611.33,670.26 C612.85119,668.460837 614.119574,666.462376 615.1,664.32 C620.36,664.02 626.17,663.56 630.38,663.21 L630.44,663.8 C630.67,665.8 631.02,668.1 632.62,669.37 C633.523492,669.982339 634.545576,670.397987 635.62,670.59 C645.73,673.08 655.96,675.59 666.36,675.59 C671.244062,675.488544 676.118493,675.111276 680.96,674.46 L699.26,672.35 C704.585396,673.035388 709.841612,674.179644 714.97,675.77 C720.25,677.57 725.19,680.24 730.35,682.34 C742.35,687.21 755.27,688.95 768.06,690.65 C770.24,690.94 772.74,691.14 774.36,689.65 C776.44,687.65 775.74,684.3 775.16,681.5 C774.92,680.36 774.74,679.2 774.59,678.04 C783.223065,680.309187 791.668138,683.241225 799.85,686.81 L801.29,687.44 C801.7,689.62 803.72,691.37 805.65,693.72 C806.283585,694.708824 807.024773,695.624409 807.86,696.45 C808.811591,697.077161 809.897633,697.471151 811.03,697.6 C824.544602,700.116262 838.343701,700.738904 852.03,699.45 C854.829741,699.069348 857.660749,698.972189 860.48,699.16 C862.549843,699.440361 864.591034,699.902138 866.58,700.54 L878.16,703.85 C886.69,706.3 895.44,708.77 904.29,708.22 C906.087282,708.102271 907.872674,707.844827 909.63,707.45 C916.63,705.83 923.16,701.91 926.52,695.61 C931.03,687.04 928.84,676.51 926.27,667.15 Z M586.61,510.74 C586.253463,515.076135 585.122226,519.313194 583.27,523.25 C582.03,525.76 580.43,528.07 579.27,530.59 C578.17,532.87 577.35,537.18 576.86,541.91 C576.26,541.81 575.65,541.72 575.05,541.65 C575.94,538.53 576.61,535.33 577.5,532.2 C579.61,524.76 583.08,517.73 586.61,510.74 Z" id="Shape" fill="url(#linearGradient-1)" fill-rule="nonzero"></path>
            <path d="M602.02,664.54 C599.91,659.74 597.91,654.22 600.02,649.42 C601.397292,646.593189 603.763289,644.369509 606.67,643.17 C609.546349,641.997099 612.578152,641.249255 615.67,640.95 C625.374439,639.677149 635.194393,639.542905 644.93,640.55 C645.64,646.17 644.14,651.87 642.85,657.3 C641.68,662.3 641.01,663.04 635.85,663.3 C632.51,663.48 602.81,666.31 602.02,664.54 Z" id="Path" fill="#FBBEBE"></path>
            <ellipse id="Oval" fill="#464353" cx="691.07" cy="592.16" rx="143" ry="40"></ellipse>
            <ellipse id="Oval" fill="#000000" opacity="0.1" cx="691.07" cy="592.16" rx="143" ry="40"></ellipse>
            <path d="M716.71,381 C711.808302,390.471641 703.667316,397.867375 693.77,401.84 C687.942529,403.963892 681.810177,405.132281 675.61,405.3 C668.82,405.61 661.89,405.17 655.51,402.85 C646.95,399.75 639.84,393.41 634.51,386.02 C629.18,378.63 625.51,370.19 622.32,361.68 C620.64,357.25 619.04,352.53 619.83,347.85 C624.98,346.68 630.62,344.96 633.28,340.39 C635.55,336.47 634.92,331.77 633.61,327.29 C633.24,326.02 632.81,324.76 632.38,323.55 C631.38,320.65 627.93,315.14 630.33,312.66 C631.86,311.09 638.27,310.29 640.48,309.27 C647.29,306.13 653.57,301.59 661.05,300.1 C667.52,298.81 674.2,300.02 680.66,301.36 C681.516887,301.48462 682.339909,301.7805 683.08,302.23 C683.923842,302.941148 684.54811,303.87755 684.88,304.93 C686.72,309.41 687.8,314.36 689.28,319.03 C690.82,323.92 692.8,328.51 696.51,331.98 C699.4,334.69 703.08,336.39 706.68,338.04 L715.54,342.1 C717.116005,342.690105 718.545458,343.614643 719.73,344.81 C720.888636,346.402567 721.581144,348.28619 721.73,350.25 C723.31751,360.772781 721.56163,371.528422 716.71,381 Z" id="Path" fill="#FBBEBE"></path>
            <path d="M689.24,319.03 C674.735105,334.118312 651.873127,337.512882 633.61,327.29 C633.24,326.02 632.81,324.76 632.38,323.55 C631.38,320.65 627.93,315.14 630.33,312.66 C631.86,311.09 638.27,310.29 640.48,309.27 C647.29,306.13 653.57,301.59 661.05,300.1 C667.52,298.81 674.2,300.02 680.66,301.36 C681.516887,301.48462 682.339909,301.7805 683.08,302.23 C683.923842,302.941148 684.54811,303.87755 684.88,304.93 C686.68,309.41 687.76,314.36 689.24,319.03 Z" id="Path" fill="#000000" opacity="0.1"></path>
            <circle id="Oval" fill="#FBBEBE" cx="656.07" cy="285.16" r="46"></circle>
            <path d="M796.22,434.45 L792.44,411.55 C790.53,400.06 788.56,388.35 783.22,378 C779.71,371.22 774.14,364.76 766.63,363.42 C765.150668,363.288149 763.696796,362.951605 762.31,362.42 C760.11,361.36 758.91,358.98 757.22,357.22 C752.86,352.7 745.76,352.63 739.92,350.33 C734.76,348.33 730.54,344.48 725.84,341.54 C721.14,338.6 715.29,336.54 710.09,338.42 C709.25,347.37 708.36,356.52 704.56,364.67 C699.550798,375.415667 689.956104,383.323955 678.451721,386.189374 C666.947337,389.054792 654.764205,386.570748 645.3,379.43 C636.39,372.72 630.68,362.37 628.02,351.54 C627.37,348.9 626.63,345.87 624.2,344.66 C621.57,343.34 618.41,344.94 616.2,346.88 C612.15,350.47 608.93,355.61 603.67,356.82 C601.77,357.26 599.67,357.17 598.09,358.32 C597.039922,359.289069 596.160913,360.4284 595.49,361.69 C593.151667,364.994099 589.305164,366.89667 585.26,366.75 C583.43,366.66 581.26,366.24 580.01,367.57 C579.08,368.57 579.01,370.13 578.01,371.06 C576.66,372.37 574.47,371.73 572.59,371.66 C569.03,371.51 565.72,373.79 563.68,376.66 C561.64,379.53 560.68,383.08 559.68,386.52 C570.61,410.86 580.61,435.23 591.54,459.57 C592.052082,460.487389 592.323841,461.519384 592.33,462.57 C592.110803,463.660443 591.645663,464.686488 590.97,465.57 C585.61,474.18 585.78,485.01 586.37,495.13 C586.96,505.25 587.68,515.94 583.16,525.01 C581.93,527.5 580.33,529.78 579.16,532.27 C576.42,537.91 575.43,555.95 577.03,562.01 L803.03,562.01 C798.72,550.16 800.36,526.38 801.26,513.8 C801.89,505 800.26,496.21 799.56,487.41 C798.09,469.44 799.19,452.39 796.22,434.45 Z" id="Path" fill="#FF6584"></path>
            <path d="M807.79,555.01 C811.12,553.74 814.79,554.2 818.36,554.68 C829.85,556.25 841.51,557.86 852.16,562.45 C857.16,564.59 861.92,567.45 865.3,571.66 C868.3,575.45 870.05,580.09 871.71,584.66 L875.55,595.15 C877.01,599.15 878.49,603.23 878.9,607.48 C880.1,620.07 871.49,631.94 860.66,638.48 C849.83,645.02 837.08,647.35 824.66,649.79 C812.24,652.23 799.77,654.93 787.4,657.79 C781.630405,659.287283 775.776691,660.439326 769.87,661.24 C756.63,662.74 742.79,660.53 730.21,664.91 C725.21,666.66 720.3,669.26 715.11,670.47 C711.667603,671.225224 708.185431,671.786111 704.68,672.15 L680.87,674.87 C676.028265,675.517572 671.153855,675.891499 666.27,675.99 C655.87,675.99 645.64,673.53 635.54,671.07 C634.466186,670.8816 633.444038,670.469333 632.54,669.86 C630.94,668.6 630.59,666.37 630.36,664.35 C629.34,655.41 628.446667,646.46 627.68,637.5 C627.44,634.59 627.26,631.44 628.85,628.99 C630.85,625.99 634.75,625.05 638.31,624.47 C653.405583,622.000489 668.698009,620.939259 683.99,621.3 C689.8,615.49 699.38,615.46 706.99,612.3 C709.789573,611.014338 712.499078,609.540982 715.1,607.89 C728.706797,599.950753 743.912133,595.144213 759.61,593.82 C762.685505,593.726139 765.740997,593.290119 768.72,592.52 C774.61,590.69 779.98,585.71 786.03,586.93 C786.78,584.86 787.3,582.09 789.03,580.67 C789.89,579.94 790.95,579.45 791.74,578.67 C793.41,576.98 793.56,574.32 793.31,571.96 C793.06,569.6 792.5,567.18 793.11,564.88 C793.363795,564.009223 793.737368,563.177939 794.22,562.41 C797.23,557.15 801.76,554.51 807.79,555.01 Z" id="Path" fill="#464353"></path>
            <path d="M807.79,555.01 C811.12,553.74 814.79,554.2 818.36,554.68 C829.85,556.25 841.51,557.86 852.16,562.45 C857.16,564.59 861.92,567.45 865.3,571.66 C868.3,575.45 870.05,580.09 871.71,584.66 L875.55,595.15 C877.01,599.15 878.49,603.23 878.9,607.48 C880.1,620.07 871.49,631.94 860.66,638.48 C849.83,645.02 837.08,647.35 824.66,649.79 C812.24,652.23 799.77,654.93 787.4,657.79 C781.630405,659.287283 775.776691,660.439326 769.87,661.24 C756.63,662.74 742.79,660.53 730.21,664.91 C725.21,666.66 720.3,669.26 715.11,670.47 C711.667603,671.225224 708.185431,671.786111 704.68,672.15 L680.87,674.87 C676.028265,675.517572 671.153855,675.891499 666.27,675.99 C655.87,675.99 645.64,673.53 635.54,671.07 C634.466186,670.8816 633.444038,670.469333 632.54,669.86 C630.94,668.6 630.59,666.37 630.36,664.35 C629.34,655.41 628.446667,646.46 627.68,637.5 C627.44,634.59 627.26,631.44 628.85,628.99 C630.85,625.99 634.75,625.05 638.31,624.47 C653.405583,622.000489 668.698009,620.939259 683.99,621.3 C689.8,615.49 699.38,615.46 706.99,612.3 C709.789573,611.014338 712.499078,609.540982 715.1,607.89 C728.706797,599.950753 743.912133,595.144213 759.61,593.82 C762.685505,593.726139 765.740997,593.290119 768.72,592.52 C774.61,590.69 779.98,585.71 786.03,586.93 C786.78,584.86 787.3,582.09 789.03,580.67 C789.89,579.94 790.95,579.45 791.74,578.67 C793.41,576.98 793.56,574.32 793.31,571.96 C793.06,569.6 792.5,567.18 793.11,564.88 C793.363795,564.009223 793.737368,563.177939 794.22,562.41 C797.23,557.15 801.76,554.51 807.79,555.01 Z" id="Path" fill="#000000" opacity="0.05"></path>
            <path d="M611.22,670.72 C605.03,677.89 599.58,680.45 589.89,680.22 C583.93,680.08 577.976667,679.77 572.03,679.29 C567.965449,678.850477 563.877808,678.660121 559.79,678.72 C547.45,679.2 535.54,684.85 523.23,683.86 C521.409775,683.716734 519.609783,683.381539 517.86,682.86 C515.082891,682.086714 512.573739,680.560458 510.61,678.45 C508.25,675.78 507.12,672.24 506.47,668.74 C503.18,650.8 512.2,631.26 527.99,622.13 C530.05019,620.799479 532.392146,619.967468 534.83,619.7 C537.220528,619.690209 539.583632,620.209273 541.75,621.22 L541.9,621.28 C548.315111,623.919589 554.141391,627.808309 559.04,632.72 C559.783205,633.571155 560.669981,634.285315 561.66,634.83 C562.647992,635.203134 563.693948,635.399462 564.75,635.41 L577.89,636.24 C580.116212,636.306437 582.328873,636.611516 584.49,637.15 C586.872477,637.98178 589.191833,638.984383 591.43,640.15 C598.5,643.31 606.34,644.15 613.98,645.37 C614.716234,645.410685 615.418806,645.691714 615.98,646.17 C616.284912,646.549246 616.497198,646.994363 616.6,647.47 C618.76572,655.632762 616.751276,664.338306 611.22,670.72 Z" id="Path" fill="#3F3D56"></path>
            <path d="M541.86,621.28 C536.761973,626.147987 532.33928,631.677194 528.71,637.72 C522.886025,647.692737 519.22668,658.779803 517.97,670.26 C517.49344,674.447981 517.456572,678.674343 517.86,682.87 C515.081768,682.093907 512.572499,680.564118 510.61,678.45 C508.25,675.78 507.12,672.24 506.47,668.74 C503.18,650.8 512.2,631.26 527.99,622.13 C530.05019,620.799479 532.392146,619.967468 534.83,619.7 C537.220528,619.690209 539.583632,620.209273 541.75,621.22 L541.86,621.28 Z" id="Path" fill="#000000" opacity="0.1"></path>
            <path d="M796.35,646.15 C803.7,645.95 811.95,645.58 817.35,650.53 C822.5,655.21 823.18,662.93 823.52,669.88 L823.91,677.95 C824.03,680.41 824.13,682.95 823.14,685.23 C821.38,689.23 816.55,691.16 812.14,690.93 C807.73,690.7 803.68,688.77 799.65,687.03 C788.709061,682.316576 777.317112,678.728112 765.65,676.32 C766.03,670.74 766.663333,665.186667 767.55,659.66 C768.16,655.83 768.26,649.42 770.82,646.24 C773.53,642.88 777.06,644.7 780.74,645.32 C785.903518,646.107963 791.132038,646.385968 796.35,646.15 Z" id="Path" fill="#FBBEBE"></path>
            <path d="M602.13,565.07 C602.13,566.07 600.56,565.07 600.42,564 C599.32,555.91 592.9,549.24 585.42,546 C577.94,542.76 569.42,542.59 561.32,543.36 C549.07,544.52 535.37,549.21 530.84,560.66 C529.78,563.34 529.3,566.24 528,568.81 C526.56,571.63 524.21,573.88 522.65,576.62 C519.96,581.36 519.85,587.17 520.82,592.53 C523.43,606.83 533.21,619.06 545.06,627.53 C556.91,636 570.76,641.06 584.57,645.62 C621.086624,657.663471 658.552224,666.611728 696.57,672.37 C702.73,673.3 708.95,674.16 714.85,676.14 C720.13,677.91 725.07,680.56 730.23,682.64 C742.23,687.46 755.14,689.18 767.93,690.87 C770.11,691.15 772.61,691.35 774.22,689.87 C776.3,687.94 775.61,684.58 775.02,681.81 C772.848282,671.286626 774.662221,660.33172 780.11,651.07 C782.25,647.47 785.03,643.78 784.63,639.61 C784.15,634.75 779.31,631.31 774.49,630.53 C769.67,629.75 764.77,630.9 759.93,631.53 C758.26,631.75 756.44,631.89 754.93,631.04 C754.210659,630.55428 753.558389,629.975979 752.99,629.32 C746.149743,622.721296 735.837471,621.279839 727.45,625.75 C725.66,626.75 722.95,624.52 721.09,623.68 L700.08,614.15 C675.92,603.22 651.64,592.24 626.08,585.32 C624.04063,584.919122 622.102395,584.113224 620.38,582.95 C619.11,581.95 618.2,580.59 617.03,579.48 C614.48,577.07 610.93,576.11 607.87,574.4 C604.81,572.69 601.41,568.5 602.13,565.07 Z" id="Path" fill="#464353"></path>
            <path d="M926.32,695.76 C922.96,701.99 916.44,705.87 909.44,707.47 C907.683321,707.866453 905.897534,708.12061 904.1,708.23 C895.25,708.78 886.51,706.33 877.98,703.91 L866.4,700.63 C864.409225,700.003337 862.368433,699.548341 860.3,699.27 C857.484084,699.081908 854.656364,699.179069 851.86,699.56 C838.173705,700.833266 824.377223,700.214106 810.86,697.72 C809.729159,697.597926 808.643072,697.210772 807.69,696.59 C806.855025,695.7715 806.113791,694.862565 805.48,693.88 C802.33,690.09 798.94,687.88 802.67,682.88 C804.82,679.98 808.81,678.53 810.48,675.2 C812.15,671.87 811.08,667.14 810.09,663.7 C808.74,658.95 804.3,656.9 802.71,652.54 C801.52,649.25 803.52,645.43 806.53,643.64 C809.54,641.85 813.26,641.71 816.73,642.17 C820.2,642.63 823.6,643.61 827.09,643.88 C837.35,644.7 847.84,639.41 857.69,642.39 C859.86,643.05 861.91,644.1 864.11,644.68 C868.398976,645.639367 872.879521,645.251728 876.94,643.57 C878.38,643.03 879.79,642.38 881.19,641.74 C883.889934,640.334428 886.765288,639.295266 889.74,638.65 C899.35,637 908.26,643.65 915.51,650.14 C917.998737,652.205509 920.20142,654.593149 922.06,657.24 C924.06,660.36 925.12,663.99 926.06,667.57 C928.71,676.84 930.9,687.26 926.32,695.76 Z" id="Path" fill="#3F3D56"></path>
            <path d="M926.32,695.76 C922.96,701.99 916.44,705.87 909.44,707.47 C912.162944,702.179661 913.390379,696.246481 912.99,690.31 C912.39,680.8 908.21,671.84 902.88,663.94 C899.600984,659.076919 895.871177,654.533518 891.74,650.37 C888.56,647.17 884.65,644.63 881.23,641.7 C883.929934,640.294428 886.805288,639.255266 889.78,638.61 C899.39,636.96 908.3,643.61 915.55,650.1 C918.038737,652.165509 920.24142,654.553149 922.1,657.2 C924.1,660.32 925.16,663.95 926.1,667.53 C928.71,676.84 930.9,687.26 926.32,695.76 Z" id="Path" fill="#000000" opacity="0.1"></path>
            <path d="M624.29,210.5 C620.93,212.93 618.63,216.42 616.29,219.77 C611.98,225.96 607.1,232.14 600.21,235.59 C597.6,236.9 594.62,237.89 592.89,240.17 C591.863165,241.711948 591.196685,243.465305 590.94,245.3 C589.620116,251.751189 588.930208,258.315366 588.88,264.9 C588.88,268.18 589.02,271.56 590.47,274.54 C591.84,277.34 594.31,279.71 594.82,282.76 C595.21,285.14 594.33,287.51 594.02,289.9 C593.71,292.29 594.25,295.12 596.46,296.26 C597.650781,296.707931 598.894381,297.000345 600.16,297.13 C606.81,298.61 609.04,306.41 610.05,312.86 C612.31,312.73 613.33,310.14 613.8,308.03 L620.73,277.22 C621.48,273.88 622.73,270.01 626.06,268.84 C628.29,268.07 630.73,268.79 633.06,268.99 C642.21,269.74 649.95,262.67 658.9,260.72 C661.765287,260.145173 664.694235,259.953496 667.61,260.15 C674.67,260.5 682.88,263.4 684.38,269.99 C684.63,271.06 684.78,272.34 685.78,272.87 C686.78,273.4 687.78,272.95 688.88,272.87 C693.36,272.42 696,277.46 697.29,281.58 L701.99,296.58 C702.69,298.85 703.87,301.52 706.33,301.81 C708.6,302.09 710.53,299.94 710.87,297.81 C711.21,295.68 710.47,293.47 709.98,291.33 C707.77,281.48 711.15,271.4 713.21,261.53 C715.27,251.66 715.64,240.32 708.73,232.72 C706.22,229.97 702.92,227.92 700.58,225.02 C698.4,222.3 697.17,218.96 694.91,216.29 C688.66,208.92 672.63,203.23 662.8,202.29 C651.61,201.06 633.37,203.91 624.29,210.5 Z" id="Path" fill="#3F3D56"></path>
            <g id="Group" opacity="0.1" transform="translate(588.000000, 246.000000)" fill="#000000">
                <path d="M118.37,48.8 C115.91,48.5 114.73,45.8 114.03,43.57 C112.463333,38.5633333 110.896667,33.5633333 109.33,28.57 C108.04,24.44 105.4,19.4 100.92,19.86 C99.92,19.97 98.74,20.38 97.82,19.86 C96.9,19.34 96.67,18.05 96.42,16.98 C94.92,10.38 86.71,7.49 79.65,7.14 C76.7342327,6.94852185 73.8059447,7.14015493 70.94,7.71 C61.94,9.71 54.25,16.71 45.1,15.98 C42.74,15.79 40.3,15.07 38.1,15.84 C34.73,17 33.52,20.84 32.77,24.22 L25.84,55.02 C25.37,57.14 24.35,59.73 22.09,59.85 C21.09,53.41 18.85,45.61 12.2,44.13 C10.936018,43.9907189 9.69360538,43.698584 8.5,43.26 C7.62999976,42.7847875 6.94890554,42.0260556 6.57,41.11 C6.39,42.04 6.18,42.97 6.06,43.9 C5.76,46.28 6.29,49.12 8.5,50.26 C9.69078101,50.7079308 10.9343812,51.0003449 12.2,51.13 C18.85,52.61 21.08,60.41 22.09,66.86 C24.35,66.73 25.37,64.14 25.84,62.03 L32.77,31.22 C33.52,27.88 34.77,24.01 38.1,22.84 C40.33,22.07 42.77,22.79 45.1,22.99 C54.25,23.74 61.99,16.67 70.94,14.72 C73.7922464,14.1487071 76.707509,13.9570462 79.61,14.15 C86.67,14.5 94.88,17.4 96.38,23.99 C96.63,25.06 96.78,26.34 97.78,26.87 C98.78,27.4 99.78,26.95 100.88,26.87 C105.36,26.42 108,31.46 109.29,35.58 C110.85,40.5866667 112.416667,45.5866667 113.99,50.58 C114.69,52.85 115.87,55.52 118.33,55.81 C120.6,56.09 122.53,53.94 122.87,51.81 C123.023663,50.0177308 122.819715,48.2127916 122.27,46.5 C121.543516,47.9744395 120.011862,48.877723 118.37,48.8 Z" id="Path"></path>
                <path d="M6.83,29.76 C6.32,26.71 3.83,24.34 2.48,21.54 C1.61204917,19.651458 1.10985575,17.6155388 1,15.54 C1,16.66 0.9,17.78 0.89,18.91 C0.89,22.19 1.03,25.57 2.48,28.55 C3.59,30.82 5.42,32.82 6.34,35.13 C6.82507222,33.3840566 6.99106584,31.564902 6.83,29.76 Z" id="Path"></path>
                <path d="M125.25,8.48 C123.43,17.2 120.59,26.08 121.47,34.82 C122.04,28.37 123.92,21.88 125.25,15.48 C126.358404,10.623168 126.749221,5.6301413 126.41,0.66 C126.192439,3.28896183 125.804963,5.90108758 125.25,8.48 Z" id="Path"></path>
            </g>
            <path d="M598.77,478.65 C597.56,498.51 582.99,514.92 577.44,534.02 C576.06,538.8 575.23,543.76 573.25,548.31 C569.25,557.46 561.02,564.1 552.25,568.78 C549.050249,570.629464 545.550341,571.902158 541.91,572.54 C533.716158,573.497528 525.786008,569.279532 522,561.95 C519.71,557.3 519.39,551.95 518,546.95 C516.45,541.18 513.55,535.86 511.66,530.19 C508.18,519.76 508.25,508.34 510.66,497.62 C512.94352,488.297611 516.557254,479.352525 521.39,471.06 C522.09,469.83 522.8,468.61 523.53,467.4 C525.592797,463.90197 527.908991,460.559699 530.46,457.4 C536.46,450.17 544.17,444.61 551.8,439.13 C552.382627,438.649958 553.06639,438.308076 553.8,438.13 L553.92,438.13 C554.780308,438.099768 555.633064,438.30001 556.39,438.71 C566.971451,443.284741 577.127667,448.786164 586.74,455.15 C590.18,457.44 595.61,460 597.41,463.9 C599.21,467.8 599.03,474.41 598.77,478.65 Z" id="Path" fill="#FBBEBE"></path>
            <path d="M559.07,387.26 C558.095875,388.279733 557.34042,389.487781 556.85,390.81 C548.766633,409.027313 543.992095,428.538581 542.75,448.43 C542.771747,449.399899 542.548166,450.359579 542.1,451.22 C541.658057,451.79249 541.166123,452.324582 540.63,452.81 C539.645972,453.976369 539.188693,455.498063 539.366775,457.013654 C539.544857,458.529245 540.342409,459.903496 541.57,460.81 C543.22,457.7 547.17,456.69 550.68,456.42 C567.49,455.09 583.91,462.91 600.77,462.32 C599.58,458.21 597.87,454.26 596.9,450.1 C592.61,431.63 603.31,411.52 596.75,393.73 C595.44,390.17 593.25,386.67 589.8,385.11 C588.371552,384.533014 586.876659,384.136615 585.35,383.93 C581.09,383.16 572.61,379.87 568.49,381.19 C566.97,381.68 566.37,383.11 565.11,383.97 C563.24,385.2 560.7,385.63 559.07,387.26 Z" id="Path" fill="#FF6584"></path>
            <path d="M565.96,552.61 C560.730983,561.47918 551.254908,566.979094 540.96,567.12 C538.220109,567.19185 535.495372,566.691179 532.96,565.65 C526.57,562.83 522.96,555.85 521.62,548.99 C520.28,542.13 520.7,535.05 519.75,528.12 C518.99,522.6 517.37,517.24 516.53,511.73 C514.47,498.1 518.53,484.64 521.42,471.07 C522.12,469.84 522.83,468.62 523.56,467.41 C525.622797,463.91197 527.938991,460.569699 530.49,457.41 C536.49,450.18 544.2,444.62 551.83,439.14 L543.83,439.14 C544.223865,438.851872 544.741263,438.795007 545.188304,438.990717 C545.635345,439.186426 545.944532,439.605159 546,440.09 C546.79,447.09 556.66,454.09 558.81,460.89 C560.14,465.07 561.74,469.17 562.81,473.43 C563.653421,477.058239 564.29441,480.730576 564.73,484.43 C566.15,494.783333 567.563333,505.116667 568.97,515.43 C570.74,528.02 572.26,541.63 565.96,552.61 Z" id="Path" fill="#000000" opacity="0.1"></path>
            <path d="M552.72,421.31 L562.37,391.04 C563.81,386.51 565.27,381.91 565.44,377.15 C565.61,372.39 564.36,367.4 561.03,364 C558.33,361.25 554.59,359.83 551.39,357.68 C543.39,352.29 539.39,342.85 535.22,334.16 C531.05,325.47 525.56,316.38 516.46,313.16 C514.36,312.42 511.46,312.36 510.52,314.37 C510.194868,315.205643 510.142364,316.12271 510.37,316.99 C511.25,321.61 514.56,325.3 517.44,328.99 C522.27,335.24 526.31,342.89 525.15,350.71 C523.77,359.97 515.45,367.15 514.45,376.46 C514.01,380.56 515.06,384.67 515.05,388.8 C515.05,391.36 514.63,393.97 515.2,396.47 C515.791597,398.402985 516.496141,400.29958 517.31,402.15 C518.200692,405.139857 518.665267,408.24039 518.69,411.36 L520.8,450.72 C521.94,472.01 510.39,492.72 513.57,513.72 C514.41,519.23 516.03,524.59 516.79,530.11 C517.79,537.04 517.32,544.11 518.66,550.98 C520,557.85 523.66,564.82 530,567.64 C532.535372,568.681179 535.260109,569.18185 538,569.11 C548.294908,568.969094 557.770983,563.46918 563,554.6 C569.3,543.6 567.78,530.01 566.06,517.47 L561.82,486.47 C561.38441,482.770576 560.743421,479.098239 559.9,475.47 C558.84,471.21 557.24,467.11 555.9,462.93 C551.61,449.26 548.4,434.89 552.72,421.31 Z" id="Path" fill="#FBBEBE"></path>
            <rect id="Rectangle" fill="#3F3D56" x="594.57" y="423.66" width="223" height="142" rx="7.97"></rect>
            <rect id="Rectangle" fill="#000000" opacity="0.2" x="594.57" y="423.66" width="223" height="142" rx="7.97"></rect>
            <circle id="Oval" fill="#FFFFFF" cx="705.57" cy="494.66" r="6"></circle>
            <g id="Group" opacity="0.1" transform="translate(465.000000, 542.000000)" fill="#000000">
                <path d="M1.99,0.92 C1.4868418,1.4575115 0.9525912,1.9650496 0.39,2.44 C0.96,2.44 1.52,2.35 2.09,2.29 C2.07,1.83 2.04,1.37 1.99,0.92 Z" id="Path"></path>
            </g>
            <rect id="Rectangle" fill="#3884FF" x="151.11" y="179.65" width="226" height="88"></rect>
            <rect id="Rectangle" stroke="#3F3D56" stroke-width="9" x="151.11" y="179.65" width="371" height="88" rx="12"></rect>
        </g>
    </g>
</svg>