<?xml version="1.0" encoding="UTF-8"?>
<svg width="1071px" height="704px" viewBox="0 0 1071 704" version="1.1" xmlns="http://www.w3.org/2000/svg" xmlns:xlink="http://www.w3.org/1999/xlink">
    <!-- Generator: Sketch 61.1 (89650) - https://sketch.com -->
    <title>transitions2</title>
    <desc>Created with Sketch.</desc>
    <g id="Page-1" stroke="none" stroke-width="1" fill="none" fill-rule="evenodd">
        <g id="transitions2" transform="translate(0.000000, -1.000000)">
            <rect id="Rectangle" fill="#F5F5F5" fill-rule="nonzero" transform="translate(511.499976, 283.255575) rotate(16.731450) translate(-511.499976, -283.255575) " x="244.499976" y="68.755575" width="534" height="429"></rect>
            <rect id="Rectangle" fill="#3884FF" fill-rule="nonzero" x="0" y="96.25556" width="463.5" height="324.5"></rect>
            <rect id="Rectangle" fill="#3E3E54" fill-rule="nonzero" x="0" y="96.25556" width="388" height="250"></rect>
            <line x1="388.5" y1="346.75556" x2="431.46628" y2="389.72186" id="Path" stroke="#3F3D56" stroke-width="2"></line>
            <polygon id="Path" fill="#3F3D56" fill-rule="nonzero" points="420.996 390.82 421.068 388.819 430.922 389.18 430.562 379.324 432.563 379.253 432.999 391.257"></polygon>
            <rect id="Rectangle" fill="#3E3E54" fill-rule="nonzero" x="654.5" y="172.75556" width="248" height="221"></rect>
            <rect id="Rectangle" fill="#3884FF" fill-rule="nonzero" x="654.5" y="172.75556" width="144" height="99"></rect>
            <line x1="488.66901" y1="282.75556" x2="619.33099" y2="282.75556" id="Path" stroke="#3F3D56" stroke-width="2"></line>
            <polygon id="Path" fill="#3F3D56" fill-rule="nonzero" points="495.296 290.935 496.66 289.47 489.437 282.758 496.66 276.043 495.296 274.578 486.5 282.758"></polygon>
            <polygon id="Path" fill="#3F3D56" fill-rule="nonzero" points="612.704 290.935 611.34 289.47 618.563 282.758 611.34 276.043 612.704 274.578 621.5 282.758"></polygon>
            <line x1="902.5" y1="393.75556" x2="814.85681" y2="284.44779" id="Path" stroke="#3884FF" stroke-width="2"></line>
            <polygon id="Path" fill="#3884FF" fill-rule="nonzero" points="825.384 284.501 825.095 286.482 815.339 285.045 814.618 294.882 812.622 294.734 813.502 282.754"></polygon>
            <path d="M956.5,312.75556 L962.48425,307.30702 C962.48425,307.30702 997.11851,305.95928 999.80925,316.85742 C1002.5,327.75556 984.5,326.75556 984.5,326.75556 L956.5,312.75556 Z" id="Path" fill="#FF6584" fill-rule="nonzero"></path>
            <path d="M956.5,312.75556 L962.48425,307.30702 C962.48425,307.30702 997.11851,305.95928 999.80925,316.85742 C1002.5,327.75556 984.5,326.75556 984.5,326.75556 L956.5,312.75556 Z" id="Path" fill="#000000" fill-rule="nonzero" opacity="0.1"></path>
            <path d="M1005.99374,323.11532 L1012.44436,323.11532 L1032.4413,329.56595 C1032.4413,329.56595 1045.98762,352.14314 1039.53699,354.72339 C1033.08636,357.30364 1031.15118,358.59377 1023.41043,356.65858 C1015.66968,354.72339 1012.44436,354.07833 1012.44436,354.07833 L1005.99374,323.11532 Z" id="Path" fill="#FF6584" fill-rule="nonzero"></path>
            <polygon id="Path" fill="#9F616A" fill-rule="nonzero" points="937.617 434.711 953.099 457.288 956.324 437.936 944.713 431.486"></polygon>
            <path d="M1021.47524,297.31282 C1021.47524,297.31282 1013.73449,259.25412 1007.92893,261.83437 C1002.12337,264.41462 1007.92893,286.99182 1007.92893,286.99182 L1016.9598,301.82826 L1021.47524,297.31282 Z" id="Path" fill="#9F616A" fill-rule="nonzero"></path>
            <path d="M933.74672,326.9857 L925.36091,334.08139 C925.36091,334.08139 884.07691,386.33146 899.5584,402.45803 C915.03989,418.5846 939.55229,439.87166 939.55229,439.87166 C939.55229,439.87166 949.87329,433.42103 949.22823,432.13091 C948.58317,430.84079 939.55229,419.87472 938.26216,417.29447 C936.97203,414.71422 928.58622,405.68334 928.58622,401.81296 C928.58622,397.94258 929.87635,397.94259 926.65103,396.65246 C923.42571,395.36233 922.78066,389.55677 922.78066,389.55677 L940.19735,356.65858 L933.74672,326.9857 Z" id="Path" fill="#FF6584" fill-rule="nonzero"></path>
            <path d="M1019.54005,345.69256 C1019.54005,345.69256 1020.18512,339.88699 1019.54005,337.9518 C1018.89498,336.01661 1020.18512,332.14624 1019.54005,331.50118 C1018.89498,330.85612 1012.44436,314.72955 1013.08943,312.1493 C1013.7345,309.56905 1013.08943,297.31286 1013.08943,297.31286 L1022.1203,293.44248 L1026.63574,305.05361 C1026.63574,305.05361 1036.31168,314.72955 1034.37649,316.01967 C1032.4413,317.30979 1036.31168,321.18018 1036.31168,321.18018 L1038.24687,326.98574 L1043.40737,336.66168 C1043.40737,336.66168 1045.6002,349.31405 1041.27847,352.6638 C1036.95674,356.01355 1019.54005,345.69256 1019.54005,345.69256 Z" id="Path" fill="#FF6584" fill-rule="nonzero"></path>
            <circle id="Oval" fill="#3E3E54" fill-rule="nonzero" cx="982.26799" cy="270.98467" r="31.90983"></circle>
            <path d="M969.22517,289.57207 C969.22517,289.57207 970.51529,310.85913 967.28998,314.08445 C964.06467,317.30977 979.54617,323.11532 979.54617,323.11532 L993.73755,323.11532 C993.73755,323.11532 993.73755,294.73257 996.96286,289.57207 C1000.18817,284.41157 969.22517,289.57207 969.22517,289.57207 Z" id="Path" fill="#9F616A" fill-rule="nonzero"></path>
            <path d="M969.22517,289.57207 C969.22517,289.57207 970.51529,310.85913 967.28998,314.08445 C964.06467,317.30977 979.54617,323.11532 979.54617,323.11532 L993.73755,323.11532 C993.73755,323.11532 993.73755,294.73257 996.96286,289.57207 C1000.18817,284.41157 969.22517,289.57207 969.22517,289.57207 Z" id="Path" fill="#000000" fill-rule="nonzero" opacity="0.1"></path>
            <circle id="Oval" fill="#3E3E54" fill-rule="nonzero" cx="984.46867" cy="241.11183" r="13.20407"></circle>
            <path d="M966.86324,233.95963 C966.863641,227.199773 971.968873,221.531723 978.69189,220.82695 C978.23495,220.779505 977.775866,220.75556 977.31647,220.75556 C970.024064,220.75556 964.1124,226.667224 964.1124,233.95963 C964.1124,241.252036 970.024064,247.1637 977.31647,247.1637 C977.775866,247.1637 978.23495,247.139755 978.69189,247.09231 C971.968873,246.387537 966.863641,240.719487 966.86324,233.95963 Z" id="Path" fill="#3E3E54" fill-rule="nonzero"></path>
            <circle id="Oval" fill="#9F616A" fill-rule="nonzero" cx="982.44895" cy="277.6384" r="23.86732"></circle>
            <ellipse id="Oval" fill="#3E3E54" fill-rule="nonzero" cx="982.26799" cy="264.21895" rx="22.00678" ry="13.20407"></ellipse>
            <path d="M982.12642,318.59988 C982.12642,318.59988 964.06467,305.05357 960.19429,307.63382 C956.32391,310.21407 927.94116,321.18014 925.36091,334.08139 C922.78066,346.98264 958.2591,406.32839 958.2591,406.32839 L1000.18817,401.81295 L1013.08943,387.62158 L1016.31474,372.14007 C1016.31474,372.14007 1017.60486,359.23882 1016.31474,356.65857 C1015.02462,354.07832 1015.02461,323.76038 1012.44436,323.11531 C1009.86411,322.47024 998.25299,314.7295 996.96286,316.66469 C995.67273,318.59988 982.12642,318.59988 982.12642,318.59988 Z" id="Path" fill="#FF6584" fill-rule="nonzero"></path>
            <path d="M909.87941,643.71145 C909.87941,643.71145 898.26828,641.77626 898.26828,651.4522 C898.26828,661.12814 896.97815,692.0912 896.33309,693.38127 C895.68803,694.67134 876.33615,702.41215 886.01209,703.70227 C895.68803,704.99239 909.87941,703.70227 909.87941,703.70227 L913.10472,697.25165 L916.33003,704.18684 L923.5,704.75556 C923.5,704.75556 922.1356,675.96456 925.36091,671.44914 C928.58622,666.93372 920.20041,655.96764 920.20041,655.96764 C920.20041,655.96764 922.1356,642.42132 920.84547,643.71145 C919.55534,645.00158 909.87941,643.71145 909.87941,643.71145 Z" id="Path" fill="#3E3E54" fill-rule="nonzero"></path>
            <path d="M1015.02461,650.80714 C1015.02461,650.80714 1009.21905,671.44914 1010.50918,674.02939 C1011.79931,676.60964 1010.50918,684.99546 1010.50918,684.99546 C1010.50918,684.99546 1005.34867,702.9924 1016.9598,704.28252 C1028.57093,705.57264 1032.4413,699.8319 1032.4413,698.54177 C1032.4413,697.25164 1029.86105,679.83496 1029.86105,676.60964 L1029.86105,664.35345 L1029.21599,650.80714 L1015.02461,650.80714 Z" id="Path" fill="#3E3E54" fill-rule="nonzero"></path>
            <path d="M964.70973,401.81296 L956.32391,406.3284 C956.32391,406.3284 956.96898,420.51978 953.0986,426.32534 C949.22822,432.1309 936.32697,545.66193 935.03685,545.66193 C933.74673,545.66193 928.58622,562.43356 925.36091,566.30393 C922.1356,570.1743 898.91334,637.26082 906.00903,643.71145 C913.10472,650.16208 962.12948,661.7732 967.93503,657.25776 C973.74058,652.74232 995.02766,486.31617 995.02766,486.31617 C995.02766,486.31617 1002.76841,659.19295 1012.44435,658.549691 C1022.12029,657.90283 1070.5,650.16208 1070.5,645.00156 C1070.5,639.84104 1049.21293,413.42408 1018.895,396.65245 L1013.5,387.75556 C1013.5,387.75556 990.51223,400.52284 964.70973,401.81296 Z" id="Path" fill="#3E3E54" fill-rule="nonzero"></path>
        </g>
    </g>
</svg>