<?xml version="1.0" encoding="UTF-8"?>
<svg width="655px" height="599px" viewBox="0 0 655 599" version="1.1" xmlns="http://www.w3.org/2000/svg" xmlns:xlink="http://www.w3.org/1999/xlink">
    <!-- Generator: Sketch 61.1 (89650) - https://sketch.com -->
    <title>trigonometry</title>
    <desc>Created with Sketch.</desc>
    <g id="Page-1" stroke="none" stroke-width="1" fill="none" fill-rule="evenodd">
        <g id="trigonometry" fill-rule="nonzero">
            <path d="M620,551.61354 C620,577.29354 481.21,598.11354 310,598.11354 C138.79,598.11354 0,577.29354 0,551.61354 C0,533.43354 69.57,517.68354 170.96,510.04354 C212.77,506.88354 260.01,505.11354 310,505.11354 C330.55,505.11354 350.63,505.41354 370.05,505.98354 C512.52002,510.18355 620,529.0135 620,551.61354 Z" id="Path" fill="#F5F5F5"></path>
            <ellipse id="Oval" fill="#000000" opacity="0.1" cx="270" cy="546.61354" rx="119" ry="14.5"></ellipse>
            <ellipse id="Oval" fill="#F5F5F5" cx="269.5" cy="437.11354" rx="112.5" ry="120"></ellipse>
            <rect id="Rectangle" fill="#3884FF" x="235" y="508.11354" width="70" height="64"></rect>
            <polygon id="Path" fill="#575A89" points="396.5 523.614 392.5 545.614 418.5 549.614 435.5 539.614 434.5 523.614"></polygon>
            <path d="M265.5,110.61354 C265.5,110.61354 263.5,133.61354 258.5,134.61354 C253.5,135.61354 269.5,175.61354 269.5,175.61354 L293.5,175.61354 L312.5,170.61354 L303.5,148.61354 C303.5,148.61354 291.5,132.61354 300.5,119.61354 C309.5,106.61354 265.5,110.61354 265.5,110.61354 Z" id="Path" fill="#A0616A"></path>
            <path d="M265.5,110.61354 C265.5,110.61354 263.5,133.61354 258.5,134.61354 C253.5,135.61354 269.5,175.61354 269.5,175.61354 L293.5,175.61354 L312.5,170.61354 L303.5,148.61354 C303.5,148.61354 291.5,132.61354 300.5,119.61354 C309.5,106.61354 265.5,110.61354 265.5,110.61354 Z" id="Path" fill="#000000" opacity="0.1"></path>
            <path d="M215.5,286.61354 C215.5,286.61354 189.5,336.61354 210.5,346.61354 C231.5,356.61354 236.5,355.61354 236.5,358.61354 C236.5,361.61354 232.5,360.61354 234.5,365.61354 C236.5,370.61354 230.5,390.61354 236.5,402.61354 C242.5,414.61354 240.5,423.61354 240.5,423.61354 C240.5,423.61354 240.5,424.61354 242.5,428.61354 C244.5,432.61354 245.5,435.61354 244.5,437.61354 C243.5,439.61354 237.5,452.61354 243.5,455.61354 C249.5,458.61354 280.5,460.61354 283.5,455.61354 C286.5,450.61354 280.5,447.61354 283.5,444.61354 C286.5,441.61354 288.5,440.61354 286.5,438.61354 C284.5,436.61354 282.5,411.61354 282.5,411.61354 C282.5,411.61354 287.5,382.61354 285.5,378.61354 C283.5,374.61354 280.5,370.61354 282.5,367.61354 C284.5,364.61354 286.5,365.61354 287.5,361.61354 C288.5,357.61354 290.5,348.61354 290.5,348.61354 L301.5,347.61354 L327.5,352.61354 C327.5,352.61354 356.5,384.61354 388.5,394.61354 C388.5,394.61354 397.5,403.61354 400.5,403.61354 C403.5,403.61354 403.5,403.61354 402.5,405.61354 C401.5,407.61354 398.5,407.61354 400.5,409.61354 C402.5,411.61354 405.5,408.61354 403.5,411.61354 C401.5,414.61354 399.5,414.61354 401.5,416.61354 C403.5,418.61354 400.5,429.61354 400.5,430.61354 C400.5,431.61354 391.5,525.61354 394.5,527.61354 C397.5,529.61354 439.5,535.61354 442.5,527.61354 C445.5,519.61354 440.5,509.61354 440.5,509.61354 C440.5,509.61354 455.5,389.61354 451.5,381.61354 C447.5,373.61354 433.5,337.61354 358.5,314.61354 C358.5,314.61354 337.5,310.61354 337.5,307.61354 C337.5,304.61354 335.5,285.61354 331.5,284.61354 C327.5,283.61354 304.5,282.61354 304.5,282.61354 L275.5,291.61354 L235.5,284.61354 L215.5,286.61354 Z" id="Path" fill="#2F2E41"></path>
            <path d="M250.5,454.61354 L245.5,472.61354 C245.5,472.61354 241.5,501.61354 246.5,508.61354 C250.42739,514.11188 257.43965,520.84417 270.44449,522.02574 C277.95287,522.714557 284.930638,518.090975 287.22304,510.908 C287.372262,510.490676 287.465409,510.055385 287.50004,509.61354 C287.50004,507.61354 284.50004,483.61354 284.50004,483.61354 L279.50004,458.61354 L278.50004,451.61354 L250.5,454.61354 Z" id="Path" fill="#2F2E41"></path>
            <path d="M396.5,540.61354 C396.5,540.61354 391.5,535.61354 390.5,540.61354 C389.5,545.61354 385.5,566.61354 392.5,567.61354 C399.5,568.61354 466.5,578.61354 473.5,574.61354 C480.5,570.61354 493.5,564.61354 485.5,561.61354 C477.5,558.61354 454.5,549.61354 454.5,549.61354 C454.5,549.61354 441.5,532.61354 439.5,531.61354 C437.5,530.61354 426.5,532.61354 421.5,536.61354 C416.5,540.61354 396.5,540.61354 396.5,540.61354 Z" id="Path" fill="#2F2E41"></path>
            <circle id="Oval" fill="#A0616A" cx="289.5" cy="100.61354" r="31"></circle>
            <path d="M286.5,170.61354 L274.5,157.61354 L261.19853,131.61354 C261.19853,131.61354 251.5,128.61354 249.5,133.61354 C247.5,138.61354 211.5,154.61354 211.5,154.61354 C211.5,154.61354 220.5,238.61354 216.5,246.61354 C212.5,254.61354 205.5,286.61354 211.5,289.61354 C217.5,292.61354 245.5,289.61354 254.5,293.61354 C263.5,297.61354 289.5,297.61354 296.5,292.61354 C303.5,287.61354 305.5,283.61354 312.5,286.61354 C318.45926,289.16754 332.39075,201.85254 336.40164,175.83254 C337.091051,171.374345 335.188019,166.911622 331.49357,164.32283 C322.52081,158.02899 306.3608,147.18318 303.5,148.61358 C299.5,150.61354 286.5,170.61354 286.5,170.61354 Z" id="Path" fill="#575A89"></path>
            <path d="M329.5,166.61354 C334.309178,167.815834 337.863205,171.882442 338.41063,176.80931 L346.49999,249.61354 C346.49999,249.61354 326.49999,292.61354 316.49999,263.61354 C306.49999,234.61354 329.5,166.61354 329.5,166.61354 Z" id="Path" fill="#575A89"></path>
            <path d="M327.5,256.61354 L349.5,250.61354 C349.5,250.61354 353.5,278.61354 357.5,278.61354 C361.5,278.61354 343.5,294.61354 334.5,292.61354 C325.5,290.61354 312.5,283.61354 311.5,278.61354 C310.5,273.61354 320.5,252.61354 320.5,252.61354 L327.5,256.61354 Z" id="Path" fill="#575A89"></path>
            <path d="M266.09829,113.98651 C268.20621,109.33851 267.84022,103.91685 269.58292,99.11998 C271.474509,93.913303 275.691315,89.890231 280.981138,88.245434 C286.270961,86.600636 292.025557,87.523239 296.53607,90.73927 C298.77785,92.33768 301.02535,94.58344 303.76166,94.27827 C306.70837,93.94968 309.33666,90.66234 312.04586,91.86711 C315.04863,93.20244 314.2376,98.58387 317.27977,99.82683 C318.88107,100.48109 320.77332,99.47372 321.69692,98.01113 C322.504635,96.474165 322.944782,94.770774 322.98275,93.03491 C323.40251,88.76983 323.78184,84.25591 321.93213,80.38998 C321.154109,79.079639 320.476087,77.71245 319.90384,76.30006 C319.580218,74.981099 319.45032,73.622054 319.51823,72.26567 C319.50134,67.25258 319.13542,62.02352 316.61255,57.6915 C313.813,52.88439 308.63808,49.8105 303.23929,48.46923 C297.8405,47.12796 292.18429,47.33362 286.64122,47.80288 C277.47798,48.57862 267.92195,50.24146 260.70266,55.93788 C259.721391,56.654713 258.876861,57.541978 258.2093,58.55741 C257.575616,59.763691 257.127858,61.058806 256.88119,62.39889 C255.320335,68.755013 252.980057,74.893913 249.91355,80.67605 C248.438481,83.127265 247.232987,85.7309 246.31812,88.44149 C245.55253,91.19591 245.60425,94.33492 247.20682,96.70234 C248.51157,98.62979 250.59747,99.65697 252.23627,101.23278 C253.86014,102.79424 254.61995,105.79716 256.41879,106.97951 C257.98912,108.01166 259.87009,107.28307 261.47169,108.37703 C263.52795,109.78156 263.67647,112.8612 266.09829,113.98651 Z" id="Path" fill="#2F2E41"></path>
            <path d="M291.5,185.61354 L294.5,179.61354 C294.5,179.61354 338.5,192.61354 347.5,204.61354 C347.5,204.61354 369.5,190.61354 381.5,192.61354 L393.5,194.61354 L356.5,227.61354 L309.5,223.61354 L291.5,185.61354 Z" id="Path" fill="#F2F2F2"></path>
            <path d="M289.5,179.61354 L248.5,236.61354 L307.5,265.61354 C307.5,265.61354 313.01572,268.61354 317.25786,265.61354 L356.5,247.61354 L393.5,194.61354 L356.5,213.61354 C356.5,213.61354 352.5,205.61354 344.5,209.61354 L289.5,179.61354 Z" id="Path" fill="#3884FF"></path>
            <path d="M352.5,280.61354 L360.5,259.61354 C360.5,259.61354 378.5,236.61354 368.5,225.61354 C358.5,214.61354 347.5,257.61354 347.5,257.61354 L352.5,280.61354 Z" id="Path" fill="#A0616A"></path>
            <path d="M260.19768,277.26233 L277.65392,263.11033 C277.65392,263.11033 304.76392,252.24533 301.63243,237.71287 C298.50094,223.18041 267.4119,254.858 267.4119,254.858 L260.19768,277.26233 Z" id="Path" fill="#A0616A"></path>
            <path d="M217,176.11354 L216,176.11354 C216,176.11354 200.5,157.61354 197.5,182.61354 C194.5,207.61354 184.5,290.61354 210.5,293.61354 C236.5,296.61354 255,281.11354 255,281.11354 C255,281.11354 274,252.11354 267,252.11354 C263.61309,252.11354 254.40165,250.59238 246,251.11354 C237.03728,251.66954 228.98385,254.19432 229.5,251.61354 C230.5,246.61354 245,183.11354 217,176.11354 Z" id="Path" fill="#000000" opacity="0.1"></path>
            <path d="M215.5,156.61354 L211.5,154.61354 C211.5,154.61354 195.5,157.61354 192.5,182.61354 C189.5,207.61354 179.5,290.61354 205.5,293.61354 C231.5,296.61354 266.5,289.61354 266.5,289.61354 C266.5,289.61354 273.5,251.61354 266.5,251.61354 C259.5,251.61354 223.5,256.61354 224.5,251.61354 C225.5,246.61354 243.5,163.61354 215.5,156.61354 Z" id="Path" fill="#575A89"></path>
            <polygon id="Path" fill="#575A89" points="338 269.114 349.027 252.213 356 280.114 338 288.114"></polygon>
            <path d="M654.23658,84.22903 C653.849393,96.19929 650.93435,105.793797 645.49145,113.01255 C640.047643,120.23209 633.580493,123.842187 626.09,123.84284 C619.988827,123.84284 614.641353,120.30997 610.04758,113.24423 C605.45236,106.17863 603.155027,95.30999 603.15558,80.63831 C603.15558,77.39511 603.23281,74.306303 603.38727,71.37189 C603.541197,68.43813 603.734267,65.658237 603.96648,63.03221 L608.02057,24.92421 L581.26367,24.92421 C576.63075,73.10935 572.827713,101.777203 569.85456,110.92777 C566.88114,120.078143 561.84258,124.65377 554.73888,124.65377 C551.532337,124.574892 548.472688,123.293166 546.16733,121.06304 C543.460651,118.664603 541.972675,115.178443 542.11323,111.56474 C542.11323,108.014073 544.91243,103.05274 550.51083,96.68074 C556.10897,90.31 559.217083,84.499223 559.83517,79.24841 L566.78493,24.92418 L555.54978,24.92418 C552.382396,24.943073 549.265222,25.717354 546.45713,27.18272 C543.872485,28.36981 541.623528,30.180876 539.91262,32.45296 L534.93178,39.86609 L530.87769,39.86609 C534.660437,28.12929 539.312983,19.306937 544.83533,13.39903 C550.35533,7.4916567 556.70664,4.53803 563.88926,4.53803 L652.38349,4.53803 L652.38349,24.92414 L622.49929,24.92414 C621.57255,34.19056 620.858253,43.456893 620.3564,52.72314 C619.853367,61.98956 619.60244,71.294593 619.60362,80.63824 C619.60362,86.970907 621.070827,92.106067 624.00524,96.04372 C626.939,99.981973 630.606953,101.951033 635.0091,101.9509 C637.71118,101.9509 640.548993,100.85046 643.52254,98.64958 C646.379731,96.645309 648.219879,93.493857 648.5611,90.0205 C648.792793,88.32272 648.96649,86.99066 649.08219,86.02432 C649.198037,85.059687 649.256037,84.461233 649.25619,84.22896 L654.23658,84.22903 Z" id="Path" fill="#3884FF"></path>
            <path d="M654.23658,84.22903 C653.849393,96.19929 650.93435,105.793797 645.49145,113.01255 C640.047643,120.23209 633.580493,123.842187 626.09,123.84284 C619.988827,123.84284 614.641353,120.30997 610.04758,113.24423 C605.45236,106.17863 603.155027,95.30999 603.15558,80.63831 C603.15558,77.39511 603.23281,74.306303 603.38727,71.37189 C603.541197,68.43813 603.734267,65.658237 603.96648,63.03221 L608.02057,24.92421 L581.26367,24.92421 C576.63075,73.10935 572.827713,101.777203 569.85456,110.92777 C566.88114,120.078143 561.84258,124.65377 554.73888,124.65377 C551.532337,124.574892 548.472688,123.293166 546.16733,121.06304 C543.460651,118.664603 541.972675,115.178443 542.11323,111.56474 C542.11323,108.014073 544.91243,103.05274 550.51083,96.68074 C556.10897,90.31 559.217083,84.499223 559.83517,79.24841 L566.78493,24.92418 L555.54978,24.92418 C552.382396,24.943073 549.265222,25.717354 546.45713,27.18272 C543.872485,28.36981 541.623528,30.180876 539.91262,32.45296 L534.93178,39.86609 L530.87769,39.86609 C534.660437,28.12929 539.312983,19.306937 544.83533,13.39903 C550.35533,7.4916567 556.70664,4.53803 563.88926,4.53803 L652.38349,4.53803 L652.38349,24.92414 L622.49929,24.92414 C621.57255,34.19056 620.858253,43.456893 620.3564,52.72314 C619.853367,61.98956 619.60244,71.294593 619.60362,80.63824 C619.60362,86.970907 621.070827,92.106067 624.00524,96.04372 C626.939,99.981973 630.606953,101.951033 635.0091,101.9509 C637.71118,101.9509 640.548993,100.85046 643.52254,98.64958 C646.379731,96.645309 648.219879,93.493857 648.5611,90.0205 C648.792793,88.32272 648.96649,86.99066 649.08219,86.02432 C649.198037,85.059687 649.256037,84.461233 649.25619,84.22896 L654.23658,84.22903 Z" id="Path" fill="#000000" opacity="0.1"></path>
            <path d="M654.23658,80.61003 C653.849393,92.58029 650.93435,102.174797 645.49145,109.39355 C640.047643,116.61309 633.580493,120.223187 626.09,120.22384 C619.988827,120.22384 614.641353,116.690973 610.04758,109.62524 C605.45236,102.559633 603.155027,91.69099 603.15558,77.01931 C603.15558,73.77611 603.23281,70.687303 603.38727,67.75289 C603.541197,64.81913 603.734267,62.03924 603.96648,59.41322 L608.02057,21.30516 L581.26367,21.30516 C576.63075,69.490333 572.827713,98.158203 569.85456,107.30877 C566.88114,116.45915 561.84258,121.03477 554.73888,121.03477 C551.532337,120.955892 548.472688,119.674166 546.16733,117.44404 C543.460652,115.045607 541.972676,111.55945 542.11323,107.94575 C542.11323,104.395083 544.91243,99.43375 550.51083,93.06175 C556.10897,86.691003 559.217083,80.880227 559.83517,75.62942 L566.78493,21.30518 L555.54978,21.30518 C552.382396,21.324073 549.265222,22.098354 546.45713,23.56372 C543.872485,24.75081 541.623528,26.561876 539.91262,28.83396 L534.93178,36.2471 L530.87769,36.2471 C534.660437,24.510287 539.312983,15.6879333 544.83533,9.78004 C550.35533,3.87266 556.70664,0.91904 563.88926,0.91904 L652.38349,0.91904 L652.38349,21.30515 L622.49929,21.30515 C621.57255,30.57157 620.858253,39.837923 620.3564,49.10421 C619.853367,58.370623 619.60244,67.675653 619.60362,77.0193 C619.60362,83.351967 621.070827,88.487127 624.00524,92.42478 C626.939,96.363033 630.606953,98.332093 635.0091,98.33196 C637.71118,98.33196 640.548993,97.23152 643.52254,95.03064 C646.379731,93.026369 648.219879,89.874917 648.5611,86.40156 C648.792793,84.70378 648.96649,83.371723 649.08219,82.40539 C649.198037,81.440723 649.256037,80.842267 649.25619,80.61002 L654.23658,80.61003 Z" id="Path" fill="#3884FF"></path>
        </g>
    </g>
</svg>