<?xml version="1.0" encoding="UTF-8"?>
<svg width="964px" height="657px" viewBox="0 0 964 657" version="1.1" xmlns="http://www.w3.org/2000/svg" xmlns:xlink="http://www.w3.org/1999/xlink">
    <!-- Generator: Sketch 52.6 (67491) - http://www.bohemiancoding.com/sketch -->
    <title>useTransition</title>
    <desc>Created with Sketch.</desc>
    <g id="Page-1" stroke="none" stroke-width="1" fill="none" fill-rule="evenodd">
        <g id="useTransition">
            <rect id="Rectangle" fill="#3884FF" x="31.5" y="27.5" width="403" height="240" rx="22.84021"></rect>
            <rect id="Rectangle" fill="#F5F5F5" x="560.5" y="219.5" width="403" height="240" rx="22.84021"></rect>
            <rect id="Rectangle" stroke="#3F3D56" x="0.5" y="0.5" width="403" height="240" rx="22.84021"></rect>
            <rect id="Rectangle" stroke="#3F3D56" x="529.5" y="192.5" width="403" height="240" rx="22.84021"></rect>
            <path d="M206,271.5 C206,271.5 208,286.5 203,292.5 C198,298.5 190,338.5 190,338.5 L190,362.5 C190,362.5 221,317.5 227,299.5 C233,281.5 227,267.5 227,267.5 L206,271.5 Z" id="Path" fill="#FFC1C7"></path>
            <path d="M203,197.5 L203.42258,197.9754 C208.586659,203.782813 212.639395,210.489897 215.37882,217.7624 C221.94373,235.1951 236.055,278.16713 231,282.5 C224,288.5 204,292.5 203,291.5 C202,290.5 182,228.5 182,228.5 L203,197.5 Z" id="Path" fill="#3F3D56"></path>
            <path d="M170.5,622.5 C170.5,622.5 194.5,627.5 195.5,622.5 C196.13952,619.391637 197.146598,616.370402 198.5,613.5 C198.5,613.5 220.25284,614.40637 214.57358,633.477 C214.004092,635.356343 212.760924,636.959336 211.08244,637.97862 C205.90192,641.1489 193.6989,648.62569 187.5,652.5 C182.84075,655.412 176.14632,653.23611 171.36771,650.911 C167.845594,649.18505 165.931398,645.300093 166.70887,641.45565 L170.5,622.5 Z" id="Path" fill="#3F3D56"></path>
            <path d="M101.5,625.5 C101.5,625.5 77.5,630.5 76.5,625.5 C75.8604803,622.391637 74.8534021,619.370402 73.5,616.5 C73.5,616.5 51.789,617.40462 57.41007,636.422 C57.9877751,638.337428 59.2542707,639.971099 60.96529,641.00793 C66.17266,644.1946 78.32006,651.63754 84.5,655.5 C89.60231,658.68895 97.14528,655.77627 101.94015,653.24788 C104.676047,651.819671 106.144203,648.759909 105.54642,645.73211 L101.5,625.5 Z" id="Path" fill="#3F3D56"></path>
            <path d="M71.5,284.5 C71.5,284.5 69.5,299.5 74.5,305.5 C79.5,311.5 87.5,334.5 87.5,334.5 L87.5,358.5 C87.5,358.5 56.5,330.5 50.5,312.5 C44.5,294.5 50.5,280.5 50.5,280.5 L71.5,284.5 Z" id="Path" fill="#FFC1C7"></path>
            <circle id="Oval" fill="#FFC1C7" cx="141.5" cy="136.5" r="25"></circle>
            <path d="M161.5,146.5 C161.5,146.5 154.5,178.5 161.5,182.5 C168.5,186.5 119.5,182.5 119.5,182.5 C119.5,182.5 130.5,155.5 125.5,146.5 C120.5,137.5 161.5,146.5 161.5,146.5 Z" id="Path" fill="#FFC1C7"></path>
            <path d="M185.5,359.5 C185.5,359.5 194.5,372.5 191.5,412.5 C188.5,452.5 185.5,494.5 185.5,494.5 C185.5,494.5 207.5,620.5 200.5,623.5 C193.5,626.5 170.5,629.5 167.5,626.5 C164.5,623.5 150.5,506.5 150.5,506.5 L137.5,410.5 L117.5,520.5 C117.5,520.5 106.5,627.5 98.5,632.5 C92.781,636.07435 81.44064,633.51623 75.43862,631.76684 C73.1217341,631.101233 71.5617227,628.935976 71.66384,626.52754 C72.39693,609.70072 75.68845,543.29364 83.5,502.5 C92.5,455.5 74.5,361.5 90.5,359.5 C106.5,357.5 185.5,359.5 185.5,359.5 Z" id="Path" fill="#2F2E41"></path>
            <path d="M115.5,178.5 C115.5,178.5 119.5,160.5 134.5,162.5 C149.5,164.5 159.5,163.5 162.5,173.5 C165.5,183.5 197.5,191.5 197.5,191.5 C197.5,191.5 205.5,192.5 204.5,205.5 C203.5,218.5 183.5,266.5 183.5,266.5 C183.5,266.5 184.5,306.5 189.5,324.5 C194.5,342.5 194.5,364.5 183.5,369.5 C172.5,374.5 103.5,392.5 87.5,370.5 C87.5,370.5 78.5,338.5 84.5,325.5 C90.5,312.5 83.5,261.5 83.5,261.5 L64.5,219.5 C64.5,219.5 70.5,199.5 87.5,193.5 C97.5607393,189.995963 107.009074,184.934355 115.5,178.5 Z" id="Path" fill="#3F3D56"></path>
            <path d="M72.5,210.5 L64.5,219.5 C64.5,219.5 40.5,278.5 47.5,284.5 C54.5,290.5 74.5,294.5 75.5,293.5 C76.5,292.5 93.5,241.5 93.5,241.5 L72.5,210.5 Z" id="Path" fill="#3F3D56"></path>
            <path d="M170.5,121.5 C170.5,121.5 166.5,124.5 165.5,131.5 C164.5,138.5 158.35926,127.51144 156.92963,142.00572 C155.5,156.5 131.5,166.5 122.5,159.5 C113.5,152.5 98.5,108.5 119.5,101.5 C140.5,94.5 161.5,95.5 165.5,102.5 C169.5,109.5 170.5,121.5 170.5,121.5 Z" id="Path" fill="#2F2E41"></path>
            <path d="M150.92969,142.00568 C152.35925,127.51141 158.5,138.5 159.5,131.5 C160.5,124.5 164.5,121.5 164.5,121.5 C164.5,121.5 163.5,109.5 159.5,102.5 C157.58618,99.15076 151.77515,97.17944 143.93982,96.79639 C154.74951,96.30115 163.124,98.342 165.5,102.5 C169.5,109.5 170.5,121.5 170.5,121.5 C170.5,121.5 166.5,124.5 165.5,131.5 C164.5,138.5 158.35925,127.51141 156.92969,142.00568 C155.71753,154.29368 138.28662,163.3465 127.52319,161.55402 C137.78076,160.14539 149.92505,152.18982 150.92969,142.00568 Z" id="Path" fill="#000000" opacity="0.1"></path>
        </g>
    </g>
</svg>